<?xml version="1.0" encoding="utf-8"?>
<!-- Generator: Adobe Illustrator 16.0.0, SVG Export Plug-In . SVG Version: 6.00 Build 0)  -->
<!DOCTYPE svg PUBLIC "-//W3C//DTD SVG 1.1//EN" "http://www.w3.org/Graphics/SVG/1.1/DTD/svg11.dtd">
<svg version="1.1" id="Layer_1" xmlns="http://www.w3.org/2000/svg" xmlns:xlink="http://www.w3.org/1999/xlink" x="0px" y="0px"
	 width="100px" height="100px" viewBox="0 0 100 100" enable-background="new 0 0 100 100" xml:space="preserve">
<g>
	<g>
		<g>
			<path fill="#FFD204" d="M24.763,65.271c1.781,0,3.456-0.693,4.715-1.953c0.863-0.861,1.411-1.91,1.701-3.012l3.502,3.5
				c1.258,1.26,2.934,1.953,4.713,1.953c1.782,0,3.455-0.693,4.714-1.953c1.26-1.258,1.953-2.934,1.953-4.713
				c0-1.782-0.693-3.455-1.953-4.715l-3.009-3.009c1.123-0.297,2.164-0.86,3.009-1.705c1.26-1.26,1.953-2.934,1.953-4.715
				c0-1.78-0.693-3.455-1.953-4.713l-4.188-4.188c1.125-0.297,2.165-0.86,3.01-1.705c1.26-1.258,1.953-2.932,1.953-4.713
				s-0.693-3.455-1.953-4.713l-11.82-11.822V1.667c0-0.92-0.746-1.667-1.666-1.667s-1.666,0.747-1.666,1.667v8.867
				c-2.416-0.94-5.353-0.467-7.238,1.418c-2.068,2.072-2.463,5.163-1.235,7.653c-1.294,0.228-2.523,0.818-3.48,1.776
				c-2.054,2.055-2.456,5.117-1.263,7.599c-1.299,0.248-2.495,0.873-3.45,1.828c-2.054,2.055-2.458,5.119-1.264,7.6
				c-1.3,0.248-2.495,0.873-3.45,1.828c-1.26,1.259-1.953,2.934-1.953,4.713c0,1.782,0.693,3.455,1.953,4.715L20.05,63.318
				C21.308,64.578,22.982,65.271,24.763,65.271z M22.894,14.309c0.631-0.628,1.467-0.975,2.357-0.975s1.728,0.347,2.357,0.975
				l0.655,0.655l12.309,12.31c0.63,0.63,0.977,1.467,0.977,2.356c0,0.89-0.347,1.727-0.977,2.357c-1.26,1.258-3.455,1.258-4.714,0
				L22.894,19.023C21.596,17.723,21.596,15.608,22.894,14.309z M18.179,23.738c0.63-0.63,1.469-0.977,2.358-0.977
				s1.727,0.347,2.356,0.977l18.857,18.855c0.629,0.63,0.977,1.467,0.977,2.357c0,0.892-0.348,1.728-0.977,2.358
				c-1.259,1.258-3.455,1.258-4.714,0l-7.333-7.333l-9.167-9.167c-0.002-0.002-0.002-0.002-0.003-0.003l-2.355-2.354
				C16.88,27.152,16.88,25.037,18.179,23.738z M13.466,33.165c0.63-0.628,1.467-0.975,2.357-0.975c0.889,0,1.726,0.345,2.354,0.972
				l9.17,9.17l14.404,14.405c0.629,0.629,0.977,1.465,0.977,2.357c0,0.89-0.348,1.727-0.977,2.356c-1.259,1.259-3.455,1.259-4.714,0
				l-7.557-7.556c0-0.002-0.002-0.003-0.003-0.005l-6.827-6.827l-9.184-9.183C12.167,36.58,12.167,34.465,13.466,33.165z
				 M7.775,44.95c0-0.89,0.347-1.727,0.977-2.357c0.63-0.628,1.467-0.975,2.356-0.975c0.893,0,1.729,0.347,2.357,0.975l0.961,0.962
				l12.699,12.699c1.293,1.3,1.293,3.41-0.006,4.708c-1.258,1.259-3.455,1.26-4.715,0L8.752,47.309
				C8.122,46.678,7.775,45.842,7.775,44.95z"/>
			<path fill="#FFD204" d="M77.727,41.667c0,0.92,0.746,1.667,1.667,1.667c0.92,0,1.667-0.747,1.667-1.667
				c0-12.046-5.028-19.146-8.033-23.388C72.15,17.04,71.061,15.5,71.061,15V1.667c0-0.92-0.746-1.667-1.666-1.667
				c-0.922,0-1.667,0.747-1.667,1.667V15c0,1.56,1.081,3.09,2.581,5.205C73.262,24.377,77.727,30.68,77.727,41.667z"/>
			<path fill="#FFD204" d="M29.442,93.334c-0.92,0-1.667,0.746-1.667,1.666v3.334c0,0.92,0.747,1.666,1.667,1.666
				s1.666-0.746,1.666-1.666V95C31.108,94.08,30.362,93.334,29.442,93.334z"/>
			<path fill="#FFD204" d="M73.65,43.613C69.73,41,57.419,33.86,56.806,33.508c-1.113-0.555-2.351-0.479-3.48,0.222
				c-2.437,1.505-3.932,5.637-3.932,7.937c0,3.202,2.247,5.148,4.627,7.208c0.825,0.713,1.677,1.453,2.528,2.303l8.334,8.334
				c0.551,0.553,1.072,1.075,1.145,1.231c0.029,0.094,0.033,0.448,0.033,0.797c-0.394,1.054-3.472,4.573-6.121,7.227L41.554,85.483
				c-0.484,0.477-1.508,1.183-2.16,1.183h-15c-1.838,0-3.333-1.494-3.333-3.333S22.556,80,24.394,80h11.667
				c2.29,0,4.29-1.936,4.512-2.155l11.666-11.667c0.65-0.651,0.65-1.705,0-2.356c-0.651-0.651-1.706-0.651-2.355,0L38.221,75.483
				c-0.485,0.477-1.509,1.183-2.16,1.183H24.394h-5c-1.838,0-3.333-1.494-3.333-3.333c0-1.838,1.495-3.333,3.333-3.333h13.334
				c0.92,0,1.666-0.747,1.666-1.667s-0.746-1.667-1.666-1.667H19.394h-5c-1.838,0-3.333-1.494-3.333-3.333
				c0-0.823,0.302-1.611,0.849-2.222c0.615-0.687,0.557-1.74-0.129-2.355c-0.687-0.614-1.74-0.555-2.354,0.131
				c-1.096,1.223-1.699,2.802-1.699,4.446c0,3.437,2.621,6.24,5.965,6.597c-0.6,1-0.965,2.155-0.965,3.403
				c0,3.437,2.621,6.24,5.965,6.597c-0.6,1-0.965,2.155-0.965,3.403c0,3.677,2.99,6.667,6.666,6.667h15c2.29,0,4.29-1.936,4.455-2.1
				l18.39-16.723c7.156-7.154,7.156-8.928,7.156-9.512c0-2.211-0.272-2.628-2.156-4.512l-8.333-8.333
				c-0.935-0.937-1.875-1.748-2.703-2.467c-2.283-1.978-3.476-3.085-3.476-4.688c0-2.104,1.794-5.178,2.497-5.225
				c0.127,0.073,12.743,7.388,16.579,9.945c4.31,2.874,9.258,7.397,9.258,16.947c0,7.153-5.625,16.852-9.347,23.269
				c-2.66,4.585-3.938,6.856-3.938,8.398v3.333c0,0.92,0.747,1.667,1.667,1.667s1.667-0.747,1.667-1.667v-3.315
				c0.068-0.846,1.885-3.979,3.488-6.743c4.133-7.128,9.796-16.89,9.796-24.941C84.394,52.076,78.262,46.688,73.65,43.613z"/>
		</g>
	</g>
</g>
</svg>
