<?xml version="1.0" encoding="utf-8"?>
<!-- Generator: Adobe Illustrator 16.0.0, SVG Export Plug-In . SVG Version: 6.00 Build 0)  -->
<!DOCTYPE svg PUBLIC "-//W3C//DTD SVG 1.1//EN" "http://www.w3.org/Graphics/SVG/1.1/DTD/svg11.dtd">
<svg version="1.1" id="Layer_1" xmlns="http://www.w3.org/2000/svg" xmlns:xlink="http://www.w3.org/1999/xlink" x="0px" y="0px"
	 width="100px" height="100px" viewBox="0 0 100 100" enable-background="new 0 0 100 100" xml:space="preserve">
<g>
	<g>
		<g>
			<path fill="#121C26" d="M77.996,47.269V23.09h-8.36L31.18,40.715h-4.458V26.294H38.97l8.174-17.98
				c0.266-0.588,0.409-1.242,0.409-1.891V5.23c0-2.522-2.051-4.573-4.573-4.573c-1.744,0-3.309,0.968-4.091,2.528l-6.747,13.495
				H17.108H5.892c-2.651,0-4.807,2.156-4.807,4.807v24.034v22.434c0,2.65,2.156,4.806,4.807,4.806h4.807v22.433
				c0,2.65,2.157,4.807,4.807,4.807h12.818c2.65,0,4.807-2.156,4.807-4.807v-1.602c0-2.65-2.157-4.809-4.807-4.809
				c-0.885,0-1.603-0.717-1.603-1.601V72.761h4.458l38.136,17.48l0.32,0.146h8.36V66.208c4.539-0.767,8.012-4.715,8.012-9.47
				C86.008,51.981,82.535,48.036,77.996,47.269z M31.529,19.885h2.593L41.755,4.62c0.232-0.468,0.701-0.758,1.224-0.758
				c0.753,0,1.369,0.615,1.369,1.369v1.192c0,0.194-0.042,0.39-0.122,0.566L36.906,23.09h-5.377V19.885z M19.085,19.885
				l-1.977,3.296l-1.977-3.296H19.085z M4.29,21.487c0-0.884,0.718-1.602,1.603-1.602h5.502l5.713,9.522l5.714-9.522h5.502v3.205
				h-4.807v13.38c-0.731-0.349-1.54-0.562-2.404-0.562c-1.57,0-2.986,0.652-4.005,1.695c-1.019-1.043-2.436-1.695-4.006-1.695
				c-0.863,0-1.673,0.213-2.403,0.562V24.692H7.494v4.807H4.29V21.487z M18.71,51.931V41.516c0-1.325,1.078-2.403,2.403-2.403
				c1.325,0,2.404,1.078,2.404,2.403v0.802v9.613H18.71z M23.518,55.136v3.204H18.71v-3.204H23.518z M10.699,51.931v-9.613v-0.802
				c0-1.325,1.078-2.403,2.403-2.403s2.404,1.078,2.404,2.403v10.415H10.699z M15.506,55.136v3.204h-4.807v-3.204H15.506z
				 M4.29,32.703h3.205v8.012H5.892c-0.564,0-1.099,0.115-1.603,0.294V32.703z M28.324,91.989c0.885,0,1.602,0.718,1.602,1.603
				v1.602c0,0.885-0.717,1.603-1.602,1.603H15.506c-0.885,0-1.602-0.718-1.602-1.603V72.761h9.614v14.422
				C23.518,89.833,25.674,91.989,28.324,91.989z M29.926,69.557H5.892c-0.885,0-1.603-0.717-1.603-1.602V45.521
				c0-0.884,0.718-1.601,1.603-1.601h1.602v17.626h8.012h3.205h8.011V43.92h3.205V69.557z M68.382,86.289L33.131,70.13V43.346
				l3.205-1.469v26.078h3.205V40.407l28.842-13.219V86.289z M74.792,87.183h-3.205V26.294h3.205V87.183z M77.996,62.92V50.557
				c2.758,0.716,4.807,3.202,4.807,6.182C82.803,59.717,80.754,62.204,77.996,62.92z"/>
			<rect x="89.211" y="55.136" fill="#121C26" width="11.217" height="3.204"/>
			<rect x="89.211" y="35.908" fill="#121C26" width="11.217" height="3.204"/>
			<rect x="89.211" y="74.363" fill="#121C26" width="11.217" height="3.205"/>
			<path fill="#121C26" d="M25.12,8.668c0-4.417-3.594-8.011-8.012-8.011c-4.417,0-8.012,3.594-8.012,8.011
				c0,4.418,3.594,8.012,8.012,8.012C21.526,16.681,25.12,13.086,25.12,8.668z M17.108,13.476c-2.65,0-4.807-2.157-4.807-4.808
				c0-2.65,2.157-4.807,4.807-4.807c2.651,0,4.807,2.157,4.807,4.807C21.915,11.319,19.759,13.476,17.108,13.476z"/>
		</g>
	</g>
</g>
</svg>
