<?xml version="1.0" encoding="utf-8"?>
<!-- Generator: Adobe Illustrator 16.0.0, SVG Export Plug-In . SVG Version: 6.00 Build 0)  -->
<!DOCTYPE svg PUBLIC "-//W3C//DTD SVG 1.1//EN" "http://www.w3.org/Graphics/SVG/1.1/DTD/svg11.dtd">
<svg version="1.1" id="Layer_1" xmlns="http://www.w3.org/2000/svg" xmlns:xlink="http://www.w3.org/1999/xlink" x="0px" y="0px"
	 width="100px" height="100px" viewBox="0 0 100 100" enable-background="new 0 0 100 100" xml:space="preserve">
<g>
	<path fill="#FF9C00" d="M87.453,60.674l-0.008-0.084c-0.755-7.332-6.89-12.861-14.27-12.861h-4.633
		c2.06-3.318,3.251-7.229,3.251-11.414v-1.07c2.819-0.672,4.922-3.21,4.922-6.231s-2.103-5.56-4.922-6.231v-1.069
		c0-11.329-8.722-20.658-19.804-21.627c-0.002-0.001-0.004-0.001-0.006-0.001c-0.303-0.026-0.606-0.047-0.912-0.061
		c-0.032-0.002-0.064-0.002-0.098-0.004C50.679,0.008,50.382,0,50.083,0c-0.254,0-0.506,0.006-0.757,0.015
		c-0.058,0.002-0.113,0.004-0.171,0.007c-0.252,0.01-0.502,0.023-0.752,0.043c-0.002,0-0.005,0-0.008,0
		c-0.013,0.002-0.025,0.003-0.038,0.004c-0.225,0.018-0.448,0.04-0.671,0.064c-0.074,0.008-0.148,0.017-0.224,0.025
		c-0.197,0.023-0.394,0.05-0.589,0.079c-0.105,0.016-0.212,0.033-0.317,0.051c-0.141,0.022-0.281,0.047-0.421,0.073
		c-0.123,0.021-0.245,0.045-0.368,0.07c-0.078,0.016-0.156,0.033-0.234,0.05c-0.281,0.06-0.561,0.125-0.838,0.195
		c-0.015,0.004-0.029,0.007-0.044,0.012c-2.997,0.771-5.799,2.176-8.241,4.158c-0.814,0.661-1.569,1.376-2.266,2.139
		c-3.581,3.873-5.773,9.048-5.773,14.727v1.069c-2.818,0.672-4.922,3.21-4.922,6.231s2.104,5.56,4.922,6.231v1.07
		c0,4.185,1.191,8.096,3.252,11.414h-4.634c-7.38,0-13.515,5.529-14.271,12.879L9.174,100h11.927h57.963H90.99L87.453,60.674z
		 M71.794,25.914c1.153,0.555,1.952,1.735,1.952,3.099s-0.799,2.544-1.952,3.099V25.914z M28.371,32.111
		c-1.154-0.555-1.952-1.735-1.952-3.099s0.798-2.544,1.952-3.099V32.111z M36.445,8.87c0.003-0.003,0.005-0.005,0.008-0.008
		c0.141-0.151,0.287-0.298,0.434-0.445c2.515-2.497,5.732-4.286,9.326-5.044c0.043-0.009,0.085-0.019,0.127-0.027
		c0.116-0.023,0.233-0.045,0.351-0.066c0.102-0.02,0.203-0.037,0.305-0.053c0.117-0.02,0.234-0.039,0.353-0.057
		c0.154-0.021,0.309-0.043,0.463-0.062c0.07-0.009,0.14-0.017,0.21-0.024c0.185-0.02,0.37-0.039,0.557-0.053
		c0.019-0.002,0.037-0.004,0.056-0.006c0.215-0.016,0.431-0.027,0.646-0.037c0.05-0.002,0.1-0.004,0.15-0.006
		c0.218-0.007,0.437-0.012,0.653-0.012c0.257,0,0.513,0.006,0.769,0.017c0.027,0.001,0.056,0.002,0.084,0.003
		c4.09,0.188,8.006,1.725,11.107,4.375c2.994,2.559,5.115,6.04,6.051,9.892c-2.926,1.418-5.927,2.108-9.142,2.108
		c-5.919,0-11.445-2.344-15.563-6.601l-1.068-1.104l-1.067,1.104c-2.737,2.829-5.911,4.769-9.457,5.782
		C32.392,14.84,33.994,11.51,36.445,8.87z M31.341,36.313V35.42l0,0V22.605v-0.879c4.104-0.929,7.789-2.893,10.983-5.854
		c4.549,4.18,10.397,6.463,16.627,6.463c3.447,0,6.676-0.695,9.813-2.116c0.039,0.492,0.061,0.989,0.061,1.491v0.895V35.42v0.894
		c0,8.858-6.179,16.301-14.453,18.245c-0.026,0.006-0.053,0.014-0.08,0.02c-0.105,0.024-0.213,0.047-0.319,0.07
		c-0.058,0.012-0.116,0.024-0.175,0.036c-0.09,0.019-0.18,0.035-0.271,0.052c-0.075,0.015-0.151,0.028-0.228,0.041
		c-0.08,0.014-0.16,0.027-0.24,0.041c-0.086,0.014-0.173,0.026-0.26,0.039c-0.074,0.011-0.147,0.021-0.222,0.031
		c-0.094,0.012-0.188,0.023-0.282,0.035c-0.069,0.008-0.139,0.016-0.208,0.023c-0.1,0.012-0.199,0.02-0.3,0.029
		c-0.064,0.006-0.131,0.012-0.196,0.018c-0.104,0.008-0.21,0.016-0.315,0.021c-0.063,0.004-0.123,0.009-0.186,0.012
		c-0.115,0.006-0.23,0.01-0.346,0.015c-0.053,0.001-0.104,0.005-0.156,0.006c-0.169,0.005-0.337,0.007-0.506,0.007
		c-0.168,0-0.337-0.002-0.505-0.007c-0.052-0.001-0.104-0.005-0.156-0.006c-0.115-0.004-0.231-0.009-0.347-0.015
		c-0.062-0.004-0.123-0.008-0.185-0.012c-0.105-0.007-0.211-0.014-0.316-0.021c-0.065-0.006-0.131-0.012-0.196-0.018
		c-0.101-0.01-0.2-0.02-0.299-0.029c-0.07-0.008-0.14-0.016-0.209-0.023c-0.094-0.012-0.188-0.023-0.281-0.035
		c-0.075-0.01-0.148-0.021-0.224-0.031c-0.086-0.014-0.172-0.026-0.258-0.04c-0.081-0.013-0.162-0.026-0.242-0.04
		c-0.075-0.014-0.15-0.027-0.226-0.041c-0.091-0.018-0.182-0.033-0.272-0.053c-0.058-0.012-0.114-0.023-0.172-0.035
		c-0.107-0.023-0.215-0.047-0.322-0.07c-0.025-0.006-0.052-0.014-0.077-0.02C37.521,52.615,31.341,45.173,31.341,36.313z
		 M40.247,62.749v2.97h35.847v31.311H24.071V65.719h12.216v-2.97H21.101v34.28h-8.677l3.246-36.086l0.004-0.049
		c0.599-5.813,5.463-10.195,11.315-10.195h6.832c2.897,3.275,6.663,5.561,10.813,6.633c0.02,0.006,0.04,0.011,0.061,0.016
		c0.144,0.037,0.288,0.072,0.434,0.106c0.044,0.011,0.089,0.021,0.134,0.03c0.126,0.029,0.252,0.057,0.379,0.084
		c0.064,0.013,0.129,0.025,0.193,0.039c0.11,0.021,0.222,0.043,0.333,0.063c0.08,0.015,0.161,0.028,0.242,0.042
		c0.099,0.018,0.197,0.033,0.296,0.049c0.094,0.016,0.188,0.028,0.282,0.042c0.089,0.013,0.177,0.026,0.266,0.038
		c0.104,0.014,0.21,0.025,0.314,0.037c0.081,0.01,0.161,0.02,0.242,0.027c0.113,0.012,0.227,0.022,0.341,0.032
		c0.073,0.007,0.147,0.015,0.221,0.02c0.122,0.01,0.243,0.017,0.365,0.024c0.067,0.004,0.135,0.01,0.202,0.014
		c0.133,0.006,0.266,0.011,0.398,0.016c0.058,0.002,0.115,0.004,0.173,0.006c0.19,0.005,0.382,0.008,0.573,0.008
		s0.383-0.002,0.572-0.008c0.058-0.002,0.116-0.004,0.173-0.006c0.133-0.005,0.266-0.01,0.398-0.016
		c0.068-0.004,0.135-0.01,0.202-0.014c0.122-0.008,0.243-0.015,0.365-0.024c0.073-0.005,0.147-0.013,0.222-0.02
		c0.113-0.011,0.227-0.021,0.34-0.032c0.082-0.008,0.162-0.018,0.242-0.027c0.105-0.012,0.21-0.023,0.314-0.037
		c0.088-0.012,0.178-0.025,0.266-0.038c0.094-0.013,0.188-0.026,0.282-0.042c0.099-0.016,0.197-0.031,0.296-0.049
		c0.081-0.014,0.162-0.027,0.242-0.042c0.111-0.021,0.223-0.042,0.334-0.063c0.064-0.014,0.129-0.026,0.193-0.039
		c0.126-0.027,0.252-0.055,0.377-0.084c0.045-0.01,0.09-0.02,0.135-0.03c0.146-0.034,0.29-0.069,0.434-0.106
		c0.021-0.004,0.041-0.01,0.061-0.016c4.148-1.071,7.915-3.357,10.813-6.633h6.832c5.852,0,10.717,4.383,11.313,10.178l3.251,36.152
		h-8.676v-34.28H40.247z"/>
	<path fill="#FF9C00" d="M50.083,88.839c4.115,0,7.464-3.349,7.464-7.464c0-4.116-3.349-7.465-7.464-7.465
		c-4.116,0-7.465,3.348-7.465,7.465C42.618,85.49,45.967,88.839,50.083,88.839z M50.083,76.881c2.478,0,4.493,2.016,4.493,4.494
		s-2.016,4.494-4.493,4.494c-2.479,0-4.495-2.016-4.495-4.494S47.604,76.881,50.083,76.881z"/>
	<path fill="#FF9C00" d="M57.461,88.753l2.1,2.101c5.227-5.227,5.227-13.73,0-18.958l-2.1,2.101
		C61.529,78.064,61.529,84.685,57.461,88.753z"/>
</g>
</svg>
