<?xml version="1.0" encoding="utf-8"?>
<!-- Generator: Adobe Illustrator 17.0.0, SVG Export Plug-In . SVG Version: 6.00 Build 0)  -->
<!DOCTYPE svg PUBLIC "-//W3C//DTD SVG 1.1//EN" "http://www.w3.org/Graphics/SVG/1.1/DTD/svg11.dtd">
<svg version="1.1" id="Layer_1" xmlns="http://www.w3.org/2000/svg" xmlns:xlink="http://www.w3.org/1999/xlink" x="0px" y="0px"
	 width="555px" height="472.985px" viewBox="195.776 246.901 555 472.985" enable-background="new 195.776 246.901 555 472.985"
	 xml:space="preserve">
<g>
	
		<line fill="none" stroke="#4F7AC8" stroke-width="1.6598" stroke-miterlimit="10" x1="477.549" y1="485.389" x2="615.314" y2="485.389"/>
	
		<line fill="none" stroke="#4F7AC8" stroke-width="1.6598" stroke-miterlimit="10" x1="477.346" y1="484.082" x2="562.767" y2="375.998"/>
	
		<line fill="none" stroke="#4F7AC8" stroke-width="1.6598" stroke-miterlimit="10" x1="477.346" y1="484.082" x2="444.521" y2="345.856"/>
	
		<line fill="none" stroke="#4F7AC8" stroke-width="1.6598" stroke-miterlimit="10" x1="477.346" y1="484.082" x2="349.947" y2="424.779"/>
	
		<line fill="none" stroke="#4F7AC8" stroke-width="1.6598" stroke-miterlimit="10" x1="477.346" y1="484.082" x2="350.253" y2="548.052"/>
	
		<line fill="none" stroke="#4F7AC8" stroke-width="1.6598" stroke-miterlimit="10" x1="477.346" y1="484.082" x2="448.883" y2="622.708"/>
	
		<line fill="none" stroke="#4F7AC8" stroke-width="1.6598" stroke-miterlimit="10" x1="477.346" y1="484.082" x2="568.591" y2="592.529"/>
</g>
<g>
	<g>
		<circle fill="#FFFFFF" cx="586.457" cy="639.41" r="2.94"/>
		<path fill="#556080" d="M586.457,642.947c-1.948,0-3.527-1.592-3.527-3.537c0-1.944,1.579-3.528,3.527-3.528
			c1.946,0,3.527,1.583,3.527,3.528C589.983,641.355,588.402,642.947,586.457,642.947z M586.457,637.063
			c-1.297,0-2.351,1.05-2.351,2.348s1.055,2.352,2.351,2.352s2.35-1.054,2.35-2.352
			C588.807,638.113,587.754,637.063,586.457,637.063z"/>
	</g>
	<g>
		<path fill="#FFFFFF" d="M599.975,636.47c1.625,0,2.94,1.316,2.94,2.941c0,1.625-1.314,2.94-2.94,2.94
			c-1.623,0-2.938-1.315-2.938-2.94C597.037,637.786,598.353,636.47,599.975,636.47z"/>
		<path fill="#556080" d="M599.975,642.947c-1.941,0-3.528-1.592-3.528-3.537c0-1.944,1.587-3.528,3.528-3.528
			c1.946,0,3.529,1.583,3.529,3.528C603.504,641.355,601.921,642.947,599.975,642.947z M599.975,637.063
			c-1.298,0-2.351,1.05-2.351,2.348s1.053,2.352,2.351,2.352c1.301,0,2.352-1.054,2.352-2.352
			C602.327,638.113,601.276,637.063,599.975,637.063z"/>
	</g>
	<path fill="#556080" d="M605.853,639.411h-2.998c-0.325,0-0.588-0.26-0.588-0.585c0-0.323,0.263-0.586,0.588-0.586h2.998
		c0.328,0,0.592,0.263,0.592,0.586C606.445,639.152,606.181,639.411,605.853,639.411z"/>
	<path fill="#556080" d="M597.097,639.411h-7.759c-0.326,0-0.596-0.26-0.596-0.585c0-0.323,0.269-0.586,0.596-0.586h7.759
		c0.324,0,0.588,0.263,0.588,0.586C597.685,639.152,597.421,639.411,597.097,639.411z"/>
	<g>
		<path fill="#7FB1F0" d="M582.343,634.124l-3.04-15.285h28.315v12.937c0,1.3-1.046,2.348-2.341,2.348H582.343"/>
		<path fill="#556080" d="M605.276,634.708h-23.42l-3.269-16.463h29.619v13.536C608.206,633.392,606.892,634.708,605.276,634.708z
			 M582.821,633.535h22.455c0.966,0,1.753-0.79,1.753-1.754v-12.36h-27.01L582.821,633.535z"/>
	</g>
	<path fill="#556080" d="M579.303,619.421c-0.286,0-0.533-0.202-0.58-0.485l-0.408-2.45h-1.269c-0.325,0-0.588-0.263-0.588-0.588
		c0-0.328,0.263-0.587,0.588-0.587h2.263l0.574,3.432c0.053,0.316-0.167,0.619-0.484,0.671
		C579.367,619.421,579.336,619.421,579.303,619.421z"/>
	<path fill="#1F305F" d="M575.285,614.134c0.974,0,1.762,0.788,1.762,1.764c0,0.977-0.787,1.763-1.762,1.763
		c-0.974,0-1.764-0.787-1.764-1.763C573.521,614.922,574.312,614.134,575.285,614.134z"/>
	<path fill="#556080" d="M583.577,639.411h-1.824c-0.823,0-1.621-0.354-2.179-0.965c-0.556-0.615-0.83-1.45-0.746-2.272
		c0.149-1.479,1.486-2.639,3.037-2.639c0.325,0,0.586,0.263,0.586,0.589c0,0.324-0.261,0.585-0.586,0.585
		c-0.959,0-1.778,0.693-1.866,1.583c-0.05,0.5,0.11,0.984,0.445,1.361c0.338,0.374,0.815,0.588,1.308,0.588h1.824
		c0.324,0,0.586,0.263,0.586,0.586C584.162,639.152,583.901,639.411,583.577,639.411z"/>
</g>
<g>
	<polyline fill="#FFFFFF" points="424.119,656.242 422.238,677.552 448.003,677.552 446.12,656.242 	"/>
	<path fill="#7FB1F0" d="M444.413,658.098h-18.587l-0.766,8.643h3.321c0.511,0,0.933,0.416,0.933,0.931
		c0,0.516-0.413,0.935-0.933,0.935h-3.486l-0.163,1.854h1.786c0.512,0,0.93,0.415,0.93,0.936c0,0.513-0.414,0.934-0.93,0.934h-1.951
		l-0.3,3.363h21.702L444.413,658.098z"/>
	<g>
		<path fill="#194F82" d="M447.899,655.22c-0.044-0.48-0.444-0.845-0.933-0.845h-5.322v-1.659c0-3.743-3.047-6.793-6.81-6.793
			c-3.753,0-6.802,3.05-6.802,6.805v1.658h-4.766c-0.477,0-0.88,0.365-0.932,0.848l-2.043,23.161
			c-0.105,0.586,0.45,1.014,0.924,1.014h27.807h0.005c0.515,0,0.934-0.414,0.934-0.932
			C449.961,678.409,447.899,655.22,447.899,655.22z M429.908,652.721c0-2.723,2.218-4.94,4.934-4.94c2.724,0,4.94,2.22,4.94,4.94
			v1.659h-9.873V652.721z M422.238,677.552l1.883-21.31h3.923v1.461c0,0.515,0.416,0.934,0.932,0.934
			c0.516,0,0.932-0.411,0.932-0.934v-1.461h9.885v1.461c0,0.515,0.409,0.934,0.932,0.934c0.518,0,0.933-0.411,0.933-0.934v-1.461
			h4.479l1.884,21.31L422.238,677.552L422.238,677.552z"/>
		<path fill="#194F82" d="M444.719,661.487c-0.048-0.51-0.498-0.89-1.014-0.839c-0.511,0.042-0.887,0.5-0.842,1.007l1.072,12.173
			h-4.659c-0.512,0-0.934,0.418-0.934,0.934c0,0.52,0.412,0.931,0.934,0.931h5.674c0.545,0,0.932-0.402,0.932-1.015L444.719,661.487
			z"/>
	</g>
</g>
<g>
	<path fill="#C7E5FF" d="M320.255,405.646l-9.45-6.26l-4.508,6.758c-2.108,3.296-1.54,8.338,0.435,9.604
		c1.977,1.263,7.307-0.383,9.415-3.679L320.255,405.646z"/>
	<path fill="#4F7AC8" d="M323.689,399.225c2.108-3.296,0.866-6.992-1.11-8.259c-1.977-1.264-6.634,0.382-8.741,3.678l-3.736,5.799
		l9.07,5.801L323.689,399.225z"/>
	<path fill="#ACD8FF" d="M316.518,413.596l4.106-6.422l-1.024-3.659l-5.47,8.554c-2.106,3.296-5.42,4.942-7.397,3.679
		C310.029,417.854,314.411,416.891,316.518,413.596z"/>
	<path fill="#E3F1FF" d="M306.969,407.489l5.638-8.817l-3.917,0.868l-4.109,6.422c-2.107,3.295-1.144,7.676,2.151,9.785
		C304.757,414.482,304.86,410.785,306.969,407.489z"/>
	<path fill="#4F7AC8" d="M324.732,400.751c2.107-3.296,1.144-7.676-2.153-9.785c1.977,1.266,1.872,4.962-0.236,8.259l-4.105,6.42
		l2.385,1.528L324.732,400.751z"/>
	<path fill="#4F7AC8" d="M315.184,394.645c2.108-3.296,5.417-4.943,7.394-3.678c-3.295-2.106-7.673-1.141-9.783,2.152l-4.105,6.422
		l2.386,1.526L315.184,394.645z"/>
	<path fill="#FFFFFF" d="M312.032,401.066l-9.449,6.262l-4.51-6.761c-2.109-3.293-1.54-8.334,0.437-9.601
		c1.977-1.264,7.308,0.382,9.416,3.678L312.032,401.066z"/>
	<path fill="#7FB1F0" d="M315.465,407.489c2.108,3.296,0.868,6.993-1.109,8.257c-1.977,1.264-6.633-0.381-8.742-3.678l-3.737-5.799
		l9.073-5.799L315.465,407.489z"/>
	<path fill="#A8A59A" d="M308.292,393.119l4.108,6.422l-1.025,3.658l-5.47-8.554c-2.106-3.296-5.419-4.943-7.396-3.678
		C301.805,388.861,306.187,389.825,308.292,393.119z"/>
	<path fill="#FFFFFF" d="M298.746,399.225l5.637,8.817l-3.919-0.869l-4.105-6.423c-2.109-3.295-1.144-7.674,2.15-9.784
		C296.533,392.233,296.637,395.929,298.746,399.225z"/>
	<path fill="#4F7AC8" d="M316.507,405.963c2.108,3.295,1.144,7.676-2.152,9.783c1.977-1.264,1.872-4.961-0.236-8.257l-4.106-6.422
		l2.386-1.526L316.507,405.963z"/>
	<path fill="#F2F2F2" d="M306.96,412.068c2.107,3.296,5.418,4.942,7.395,3.678c-3.296,2.109-7.675,1.143-9.782-2.151l-4.109-6.422
		l2.387-1.528L306.96,412.068z"/>
	<g>
		<path fill="#1D2328" d="M312.825,399.269L312.825,399.269L312.825,399.269l-4.106-6.423c-1.403-2.191-3.795-3.499-6.399-3.499
			c-1.446,0-2.857,0.413-4.079,1.197c-1.71,1.091-2.89,2.782-3.324,4.76c-0.436,1.98-0.074,4.011,1.017,5.719l4.107,6.421l0,0l0,0
			l4.107,6.422c1.403,2.191,3.794,3.502,6.397,3.502l0,0c1.447,0,2.86-0.415,4.081-1.196c1.709-1.092,2.89-2.784,3.325-4.764
			c0.434-1.98,0.075-4.008-1.017-5.716L312.825,399.269z M295.903,395.523c0.375-1.717,1.4-3.183,2.879-4.131
			c1.061-0.678,2.284-1.037,3.538-1.037c2.258,0,4.333,1.135,5.549,3.036l3.833,5.997l-11.082,7.089l-3.835-5.998
			C295.838,398.999,295.525,397.238,295.903,395.523z M316.965,411.192c-0.376,1.716-1.4,3.182-2.881,4.128
			c-1.062,0.68-2.286,1.04-3.539,1.04c-2.256,0-4.332-1.137-5.547-3.037l-3.836-5.996l11.084-7.088l3.835,5.997
			C317.029,407.715,317.342,409.476,316.965,411.192z"/>
		<path fill="#1D2328" d="M300.655,404.657c0.096,0.15,0.258,0.234,0.426,0.234c0.093,0,0.186-0.026,0.272-0.08
			c0.233-0.15,0.302-0.462,0.151-0.698l-3.02-4.721c-0.657-1.028-0.875-2.248-0.612-3.437c0.262-1.19,0.97-2.206,1.996-2.863
			c0.235-0.149,0.305-0.46,0.153-0.695c-0.15-0.237-0.463-0.304-0.696-0.154c-1.254,0.802-2.12,2.042-2.438,3.496
			c-0.321,1.454-0.056,2.943,0.745,4.197L300.655,404.657z"/>
		<path fill="#1D2328" d="M310.545,414.34c-1.565,0-3.004-0.788-3.848-2.105l-3.019-4.722c-0.152-0.235-0.461-0.304-0.698-0.152
			c-0.233,0.149-0.303,0.463-0.153,0.697l3.02,4.723c1.028,1.608,2.787,2.57,4.697,2.57c0.281,0,0.506-0.227,0.506-0.506
			C311.051,414.567,310.825,414.34,310.545,414.34z"/>
		<path fill="#1D2328" d="M314.535,406.625c-0.234,0.149-0.303,0.463-0.152,0.698c0.656,1.026,0.873,2.247,0.611,3.436
			c-0.058,0.272,0.113,0.541,0.385,0.601c0.037,0.008,0.074,0.011,0.108,0.011c0.232,0,0.44-0.161,0.494-0.395
			c0.319-1.453,0.053-2.943-0.749-4.197C315.082,406.544,314.771,406.477,314.535,406.625z"/>
		<path fill="#1D2328" d="M326.173,395.304c-0.435-1.979-1.613-3.67-3.322-4.761c-3.523-2.255-8.225-1.221-10.478,2.303
			l-1.057,1.649c-0.149,0.237-0.08,0.547,0.157,0.697c0.233,0.15,0.545,0.082,0.695-0.153l1.055-1.648
			c1.955-3.057,6.031-3.953,9.086-2c1.479,0.948,2.504,2.413,2.881,4.131c0.378,1.716,0.061,3.476-0.884,4.956l-3.834,5.998
			l-1.367-0.875c-0.236-0.15-0.547-0.081-0.696,0.154c-0.15,0.235-0.083,0.545,0.152,0.695l1.367,0.873l-0.761,1.19
			c-0.15,0.234-0.081,0.547,0.153,0.697c0.084,0.054,0.178,0.08,0.271,0.08c0.167,0,0.328-0.081,0.425-0.233l1.033-1.613
			l0.001-0.001l0,0l4.106-6.421C326.247,399.315,326.609,397.284,326.173,395.304z"/>
		<path fill="#1D2328" d="M314.496,394.71c0.167,0,0.33-0.081,0.425-0.231c0.843-1.318,2.282-2.103,3.852-2.103
			c0.868,0,1.716,0.248,2.447,0.716c0.235,0.151,0.546,0.082,0.698-0.152c0.15-0.235,0.081-0.548-0.154-0.698
			c-0.896-0.573-1.929-0.876-2.99-0.876c-1.917,0-3.672,0.959-4.701,2.568c-0.15,0.236-0.082,0.547,0.152,0.697
			C314.308,394.685,314.403,394.71,314.496,394.71z"/>
	</g>
</g>
<g>
	<path fill="#7FB1F0" d="M451.326,306.778c0.297,0,0.575-0.132,0.765-0.359c0.19-0.227,0.267-0.52,0.219-0.818
		c-0.351-2.105-1.4-4.926-4.401-6.461c-0.118-0.067-0.267-0.096-0.42-0.096h-19.217c-0.391,0-0.735-0.227-0.908-0.58l-2.217-4.685
		h-1.311v4.249c0,0.568-0.456,1.017-1.008,1.017h-1.494c-0.558,0-1.008,0.46-1.008,1.016v1.051c0,0.354,0.19,0.687,0.486,0.866
		l7.681,4.65c0.153,0.095,0.331,0.144,0.515,0.144"/>
	<path fill="#4F7AC8" d="M442.234,305.313h-7.645l1.719,1.746c0.19-0.179,0.434-0.294,0.713-0.294c0.565,0,1.009,0.463,1.009,1.017
		v1.046h4.205c0.96,0,1.738-0.781,1.738-1.751c0-0.968-0.784-1.752-1.738-1.752V305.313z"/>
	<g>
		<path fill="#17275B" d="M437.021,310.51c-0.371,0-0.672-0.304-0.672-0.679v-1.383h-7.346c-0.489,0-0.965-0.133-1.378-0.386
			l-7.682-4.65c-0.799-0.484-1.296-1.369-1.296-2.313v-1.052c0.01-1.484,1.216-2.693,2.688-2.693h0.823v-4.586
			c0-0.375,0.301-0.68,0.672-0.68h2.947c0.261,0,0.487,0.146,0.604,0.389l2.308,4.877h18.807c0.415,0,0.823,0.093,1.178,0.27
			c3.623,1.852,4.878,5.198,5.291,7.678c0.132,0.783-0.096,1.592-0.626,2.22c-0.503,0.595-1.192,0.936-1.891,0.936l-0.104-0.002
			l-5.983-0.001l-0.094,0.184c-0.589,1.154-1.751,1.872-3.032,1.872L437.021,310.51L437.021,310.51z M419.989,301.106
			c0,0.474,0.25,0.917,0.65,1.155l7.679,4.649c0.2,0.124,0.439,0.191,0.689,0.191l8.054,0.007c0.347,0.015,0.631,0.311,0.631,0.673
			v1.382h4.541c1.144,0,2.075-0.936,2.075-2.087c0-1.152-0.931-2.089-2.075-2.089h-8.64c-0.371,0-0.672-0.304-0.672-0.679
			c0-0.381,0.295-0.68,0.672-0.68h8.64c1.758,0,3.249,1.389,3.395,3.163l0.025,0.309h5.666c0.394-0.004,0.768-0.185,1.027-0.496
			c0.253-0.303,0.36-0.695,0.295-1.074c-0.178-1.093-0.506-2.121-0.975-3.052l-0.093-0.185h-4.318c-0.37,0-0.671-0.305-0.671-0.681
			c0-0.374,0.3-0.679,0.671-0.679h3.47l-0.56-0.572c-0.615-0.627-1.321-1.144-2.099-1.535c-0.157-0.084-0.363-0.133-0.572-0.133
			h-19.215c-0.262,0-0.487-0.145-0.602-0.388l-2.31-4.877h-1.86v4.587c0,0.374-0.302,0.678-0.672,0.678h-1.493
			c-0.742,0-1.346,0.607-1.346,1.353v0.721L419.989,301.106z"/>
	</g>
</g>
<g>
	<g>
		<rect x="433.237" y="472.783" fill="#E0DCCD" width="87.518" height="4.241"/>
		<g>
			
				<image overflow="visible" opacity="0.77" enable-background="new    " width="161" height="44" xlink:href="CED61C33D0B25051.png"  transform="matrix(0.5498 0 0 0.5407 432.7743 456.6588)">
			</image>
			<g>
				<polygon fill="#CEE8FA" points="510.936,458.586 516.591,472.773 437.418,472.773 443.074,458.586 				"/>
			</g>
		</g>
		<g>
			<polygon fill="#FCBB3B" points="452.97,458.586 448.727,472.773 460.039,472.773 462.867,458.586 			"/>
			<polygon fill="#FCBB3B" points="501.039,458.586 505.281,472.773 493.97,472.773 491.144,458.586 			"/>
			<polygon fill="#FCBB3B" points="482.66,472.781 471.35,472.781 472.762,458.643 481.246,458.643 			"/>
			<path fill="#FCBB3B" d="M516.517,479.851c0,3.124-2.494,5.654-5.617,5.654c-3.123,0-5.638-2.53-5.638-5.654
				c0,3.124-2.521,5.654-5.645,5.654s-5.651-2.53-5.651-5.654c0,3.124-2.528,5.654-5.654,5.654c-3.123,0-5.652-2.53-5.652-5.654
				c0,3.124-2.532,5.654-5.655,5.654c-3.123,0-5.654-2.53-5.654-5.654c0,3.124-2.532,5.654-5.655,5.654
				c-3.125,0-5.656-2.53-5.656-5.654c0,3.124-2.533,5.654-5.656,5.654c-3.122,0-5.657-2.53-5.657-5.654
				c0,3.124-2.503,5.654-5.626,5.654c-3.123,0-5.627-2.53-5.627-5.654v-2.84h79.042L516.517,479.851L516.517,479.851z"/>
		</g>
		<g>
			
				<image overflow="visible" opacity="0.77" enable-background="new    " width="121" height="33" xlink:href="CED61C33D0B25057.png"  transform="matrix(0.5487 0 0 0.5365 443.8397 475.47)">
			</image>
			<g>
				<g>
					<path fill="#FF455E" d="M448.714,479.851c0,3.124,2.497,5.654,5.62,5.654c3.121,0,5.618-2.53,5.618-5.654v-2.84h-11.238
						L448.714,479.851L448.714,479.851z"/>
					<path fill="#FF455E" d="M471.376,479.851c0,3.124,2.495,5.654,5.619,5.654s5.62-2.53,5.62-5.654v-2.84h-11.239V479.851
						L471.376,479.851z"/>
					<path fill="#FF455E" d="M494.039,479.851c0,3.124,2.494,5.654,5.618,5.654c3.124,0,5.622-2.53,5.622-5.654v-2.84h-11.24
						V479.851L494.039,479.851z"/>
				</g>
				<g>
					<path fill="#CEE8FA" d="M448.714,479.851c0,3.124,2.497,5.654,5.62,5.654c3.121,0,5.618-2.53,5.618-5.654v-2.84h-11.238
						L448.714,479.851L448.714,479.851z"/>
					<path fill="#CEE8FA" d="M471.376,479.851c0,3.124,2.495,5.654,5.619,5.654s5.62-2.53,5.62-5.654v-2.84h-11.239V479.851
						L471.376,479.851z"/>
					<path fill="#CEE8FA" d="M494.039,479.851c0,3.124,2.494,5.654,5.618,5.654c3.124,0,5.622-2.53,5.622-5.654v-2.84h-11.24
						V479.851L494.039,479.851z"/>
				</g>
			</g>
		</g>
		<g>
			<rect x="438.765" y="454.349" fill="#75C0C7" width="76.463" height="4.237"/>
			<rect x="440.246" y="484.09" fill="#7FB1F0" width="73.516" height="49.483"/>
		</g>
		<rect x="508.108" y="529.332" fill="#FCBB3B" width="5.654" height="4.242"/>
		<rect x="440.331" y="484.09" fill="#4F7AC8" width="73.432" height="21.207"/>
		<rect x="445.9" y="493.989" fill="#FFFFFF" width="42.413" height="28.276"/>
		<rect x="445.9" y="493.989" fill="#F2F2F2" width="42.413" height="11.31"/>
		<rect x="440.246" y="529.332" fill="#FCBB3B" width="53.726" height="4.242"/>
		<polyline fill="#E0DCCD" points="494.039,533.574 494.039,499.672 508.042,499.672 508.042,533.574 		"/>
		<rect x="493.973" y="499.644" fill="#A8A59A" width="14.136" height="5.653"/>
		<rect x="431.764" y="532.285" fill="#17275B" width="90.464" height="2.764"/>
		<path fill="#17275B" d="M517.973,479.774h-2.765c0,2.395-1.917,4.274-4.272,4.274c-2.356,0-4.272-1.879-4.272-4.274h-2.765
			c0,2.395-1.918,4.274-4.274,4.274c-2.356,0-4.273-1.879-4.273-4.274h-2.765c0,2.395-1.916,4.274-4.273,4.274
			c-2.356,0-4.273-1.879-4.273-4.274h-2.764c0,2.395-1.918,4.274-4.273,4.274c-2.356,0-4.273-1.879-4.273-4.274h-2.763
			c0,2.395-1.918,4.274-4.273,4.274c-2.358,0-4.275-1.879-4.275-4.274h-2.764c0,2.395-1.915,4.274-4.273,4.274
			c-2.356,0-4.273-1.879-4.273-4.274h-2.763c0,2.395-1.917,4.274-4.273,4.274c-2.356,0-4.276-1.879-4.276-4.274h-2.763
			c0,2.334,1.15,4.424,2.914,5.717v45.32h2.763v-44.097c0.44,0.087,0.897,0.135,1.362,0.135c2.314,0,4.372-1.086,5.653-2.817
			c1.285,1.731,3.341,2.855,5.657,2.855c2.315,0,4.371-1.124,5.656-2.855c1.284,1.731,3.341,2.855,5.656,2.855
			c2.313,0,4.372-1.124,5.655-2.855c1.282,1.73,3.34,2.855,5.654,2.855c2.315,0,4.372-1.124,5.656-2.855
			c1.284,1.73,3.341,2.853,5.655,2.853c2.315,0,4.372-1.125,5.655-2.857c1.284,1.731,3.34,2.848,5.654,2.848
			c2.317,0,4.373-1.133,5.658-2.862c1.282,1.729,3.34,2.833,5.654,2.833c0.525,0,1.035-0.061,1.527-0.172v44.135h2.765v-45.446
			C516.896,484.066,517.973,482.033,517.973,479.774z"/>
		<rect x="433.237" y="475.721" fill="#17275B" width="87.518" height="2.763"/>
		<path fill="#17275B" d="M489.696,523.645H444.52v-31.039h45.176L489.696,523.645L489.696,523.645z M447.282,520.882h39.651
			v-25.512h-39.651V520.882z"/>
		<polygon fill="#17275B" points="510.988,530.627 506.751,530.627 506.751,500.961 495.33,500.961 495.33,530.627 443.003,530.627 
			443.003,527.862 492.564,527.862 492.564,498.199 509.516,498.199 509.516,527.862 510.988,527.862 		"/>
		<rect x="496.802" y="516.622" fill="#17275B" width="2.766" height="2.766"/>
		<rect x="492.565" y="492.672" fill="#17275B" width="16.952" height="2.764"/>
		<path fill="#17275B" d="M518.629,474.247l-5.657-14.188h3.544v-7.001h-79.042v7.001h3.561l-5.656,14.188H518.629z M461.176,460.06
			l-2.287,11.424h-8.329l3.428-11.424H461.176z M500.021,460.06l3.426,11.424h-8.327l-2.285-11.424H500.021z M490.016,460.06
			l2.284,11.424h-8.38l-1.143-11.424H490.016z M479.999,460.06l1.142,11.424h-8.274l1.144-11.424H479.999z M470.09,471.484h-8.382
			l2.284-11.424h7.241L470.09,471.484z M514.553,471.484h-8.219l-3.426-11.424h7.09L514.553,471.484z M440.239,457.297v-1.474
			h73.511v1.474H440.239z M444.011,460.06h7.092l-3.426,11.424h-8.22L444.011,460.06z"/>
		
			<rect x="454.416" y="501.299" transform="matrix(0.7071 0.7072 -0.7072 0.7071 490.8477 -174.296)" fill="#17275B" width="2.762" height="7.998"/>
		
			<rect x="457.949" y="504.662" transform="matrix(0.7071 0.7072 -0.7072 0.7071 496.3823 -174.932)" fill="#17275B" width="2.766" height="13.997"/>
		
			<rect x="467.853" y="496.765" transform="matrix(0.7077 0.7065 -0.7065 0.7077 491.654 -184.8553)" fill="#17275B" width="2.764" height="9.999"/>
		
			<rect x="471.74" y="497.275" transform="matrix(0.7075 0.7067 -0.7067 0.7075 497.2303 -185.8387)" fill="#17275B" width="2.764" height="20.993"/>
		
			<rect x="474.203" y="514.609" transform="matrix(0.707 0.7072 -0.7072 0.707 504.6919 -184.974)" fill="#17275B" width="2.762" height="3.999"/>
	</g>
	<rect x="460.951" y="433.381" fill="#1F305F" width="34.856" height="19.918"/>
	<g>
		<path fill="#FFFFFF" d="M488.406,447.789c0.506-0.528,0.875-1.154,1.112-1.884c0.232-0.73,0.322-1.431,0.266-2.099
			c-0.105-0.967-0.386-1.799-0.852-2.497c-0.467-0.698-1.063-1.218-1.787-1.56c-0.725-0.34-1.514-0.483-2.37-0.434
			c-1.047,0.087-1.946,0.374-2.698,0.857c-0.749,0.481-1.306,1.099-1.674,1.85c-0.137,0.279-0.246,0.572-0.324,0.87
			c-0.094-0.062-0.188-0.123-0.293-0.175c-0.38-0.187-0.808-0.278-1.291-0.278c-0.801,0.025-1.398,0.28-1.787,0.758v-0.79h-0.032
			c-0.222,0.09-0.411,0.147-0.568,0.17c-0.159,0.02-0.387,0.034-0.691,0.034h-1.674v0.055c0.17,0.16,0.297,0.316,0.376,0.466
			c0.082,0.151,0.123,0.358,0.123,0.622v3.898c0,0.45-0.027,0.762-0.081,0.94c-0.054,0.178-0.193,0.366-0.418,0.563
			c-0.206-0.16-0.338-0.327-0.403-0.503c-0.067-0.173-0.097-0.418-0.097-0.731v-5.513h-0.06c-0.152,0.087-0.308,0.143-0.47,0.167
			c-0.112,0.016-0.259,0.025-0.441,0.031c0.112-0.03,0.219-0.076,0.32-0.136c0.205-0.122,0.371-0.288,0.496-0.497
			c0.122-0.209,0.184-0.439,0.184-0.692c0-0.251-0.06-0.48-0.184-0.693c-0.121-0.207-0.289-0.373-0.498-0.496
			c-0.208-0.123-0.428-0.187-0.666-0.187c-0.382,0-0.708,0.136-0.973,0.404c-0.269,0.271-0.4,0.593-0.4,0.973
			c0,0.381,0.131,0.705,0.402,0.973c0.186,0.184,0.399,0.3,0.637,0.358h-1.312v0.055c0.168,0.153,0.289,0.31,0.361,0.474
			c0.076,0.166,0.109,0.397,0.109,0.699v3.53c-0.273,0.183-0.948,0.47-2.506,0.47c-0.624,0-1.092-0.082-1.405-0.246v-6.39
			c0-0.689,0.196-1.15,0.586-1.389v-0.025h-3.852v0.025c0.409,0.233,0.617,0.671,0.617,1.321v6.286c0,0.496-0.036,0.866-0.101,1.113
			c-0.065,0.24-0.235,0.458-0.517,0.648v0.03h5.269c0.673,0,1.627-0.336,1.893-1.011c-0.012,0.152-0.032,0.287-0.066,0.396
			c-0.056,0.186-0.195,0.37-0.416,0.557v0.058h3.492h3.462v-0.058c-0.215-0.179-0.354-0.363-0.413-0.548
			c-0.056-0.188-0.085-0.443-0.085-0.768v-2.908c0-0.331,0.085-0.589,0.256-0.767c0.169-0.175,0.38-0.264,0.632-0.264
			c0.152,0,0.297,0.042,0.435,0.128c0.137,0.09,0.248,0.215,0.334,0.378c0.086,0.164,0.129,0.359,0.129,0.585v2.733
			c0,0.416-0.029,0.717-0.085,0.901c-0.058,0.182-0.201,0.36-0.432,0.53v0.058h3.513v-0.055c0,0-0.012-0.012-0.018-0.022
			c-0.152-0.12-0.259-0.24-0.331-0.358c-0.016-0.025-0.03-0.058-0.043-0.086c-0.154-0.213-0.3-0.439-0.422-0.682
			c-0.403-0.783-0.608-1.645-0.61-2.581c0-0.014,0.003-0.033,0.003-0.046c0.139,0.577,0.359,1.114,0.665,1.609
			c0.465,0.749,1.071,1.32,1.818,1.713c0.745,0.395,1.559,0.555,2.438,0.479c0.103-0.007,0.254-0.031,0.451-0.071
			c0.198-0.04,0.368-0.071,0.508-0.094c0.215,0.157,3.338,1.682,4.683-0.37C490.24,448.65,489.1,448.767,488.406,447.789
			 M486.851,446.782c-0.273,0.562-0.749,0.87-1.427,0.927c-0.519,0.044-0.972-0.096-1.358-0.417
			c-0.38-0.321-0.692-0.748-0.922-1.278c-0.231-0.528-0.402-1.114-0.511-1.751c-0.016-0.092-0.034-0.245-0.05-0.453
			c-0.041-0.491-0.016-0.951,0.075-1.383c0.094-0.429,0.269-0.794,0.531-1.084c0.263-0.293,0.617-0.477,1.062-0.545
			c0.475-0.042,0.887,0.036,1.239,0.235c0.356,0.198,0.656,0.517,0.902,0.954c0.245,0.44,0.452,1.004,0.619,1.694
			c0.079,0.461,0.126,0.802,0.145,1.024C487.226,445.529,487.123,446.224,486.851,446.782"/>
		<path fill="#FFFFFF" d="M491.53,444.422v-5.193c0-0.734-0.593-1.326-1.325-1.326h-5.191
			C488.298,438.552,490.882,441.137,491.53,444.422"/>
	</g>
</g>
<g>
	<g id="Layer_2_2_">
		<g>
			<path fill="#4F7AC8" d="M304.808,561.674c0.074-0.202,0.277-0.33,0.491-0.301c0.215,0.028,0.379,0.201,0.398,0.417l0.733,8.555
				l1.372-4.942c0.056-0.204,0.241-0.342,0.452-0.336c0.209,0.005,0.388,0.151,0.435,0.356l0.764,3.312l1.304-5.48
				c0.051-0.213,0.248-0.361,0.467-0.352c0.221,0.012,0.402,0.175,0.434,0.396l0.972,6.939l0.437-1.41
				c0.059-0.193,0.237-0.324,0.437-0.324h10.321v-2.363c0-2.18-1.768-3.95-3.95-3.95h-6.271v-6.27c0-2.182-1.769-3.949-3.95-3.949
				h-2.281h-0.361c-2.181,0-3.95,1.767-3.95,3.949v6.27h-6.27c-2.18,0-3.951,1.769-3.951,3.95v2.413h9.499L304.808,561.674z"/>
			<path fill="#4F7AC8" d="M312.898,572.47c-0.065,0.205-0.261,0.338-0.475,0.32c-0.214-0.016-0.387-0.18-0.417-0.392l-0.922-6.565
				l-1.193,5.019c-0.051,0.208-0.235,0.353-0.447,0.353h-0.001c-0.214-0.001-0.398-0.149-0.445-0.356l-0.798-3.46l-1.57,5.659
				c-0.056,0.2-0.237,0.335-0.442,0.335c-0.014,0-0.027-0.001-0.043-0.003c-0.22-0.02-0.396-0.196-0.413-0.417l-0.771-9.003
				l-1.87,5.208c-0.065,0.184-0.238,0.304-0.431,0.304h-9.759c0.326,1.853,1.944,3.262,3.889,3.262h6.271v6.27
				c0,2.182,1.768,3.95,3.95,3.95h0.361h2.281c2.18,0,3.95-1.768,3.95-3.95v-6.271h6.271c1.965,0,3.593-1.434,3.898-3.312h-9.932
				L312.898,572.47z"/>
			<path fill="#F7F1E6" d="M325.424,568.505h-1.601h-10.321c-0.2,0-0.378,0.131-0.437,0.324l-0.437,1.41l-0.972-6.939
				c-0.032-0.22-0.212-0.383-0.434-0.396c-0.219-0.01-0.415,0.139-0.467,0.352l-1.304,5.48l-0.765-3.312
				c-0.047-0.205-0.226-0.351-0.435-0.356c-0.212-0.006-0.396,0.133-0.452,0.336l-1.372,4.942l-0.733-8.555
				c-0.019-0.216-0.183-0.389-0.398-0.417c-0.214-0.029-0.417,0.099-0.491,0.301l-2.468,6.882h-9.498h-1.426
				c-0.252,0-0.458,0.205-0.458,0.458c0,0.252,0.205,0.458,0.458,0.458h1.487h9.759c0.193,0,0.365-0.121,0.431-0.304l1.87-5.208
				l0.77,9.003c0.019,0.22,0.194,0.397,0.414,0.417c0.014,0.002,0.029,0.003,0.043,0.003c0.205,0,0.386-0.136,0.442-0.335
				l1.57-5.659l0.798,3.46c0.048,0.207,0.231,0.355,0.444,0.356h0.002c0.212,0,0.396-0.145,0.446-0.353l1.195-5.019l0.921,6.565
				c0.03,0.212,0.203,0.377,0.417,0.392c0.214,0.018,0.41-0.115,0.475-0.32l0.942-3.048h9.932h1.652
				c0.254,0,0.459-0.206,0.459-0.459C325.883,568.71,325.678,568.505,325.424,568.505z"/>
		</g>
	</g>
</g>
<g>
	<g>
		<rect x="667.331" y="481.912" fill="#FFFFFF" width="4.33" height="11.789"/>
		<rect x="666.424" y="479.24" fill="#FFFFFF" width="6.147" height="2.672"/>
		<rect x="666.424" y="493.7" fill="#FFFFFF" width="6.147" height="2.671"/>
		<rect x="656.904" y="479.24" fill="#FFFFFF" width="6.15" height="2.672"/>
		<rect x="656.904" y="493.7" fill="#FFFFFF" width="6.15" height="2.671"/>
		<rect x="647.379" y="479.24" fill="#FFFFFF" width="6.148" height="2.672"/>
		<rect x="647.379" y="493.7" fill="#FFFFFF" width="6.148" height="2.671"/>
		<rect x="646.02" y="476.873" fill="#FFFFFF" width="27.91" height="2.366"/>
	</g>
	<path fill="#7FB1F0" d="M675.542,476.774l-15.567-9.625l-15.568,9.625c-0.051,0.053-0.051,0.1,0,0.1h31.135
		C675.59,476.873,675.59,476.821,675.542,476.774z"/>
	<circle fill="#FFFFFF" cx="659.976" cy="472.691" r="1.913"/>
	<rect x="644.36" y="495.867" fill="#4F7AC8" width="31.235" height="2.519"/>
	<rect x="657.81" y="481.912" fill="#FFFFFF" width="4.33" height="11.789"/>
	<g>
		<rect x="659.47" y="483.877" fill="#193651" width="1.006" height="1.004"/>
		<rect x="659.47" y="486.547" fill="#193651" width="1.006" height="1.005"/>
		<rect x="659.47" y="489.218" fill="#193651" width="1.006" height="1.005"/>
	</g>
	<rect x="648.291" y="481.912" fill="#FFFFFF" width="4.329" height="11.789"/>
	<g>
		<polygon fill="#193651" points="675.09,495.867 675.09,497.878 644.861,497.878 644.861,495.867 643.854,495.867 643.854,498.889 
			676.096,498.889 676.096,495.867 		"/>
		<path fill="#193651" d="M675.843,476.321l-15.868-9.779l-15.821,9.779c-0.247,0.099-0.354,0.399-0.301,0.651
			c0.054,0.254,0.301,0.402,0.554,0.402h1.105v2.367h1.361v2.669h0.906v10.779h-0.901v2.67h7.154v-2.67h-0.905v-10.773h0.905v-2.67
			h2.366v2.671h0.905v10.778h-0.905v2.672h7.154v-2.672h-0.906v-10.778h0.906v-2.671h2.364v2.671h0.907v10.778h-0.907v2.618h1.013
			v-1.611h5.137v1.611h1.005v-2.618h-0.905v-10.778h0.905v-2.671h1.412v-2.365h1.107c0.253,0,0.454-0.153,0.553-0.401
			C676.149,476.721,676.044,476.42,675.843,476.321z M653.021,495.867h-5.137v-1.664h5.137V495.867L653.021,495.867z
			 M648.792,493.194v-10.778h3.323v10.778H648.792L648.792,493.194z M653.021,481.405h-5.137v-1.664h5.137V481.405L653.021,481.405z
			 M662.545,495.867h-5.135v-1.664h5.135V495.867z M658.311,493.194v-10.778h3.323v10.778H658.311L658.311,493.194z
			 M662.545,481.405h-5.135v-1.664h5.135V481.405z M671.16,493.194h-3.325v-10.778h3.325V493.194z M672.066,481.405h-5.137v-1.664
			h5.137V481.405z M673.425,478.738h-26.901v-1.358h26.901V478.738z M645.973,476.368l14.003-8.613l14.002,8.666h-28.005
			L645.973,476.368L645.973,476.368z"/>
	</g>
</g>
<g>
	<g>
		<path fill="#7FB1F0" d="M582.909,354.176v-4.166c0-1.507,1.221-2.728,2.728-2.728h15.434c1.508,0,2.73,1.222,2.73,2.728v4.166"/>
		<path fill="#7FB1F0" d="M607.248,339.131v-5.663c0-5.541-4.492-10.033-10.032-10.033h-7.721c-5.541,0-10.032,4.492-10.032,10.033
			v5.663v15.045h27.396"/>
	</g>
	<g>
		<path fill="#4F7AC8" d="M588.391,347.282c-1.507,0-2.729,1.221-2.729,2.728v4.167h-2.754v-4.167c0-1.507,1.221-2.728,2.728-2.728
			H588.391z"/>
		<path fill="#4F7AC8" d="M603.801,350.01v4.167h-2.755v-4.167c0-1.507-1.222-2.728-2.729-2.728h2.755
			C602.579,347.282,603.801,348.503,603.801,350.01z"/>
		<path fill="#4F7AC8" d="M582.492,333.468c0-5.541,4.491-10.033,10.032-10.033h-3.03c-5.541,0-10.032,4.492-10.032,10.033v5.663
			v15.045h3.03v-15.045V333.468z"/>
	</g>
	<g>
		<path fill="#7FB1F0" d="M582.909,354.176v-4.166v-6.003c0-2.251-1.439-4.167-3.447-4.876c-0.557-0.196-1.157-0.301-1.781-0.294
			c-2.795,0.03-5.086,2.324-5.112,5.119c-0.017,1.684,0.772,3.183,2.004,4.138c1.588,1.232,2.476,3.162,2.476,5.171v0.91"/>
		<path fill="#7FB1F0" d="M603.801,354.176v-4.166v-6.003c0-2.251,1.438-4.167,3.447-4.876c0.539-0.191,1.118-0.294,1.722-0.294
			c2.857,0,5.171,2.315,5.171,5.17c0,1.638-0.762,3.099-1.952,4.046c-1.572,1.253-2.529,3.121-2.529,5.131v0.991"/>
	</g>
	<polygon fill="#CFDCE5" points="580.053,357.345 577.049,357.345 577.049,354.176 582.909,354.176 603.801,354.176 609.66,354.176 
		609.66,357.345 606.656,357.345 	"/>
	<polygon fill="#BAC6CC" points="577.384,357.345 577.049,357.345 577.049,354.176 577.705,354.176 580.042,354.176 
		580.697,354.176 580.697,357.345 580.361,357.345 	"/>
	<g>
		<polygon fill="#1F305F" points="582.626,357.345 582.626,361.482 579.829,361.482 579.076,357.345 		"/>
		<polygon fill="#1F305F" points="604.085,357.345 604.085,361.482 606.882,361.482 607.633,357.345 		"/>
		<circle fill="#1F305F" cx="609.067" cy="344.189" r="1.461"/>
		<circle fill="#1F305F" cx="577.643" cy="344.189" r="1.461"/>
	</g>
	<path fill="#193651" d="M608.919,338.106c-0.334,0-0.666,0.028-0.992,0.083v-4.721c0-3.846-2.075-7.425-5.413-9.341
		c-0.351-0.201-0.798-0.081-0.998,0.269c-0.201,0.351-0.081,0.797,0.27,0.998c2.886,1.656,4.678,4.75,4.678,8.074v5.172
		c-2.081,0.952-3.447,3.046-3.447,5.367v3.182c-0.565-0.401-1.254-0.638-1.998-0.638h-2.924l1.754-4.397
		c0.15-0.375-0.033-0.8-0.407-0.949c-0.375-0.15-0.8,0.033-0.95,0.407l-1.971,4.94h-2.489v-11.569c0-0.403-0.326-0.73-0.73-0.73
		c-0.404,0-0.731,0.327-0.731,0.73v11.569h-2.489l-3.616-9.064c-0.149-0.375-0.575-0.557-0.949-0.407
		c-0.376,0.149-0.558,0.574-0.408,0.949l3.4,8.521h-2.925c-0.744,0-1.432,0.237-1.997,0.637v-3.182c0-2.498-1.581-4.734-3.934-5.565
		c-0.65-0.23-1.332-0.342-2.033-0.335c-3.187,0.035-5.804,2.656-5.835,5.843c-0.018,1.861,0.817,3.582,2.287,4.723
		c1.373,1.065,2.193,2.781,2.193,4.593v4.079c0,0.404,0.327,0.731,0.731,0.731h1.418l0.643,3.537c0.064,0.347,0.366,0.6,0.719,0.6
		h2.797c0.403,0,0.731-0.327,0.731-0.731v-3.405h16.34c0.403,0,0.731-0.327,0.731-0.731c0-0.403-0.328-0.73-0.731-0.73h-21.918
		v-1.707h31.149v1.707h-6.795c-0.403,0-0.731,0.328-0.731,0.73c0,0.404,0.328,0.731,0.731,0.731h1.221v3.406
		c0,0.403,0.328,0.73,0.731,0.73h2.797c0.353,0,0.656-0.252,0.719-0.6l0.642-3.537h1.417c0.403,0,0.731-0.327,0.731-0.731v-4.161
		c0-1.758,0.821-3.42,2.253-4.56c1.416-1.127,2.227-2.81,2.227-4.618C614.821,340.753,612.174,338.106,608.919,338.106z
		 M581.844,358.076v2.675h-1.456l-0.486-2.675H581.844z M606.221,360.752h-1.456v-2.676h1.943L606.221,360.752z M585.586,348.012
		h15.435c1.102,0,1.998,0.896,1.998,1.997v3.436h-19.43v-3.436C583.589,348.908,584.485,348.012,585.586,348.012z M574.97,347.517
		c-1.107-0.858-1.735-2.154-1.721-3.554c0.023-2.398,1.992-4.369,4.39-4.395c0.524-0.006,1.04,0.08,1.529,0.252
		c1.77,0.625,2.96,2.307,2.96,4.187v9.439h-4.398v-0.179C577.728,351.005,576.697,348.857,574.97,347.517z M611.683,347.481
		c-1.783,1.419-2.805,3.498-2.805,5.704v0.261h-4.397v-9.439c0-1.879,1.188-3.562,2.961-4.186c0.472-0.168,0.97-0.252,1.478-0.252
		c2.448,0,4.439,1.991,4.439,4.439C613.359,345.367,612.748,346.633,611.683,347.481z"/>
	<path fill="#193651" d="M579.41,337.347c0.404,0,0.731-0.328,0.731-0.731v-3.148c0-5.129,4.173-9.302,9.302-9.302h7.721
		c0.811,0,1.616,0.104,2.392,0.31c0.389,0.103,0.789-0.128,0.892-0.519c0.103-0.391-0.128-0.791-0.518-0.894
		c-0.898-0.238-1.829-0.359-2.766-0.359h-7.721c-5.935,0-10.763,4.828-10.763,10.763v3.148
		C578.68,337.019,579.008,337.347,579.41,337.347z"/>
	<path fill="#193651" d="M600.139,337.487l-0.771,1.931c-0.15,0.375,0.034,0.8,0.408,0.949c0.089,0.035,0.18,0.053,0.27,0.053
		c0.29,0,0.565-0.174,0.679-0.46l0.771-1.931c0.149-0.375-0.033-0.8-0.408-0.949C600.714,336.93,600.289,337.113,600.139,337.487z"
		/>
	<path fill="#193651" d="M598.355,347.786c-0.863,0-1.565,0.702-1.565,1.564c0,0.863,0.703,1.565,1.565,1.565
		c0.863,0,1.565-0.702,1.565-1.565C599.92,348.488,599.217,347.786,598.355,347.786z M598.355,349.872
		c-0.288,0-0.522-0.235-0.522-0.522c0-0.287,0.234-0.521,0.522-0.521c0.288,0,0.521,0.234,0.521,0.521
		C598.876,349.638,598.642,349.872,598.355,349.872z"/>
	<path fill="#193651" d="M579.785,344.189c0-1.209-0.984-2.192-2.193-2.192c-1.208,0-2.192,0.983-2.192,2.192
		c0,1.209,0.984,2.193,2.192,2.193C578.801,346.382,579.785,345.398,579.785,344.189z M577.592,344.919
		c-0.403,0-0.73-0.328-0.73-0.73c0-0.403,0.328-0.731,0.73-0.731c0.403,0,0.731,0.328,0.731,0.731S577.995,344.919,577.592,344.919z
		"/>
</g>
<g>
	<path fill="#17275B" d="M701.618,491.242v-11.314h5.833c1.593,0,2.582,1.466,2.582,2.884c0,1.099-0.59,2.168-1.625,2.629
		c1.291,0.382,2.104,1.45,2.104,2.884c0,1.816-1.577,2.917-3.49,2.917H701.618L701.618,491.242L701.618,491.242z M703.404,484.804
		h3.283c0.876,0,1.562-0.701,1.562-1.657c0-0.972-0.622-1.674-1.466-1.674h-3.379V484.804L703.404,484.804z M703.404,486.238v3.458
		h3.617c0.941,0,1.658-0.781,1.658-1.705c0-0.925-0.653-1.753-1.546-1.753H703.404z"/>
	<path fill="#17275B" d="M715.099,486.158c0.733,0,1.562,0.112,2.167,0.334v-0.526c0-1.163-0.733-1.865-2.039-1.865
		c-0.924,0-1.721,0.335-2.645,0.94l-0.59-1.179c1.099-0.733,2.2-1.099,3.426-1.099c2.231,0,3.602,1.227,3.602,3.394v3.107
		c0,0.399,0.127,0.558,0.462,0.574v1.402c-0.335,0.064-0.574,0.08-0.749,0.08c-0.75,0-1.116-0.43-1.179-0.908l-0.048-0.479
		c-0.733,0.94-1.944,1.467-3.091,1.467c-1.674,0-2.868-1.132-2.868-2.598C711.546,487.21,712.997,486.158,715.099,486.158z
		 M717.267,488.533v-0.956c-0.59-0.223-1.29-0.351-1.912-0.351c-1.275,0-2.151,0.558-2.151,1.434c0,0.733,0.59,1.451,1.705,1.451
		c0.749,0,1.498-0.335,1.944-0.797C717.107,489.059,717.267,488.74,717.267,488.533z"/>
	<path fill="#17275B" d="M726.859,491.242v-4.67c0-1.561-0.511-2.247-1.482-2.247c-1.004,0-2.119,0.829-2.486,1.96v4.956h-1.753
		v-8.334h1.593v1.674c0.637-1.115,1.928-1.816,3.394-1.816c1.992,0,2.486,1.561,2.486,3.394v5.083L726.859,491.242L726.859,491.242z
		"/>
	<path fill="#17275B" d="M733.775,487.401l-1.37,1.307v2.533h-1.753v-11.633h1.753v7.33l3.857-4.016h1.88l-3.234,3.49l3.41,4.828
		h-1.865L733.775,487.401z"/>
</g>
<g>
	<path fill="#17275B" d="M195.776,392.261h4.749c2.039,0,3.506,1.865,3.506,3.681c0,1.896-1.37,3.697-3.41,3.697h-3.06v3.937h-1.785
		V392.261z M200.509,398.062c1.004,0,1.705-0.908,1.705-2.119c0-1.259-0.844-2.104-1.8-2.104h-2.852v4.223H200.509z"/>
	<path fill="#17275B" d="M211.201,403.576v-4.67c0-1.514-0.574-2.247-1.577-2.247c-0.956,0-2.039,0.813-2.391,1.96v4.956h-1.753
		v-11.633h1.753v4.972c0.637-1.131,1.8-1.816,3.092-1.816c2.071,0,2.629,1.577,2.629,3.394v5.083H211.201
		C211.201,403.576,211.201,403.576,211.201,403.576z"/>
	<path fill="#17275B" d="M217.94,398.492c0.733,0,1.562,0.112,2.167,0.335v-0.526c0-1.163-0.733-1.865-2.039-1.865
		c-0.924,0-1.721,0.335-2.645,0.94l-0.59-1.179c1.099-0.733,2.199-1.099,3.426-1.099c2.231,0,3.602,1.227,3.602,3.394v3.108
		c0,0.398,0.127,0.558,0.462,0.574v1.402c-0.335,0.064-0.574,0.08-0.749,0.08c-0.749,0-1.115-0.43-1.179-0.908l-0.048-0.478
		c-0.733,0.94-1.944,1.466-3.092,1.466c-1.673,0-2.868-1.132-2.868-2.598C214.387,399.543,215.837,398.492,217.94,398.492z
		 M220.107,400.866v-0.956c-0.59-0.223-1.291-0.351-1.912-0.351c-1.275,0-2.151,0.558-2.151,1.434c0,0.733,0.59,1.45,1.705,1.45
		c0.749,0,1.498-0.335,1.944-0.797C219.948,401.392,220.107,401.073,220.107,400.866z"/>
	<path fill="#17275B" d="M225.732,398.476v5.1h-1.753v-8.334h1.626v1.865c0.574-1.148,1.562-1.881,2.614-1.944
		c0.207,0,0.335,0,0.446,0.016v1.577C227.309,396.786,226.178,397.408,225.732,398.476z"/>
	<path fill="#17275B" d="M240.934,403.576v-4.67c0-1.546-0.526-2.247-1.498-2.247c-0.988,0-1.896,0.813-2.247,1.976v4.94h-1.753
		v-4.67c0-1.561-0.526-2.247-1.482-2.247c-0.988,0-1.912,0.797-2.263,1.96v4.956h-1.754v-8.334h1.593v1.674
		c0.653-1.163,1.769-1.816,3.14-1.816c1.37,0,2.183,0.813,2.374,1.896c0.701-1.227,1.785-1.896,3.14-1.896
		c1.976,0,2.502,1.577,2.502,3.394v5.083h-1.754V403.576z"/>
	<path fill="#17275B" d="M247.657,398.492c0.733,0,1.562,0.112,2.168,0.335v-0.526c0-1.163-0.733-1.865-2.039-1.865
		c-0.925,0-1.722,0.335-2.645,0.94l-0.59-1.179c1.099-0.733,2.2-1.099,3.426-1.099c2.231,0,3.601,1.227,3.601,3.394v3.108
		c0,0.398,0.127,0.558,0.462,0.574v1.402c-0.335,0.064-0.574,0.08-0.749,0.08c-0.749,0-1.116-0.43-1.179-0.908l-0.048-0.478
		c-0.733,0.94-1.944,1.466-3.091,1.466c-1.673,0-2.868-1.132-2.868-2.598C244.103,399.543,245.554,398.492,247.657,398.492z
		 M249.825,400.866v-0.956c-0.59-0.223-1.291-0.351-1.913-0.351c-1.275,0-2.151,0.558-2.151,1.434c0,0.733,0.59,1.45,1.705,1.45
		c0.749,0,1.498-0.335,1.945-0.797C249.665,401.392,249.825,401.073,249.825,400.866z"/>
	<path fill="#17275B" d="M253.154,399.4c0-2.343,1.689-4.302,4.318-4.302c1.722,0,2.997,0.829,3.617,2.071l-1.704,0.542
		c-0.399-0.701-1.116-1.115-1.945-1.115c-1.402,0-2.486,1.163-2.486,2.805c0,1.609,1.131,2.836,2.502,2.836
		c0.86,0,1.721-0.51,1.976-1.147l1.722,0.51c-0.542,1.243-1.928,2.135-3.681,2.135C254.875,403.735,253.154,401.727,253.154,399.4z"
		/>
	<path fill="#17275B" d="M263.576,405.647c0.542,0,0.781-0.366,1.387-2.071l-3.426-8.334h1.833l2.549,6.55l2.263-6.55h1.69
		l-3.777,10.263c-0.335,0.94-1.196,1.689-2.502,1.689c-0.255,0-0.526-0.032-0.86-0.127v-1.53
		C263.05,405.599,263.384,405.647,263.576,405.647z"/>
</g>
<g>
	<path fill="#17275B" d="M216.292,578.933h-1.801v-4.988h-5.705v4.988h-1.785v-11.314h1.785v4.733h5.705v-4.733h1.8L216.292,578.933
		L216.292,578.933z"/>
	<path fill="#17275B" d="M222.219,570.455c2.597,0,4.287,2.008,4.287,4.319s-1.69,4.319-4.287,4.319
		c-2.614,0-4.286-2.008-4.286-4.319S219.638,570.455,222.219,570.455z M224.705,574.774c0-1.593-1.099-2.821-2.486-2.821
		c-1.37,0-2.486,1.243-2.486,2.836c0,1.609,1.099,2.805,2.486,2.805C223.606,577.594,224.705,576.367,224.705,574.774z"/>
	<path fill="#17275B" d="M227.429,577.721l0.653-1.179c0.972,0.844,1.912,1.211,2.884,1.211c0.988,0,1.658-0.382,1.658-1.099
		c0-0.781-0.765-0.876-2.024-1.243c-1.785-0.541-2.709-1.036-2.709-2.39c0-1.61,1.338-2.566,3.283-2.566
		c1.211,0,2.263,0.367,3.044,1.148l-0.749,1.163c-0.733-0.669-1.498-0.988-2.391-0.988c-0.781,0-1.546,0.239-1.546,1.052
		c0,0.684,0.574,0.876,1.705,1.211c1.928,0.558,3.091,0.956,3.091,2.486c0,1.609-1.307,2.565-3.299,2.565
		C229.629,579.093,228.322,578.631,227.429,577.721z"/>
	<path fill="#17275B" d="M237.643,582.328h-1.753v-11.728h1.546v1.498c0.637-0.988,1.69-1.642,2.948-1.642
		c2.279,0,3.937,1.992,3.937,4.303c0,2.406-1.53,4.334-3.697,4.334c-1.339,0-2.391-0.702-2.98-1.722
		C237.643,577.37,237.643,582.328,237.643,582.328z M239.922,571.954c-0.908,0-2.024,0.717-2.278,1.641v2.184
		c0.429,1.02,1.387,1.816,2.406,1.816c1.482,0,2.47-1.387,2.47-2.836C242.52,573.212,241.403,571.954,239.922,571.954z"/>
	<path fill="#17275B" d="M245.897,567.3h1.753v1.928h-1.753V567.3z M245.897,570.599h1.753v8.335h-1.753V570.599z"/>
	<path fill="#17275B" d="M252.206,579.061c-1.099,0-2.024-0.558-2.024-1.896v-5.211h-1.099v-1.354h1.099v-2.741h1.753v2.741h1.816
		v1.354h-1.816v4.654c0.033,0.59,0.414,0.844,0.893,0.844c0.494,0,0.988-0.223,1.195-0.335l0.366,1.386
		C253.944,578.71,253.099,579.061,252.206,579.061z"/>
	<path fill="#17275B" d="M258.548,573.85c0.733,0,1.562,0.112,2.168,0.335v-0.526c0-1.164-0.733-1.865-2.039-1.865
		c-0.925,0-1.722,0.335-2.645,0.94l-0.59-1.179c1.099-0.733,2.2-1.099,3.426-1.099c2.231,0,3.601,1.228,3.601,3.395v3.107
		c0,0.399,0.127,0.558,0.462,0.574v1.402c-0.335,0.064-0.574,0.08-0.749,0.08c-0.749,0-1.116-0.43-1.179-0.908l-0.048-0.478
		c-0.733,0.94-1.944,1.466-3.091,1.466c-1.673,0-2.868-1.131-2.868-2.597C254.995,574.901,256.444,573.85,258.548,573.85z
		 M260.716,576.224v-0.956c-0.59-0.223-1.291-0.351-1.913-0.351c-1.275,0-2.151,0.558-2.151,1.434c0,0.733,0.59,1.451,1.705,1.451
		c0.749,0,1.498-0.335,1.945-0.797C260.556,576.751,260.716,576.431,260.716,576.224z"/>
	<path fill="#17275B" d="M266.356,567.3v9.226c0,0.86,0.288,0.988,0.67,0.988c0.414,0,0.813-0.096,1.083-0.224l0.255,1.387
		c-0.51,0.223-1.291,0.382-1.848,0.382c-1.195,0-1.912-0.702-1.912-1.896v-9.864L266.356,567.3L266.356,567.3z"/>
</g>
<g>
	<path fill="#17275B" d="M383.834,706.532c-1.498,0-2.199,0.59-2.199,1.562c0,1.083,0.908,1.354,2.789,1.816
		c2.294,0.542,3.728,1.228,3.728,3.283c0,2.31-1.865,3.25-4.143,3.25c-1.721,0-3.378-0.542-4.67-1.53l0.813-1.53
		c0.542,0.558,2.167,1.451,3.888,1.451c1.402,0,2.2-0.511,2.2-1.451c0-1.148-1.163-1.482-3.108-1.976
		c-2.231-0.59-3.362-1.259-3.362-3.027c0-2.231,1.785-3.442,4.112-3.442c1.53,0,2.852,0.558,3.824,1.275l-0.813,1.466
		C386.48,707.217,385.188,706.532,383.834,706.532z"/>
	<path fill="#17275B" d="M395.419,716.332v-4.668c0-1.514-0.574-2.247-1.577-2.247c-0.956,0-2.039,0.813-2.391,1.96v4.956h-1.753
		V704.7h1.753v4.972c0.637-1.131,1.8-1.816,3.092-1.816c2.071,0,2.629,1.578,2.629,3.395v5.083L395.419,716.332L395.419,716.332z"/>
	<path fill="#17275B" d="M402.955,707.854c2.597,0,4.287,2.008,4.287,4.319c0,2.311-1.689,4.319-4.287,4.319
		c-2.614,0-4.287-2.008-4.287-4.319C398.668,709.862,400.373,707.854,402.955,707.854z M405.441,712.173
		c0-1.593-1.099-2.821-2.486-2.821c-1.37,0-2.486,1.243-2.486,2.836c0,1.609,1.099,2.805,2.486,2.805
		S405.441,713.767,405.441,712.173z"/>
	<path fill="#17275B" d="M410.555,719.727h-1.753v-11.728h1.546v1.498c0.637-0.988,1.689-1.642,2.948-1.642
		c2.279,0,3.936,1.992,3.936,4.303c0,2.406-1.53,4.334-3.697,4.334c-1.338,0-2.391-0.702-2.98-1.722V719.727L410.555,719.727z
		 M412.834,709.353c-0.908,0-2.024,0.717-2.279,1.641v2.184c0.43,1.02,1.387,1.816,2.407,1.816c1.482,0,2.47-1.386,2.47-2.836
		C415.431,710.612,414.316,709.353,412.834,709.353z"/>
	<path fill="#17275B" d="M420.562,719.727h-1.753v-11.728h1.546v1.498c0.637-0.988,1.689-1.642,2.948-1.642
		c2.279,0,3.936,1.992,3.936,4.303c0,2.406-1.53,4.334-3.697,4.334c-1.338,0-2.391-0.702-2.98-1.722V719.727z M422.841,709.353
		c-0.908,0-2.024,0.717-2.278,1.641v2.184c0.43,1.02,1.387,1.816,2.406,1.816c1.482,0,2.47-1.386,2.47-2.836
		C425.438,710.612,424.323,709.353,422.841,709.353z"/>
	<path fill="#17275B" d="M428.815,704.699h1.753v1.928h-1.753V704.699z M428.815,707.999h1.753v8.334h-1.753V707.999z"/>
	<path fill="#17275B" d="M438.392,716.332v-4.668c0-1.562-0.51-2.247-1.482-2.247c-1.004,0-2.119,0.829-2.486,1.96v4.956h-1.753
		v-8.334h1.593v1.673c0.637-1.115,1.928-1.816,3.394-1.816c1.992,0,2.486,1.562,2.486,3.395v5.083H438.392L438.392,716.332z"/>
	<path fill="#17275B" d="M445.546,707.854c1.339,0,2.359,0.702,3.011,1.722v-1.577h1.546v8.094c0,2.407-1.912,3.793-4.43,3.793
		c-1.848,0-3.011-0.669-3.841-1.785l0.988-0.924c0.637,0.892,1.705,1.37,2.853,1.37c1.434,0,2.677-0.764,2.677-2.454v-1.275
		c-0.59,1.005-1.722,1.593-2.868,1.593c-2.247,0-3.809-1.992-3.809-4.239C441.674,709.799,443.267,707.854,445.546,707.854z
		 M448.351,711.153c-0.414-1.052-1.434-1.8-2.422-1.8c-1.514,0-2.47,1.434-2.47,2.868c0,1.514,1.131,2.772,2.598,2.772
		c1.052,0,2.039-0.781,2.294-1.657L448.351,711.153L448.351,711.153z"/>
	<path fill="#17275B" d="M465.879,708.269l-3.33,6.119h-1.052l-3.346-6.119v8.064h-1.785v-11.314h1.913l3.745,6.915l3.745-6.915
		h1.913v11.314h-1.801L465.879,708.269L465.879,708.269z"/>
	<path fill="#17275B" d="M472.857,711.25c0.733,0,1.562,0.112,2.168,0.335v-0.526c0-1.164-0.733-1.865-2.039-1.865
		c-0.925,0-1.722,0.335-2.645,0.94l-0.59-1.179c1.099-0.733,2.2-1.099,3.426-1.099c2.231,0,3.601,1.228,3.601,3.395v3.107
		c0,0.399,0.127,0.558,0.462,0.574v1.402c-0.335,0.064-0.574,0.08-0.749,0.08c-0.749,0-1.116-0.43-1.179-0.909l-0.048-0.478
		c-0.733,0.94-1.944,1.466-3.091,1.466c-1.673,0-2.868-1.131-2.868-2.597C469.304,712.301,470.753,711.25,472.857,711.25z
		 M475.025,713.624v-0.956c-0.59-0.223-1.291-0.351-1.913-0.351c-1.275,0-2.151,0.558-2.151,1.434c0,0.733,0.59,1.451,1.705,1.451
		c0.749,0,1.498-0.335,1.945-0.797C474.865,714.15,475.025,713.83,475.025,713.624z"/>
	<path fill="#17275B" d="M480.665,704.699v9.226c0,0.86,0.288,0.988,0.67,0.988c0.414,0,0.813-0.096,1.083-0.224l0.255,1.387
		c-0.51,0.223-1.291,0.382-1.848,0.382c-1.195,0-1.912-0.702-1.912-1.896V704.7L480.665,704.699L480.665,704.699z"/>
	<path fill="#17275B" d="M485.46,704.699v9.226c0,0.86,0.288,0.988,0.671,0.988c0.414,0,0.812-0.096,1.083-0.224l0.256,1.387
		c-0.51,0.223-1.291,0.382-1.849,0.382c-1.194,0-1.912-0.702-1.912-1.896V704.7L485.46,704.699L485.46,704.699z"/>
</g>
<g>
	<path fill="#17275B" d="M646.407,624.347c-1.498,0-2.2,0.59-2.2,1.562c0,1.083,0.908,1.354,2.788,1.816
		c2.294,0.542,3.729,1.228,3.729,3.283c0,2.31-1.865,3.25-4.143,3.25c-1.721,0-3.378-0.542-4.669-1.53l0.813-1.53
		c0.542,0.558,2.168,1.451,3.888,1.451c1.402,0,2.2-0.511,2.2-1.451c0-1.148-1.163-1.482-3.108-1.976
		c-2.231-0.59-3.362-1.259-3.362-3.028c0-2.231,1.785-3.442,4.112-3.442c1.53,0,2.852,0.558,3.824,1.275l-0.813,1.466
		C649.052,625.032,647.761,624.347,646.407,624.347z"/>
	<path fill="#17275B" d="M652.191,625.813h1.753v4.748c0,1.482,0.542,2.247,1.593,2.247c0.988,0,1.96-0.637,2.454-1.8v-5.195h1.753
		v6.358c0,0.399,0.127,0.558,0.478,0.574v1.402c-0.366,0.064-0.574,0.08-0.781,0.08c-0.638,0-1.116-0.382-1.164-0.94l-0.032-0.829
		c-0.749,1.211-1.992,1.848-3.41,1.848c-1.737,0-2.645-1.163-2.645-3.394L652.191,625.813L652.191,625.813z"/>
	<path fill="#17275B" d="M663.728,637.542h-1.753v-11.728h1.546v1.498c0.637-0.988,1.689-1.642,2.948-1.642
		c2.279,0,3.937,1.992,3.937,4.303c0,2.406-1.53,4.334-3.697,4.334c-1.339,0-2.391-0.702-2.98-1.722V637.542L663.728,637.542z
		 M666.006,627.168c-0.909,0-2.024,0.717-2.278,1.641v2.184c0.429,1.02,1.386,1.816,2.406,1.816c1.482,0,2.47-1.386,2.47-2.836
		C668.604,628.427,667.488,627.168,666.006,627.168z"/>
	<path fill="#17275B" d="M671.439,630.005c0-2.359,1.721-4.335,4.334-4.335c2.613,0,4.255,2.008,4.255,4.255
		c0,0.255-0.032,0.494-0.047,0.637h-6.678c0.112,1.466,1.228,2.454,2.518,2.454c0.94,0,1.865-0.511,2.183-1.275l1.498,0.429
		c-0.574,1.243-1.992,2.136-3.745,2.136C673.16,634.307,671.439,632.331,671.439,630.005z M678.291,629.399
		c-0.127-1.451-1.195-2.439-2.533-2.439c-1.322,0-2.406,1.005-2.502,2.439H678.291z"/>
	<path fill="#17275B" d="M683.214,629.048v5.099h-1.753v-8.334h1.625v1.865c0.574-1.147,1.562-1.88,2.614-1.944
		c0.207,0,0.335,0,0.446,0.016v1.578C684.792,627.359,683.66,627.981,683.214,629.048z"/>
	<path fill="#17275B" d="M697.157,626.083l-3.331,6.119h-1.052l-3.346-6.119v8.064h-1.785v-11.314h1.912l3.745,6.915l3.745-6.915
		h1.912v11.314h-1.8L697.157,626.083L697.157,626.083z"/>
	<path fill="#17275B" d="M704.136,629.065c0.733,0,1.562,0.112,2.167,0.335v-0.526c0-1.164-0.733-1.865-2.039-1.865
		c-0.924,0-1.721,0.335-2.645,0.94l-0.59-1.179c1.099-0.733,2.2-1.099,3.426-1.099c2.231,0,3.602,1.228,3.602,3.395v3.107
		c0,0.399,0.127,0.558,0.462,0.574v1.402c-0.335,0.064-0.574,0.08-0.749,0.08c-0.749,0-1.116-0.43-1.179-0.908l-0.048-0.478
		c-0.733,0.94-1.944,1.466-3.091,1.466c-1.674,0-2.868-1.131-2.868-2.597C700.583,630.116,702.033,629.065,704.136,629.065z
		 M706.303,631.439v-0.956c-0.59-0.223-1.29-0.351-1.912-0.351c-1.275,0-2.151,0.558-2.151,1.434c0,0.733,0.59,1.451,1.705,1.451
		c0.749,0,1.498-0.335,1.944-0.797C706.145,631.965,706.303,631.646,706.303,631.439z"/>
	<path fill="#17275B" d="M711.927,629.048v5.099h-1.753v-8.334h1.625v1.865c0.574-1.147,1.562-1.88,2.614-1.944
		c0.208,0,0.335,0,0.446,0.016v1.578C713.505,627.359,712.374,627.981,711.927,629.048z"/>
	<path fill="#17275B" d="M719.258,630.308l-1.37,1.307v2.533h-1.753v-11.633h1.753v7.33l3.856-4.016h1.881l-3.236,3.49l3.41,4.828
		h-1.865L719.258,630.308z"/>
	<path fill="#17275B" d="M723.894,630.005c0-2.359,1.722-4.335,4.335-4.335c2.613,0,4.255,2.008,4.255,4.255
		c0,0.255-0.032,0.494-0.048,0.637h-6.677c0.112,1.466,1.227,2.454,2.517,2.454c0.94,0,1.865-0.511,2.183-1.275l1.498,0.429
		c-0.574,1.243-1.992,2.136-3.745,2.136C725.615,634.307,723.894,632.331,723.894,630.005z M730.747,629.399
		c-0.127-1.451-1.196-2.439-2.533-2.439c-1.322,0-2.406,1.005-2.502,2.439H730.747z"/>
	<path fill="#17275B" d="M736.291,634.275c-1.099,0-2.024-0.558-2.024-1.896v-5.211h-1.099v-1.354h1.099v-2.741h1.753v2.741h1.816
		v1.354h-1.816v4.654c0.032,0.59,0.414,0.844,0.892,0.844c0.494,0,0.988-0.223,1.195-0.335l0.367,1.386
		C738.028,633.924,737.184,634.275,736.291,634.275z"/>
</g>
<g>
	<path fill="#17275B" d="M395.441,248.797v9.736h-1.8v-9.736h-3.777v-1.577h9.338v1.577H395.441z"/>
	<path fill="#17275B" d="M401.193,253.434v5.1h-1.753v-8.335h1.626v1.865c0.574-1.148,1.562-1.881,2.614-1.944
		c0.207,0,0.335,0,0.446,0.016v1.577C402.771,251.745,401.639,252.367,401.193,253.434z"/>
	<path fill="#17275B" d="M408.332,253.45c0.733,0,1.562,0.112,2.168,0.335v-0.526c0-1.163-0.733-1.865-2.039-1.865
		c-0.925,0-1.722,0.335-2.645,0.94l-0.59-1.179c1.099-0.733,2.2-1.099,3.426-1.099c2.231,0,3.601,1.227,3.601,3.394v3.108
		c0,0.398,0.127,0.558,0.462,0.574v1.402c-0.335,0.064-0.574,0.08-0.749,0.08c-0.749,0-1.116-0.43-1.179-0.908l-0.048-0.478
		c-0.733,0.94-1.944,1.466-3.091,1.466c-1.673,0-2.868-1.132-2.868-2.598C404.778,254.502,406.229,253.45,408.332,253.45z
		 M410.499,255.825v-0.956c-0.59-0.223-1.291-0.351-1.913-0.351c-1.275,0-2.151,0.558-2.151,1.434c0,0.733,0.59,1.45,1.705,1.45
		c0.749,0,1.498-0.335,1.945-0.797C410.34,256.35,410.499,256.031,410.499,255.825z"/>
	<path fill="#17275B" d="M413.239,250.199h1.816l2.375,6.709l2.374-6.709h1.689l-3.171,8.334h-1.912L413.239,250.199z"/>
	<path fill="#17275B" d="M421.923,254.39c0-2.358,1.721-4.334,4.334-4.334s4.255,2.008,4.255,4.255c0,0.255-0.032,0.494-0.048,0.637
		h-6.677c0.112,1.466,1.228,2.454,2.517,2.454c0.941,0,1.865-0.51,2.184-1.275l1.498,0.43c-0.574,1.243-1.992,2.135-3.745,2.135
		C423.644,258.693,421.923,256.717,421.923,254.39z M428.776,253.784c-0.127-1.45-1.195-2.438-2.533-2.438
		c-1.322,0-2.406,1.004-2.502,2.438H428.776z"/>
	<path fill="#17275B" d="M433.714,246.901v9.226c0,0.86,0.288,0.988,0.67,0.988c0.414,0,0.813-0.096,1.083-0.223l0.255,1.387
		c-0.51,0.223-1.291,0.382-1.848,0.382c-1.195,0-1.912-0.701-1.912-1.896v-9.864H433.714z"/>
	<path fill="#17275B" d="M440.455,247.22h4.016c3.649,0,5.514,2.517,5.514,5.641c0,3.426-2.168,5.673-5.514,5.673h-4.016V247.22z
		 M442.239,248.797v8.159h2.231c2.391,0,3.697-1.769,3.697-4.096c0-2.374-1.354-4.063-3.697-4.063H442.239z"/>
	<path fill="#17275B" d="M451.098,254.39c0-2.358,1.721-4.334,4.334-4.334c2.613,0,4.255,2.008,4.255,4.255
		c0,0.255-0.032,0.494-0.048,0.637h-6.677c0.112,1.466,1.228,2.454,2.517,2.454c0.941,0,1.865-0.51,2.184-1.275l1.498,0.43
		c-0.574,1.243-1.992,2.135-3.745,2.135C452.82,258.693,451.098,256.717,451.098,254.39z M457.95,253.784
		c-0.127-1.45-1.195-2.438-2.533-2.438c-1.322,0-2.406,1.004-2.502,2.438H457.95z"/>
	<path fill="#17275B" d="M460.484,257.322l0.653-1.179c0.972,0.844,1.912,1.211,2.884,1.211c0.988,0,1.658-0.382,1.658-1.099
		c0-0.781-0.765-0.876-2.024-1.244c-1.785-0.542-2.709-1.036-2.709-2.39c0-1.609,1.338-2.566,3.283-2.566
		c1.211,0,2.263,0.366,3.044,1.147l-0.749,1.163c-0.733-0.669-1.498-0.988-2.391-0.988c-0.781,0-1.546,0.239-1.546,1.052
		c0,0.685,0.574,0.876,1.705,1.211c1.928,0.558,3.091,0.956,3.091,2.486c0,1.609-1.307,2.566-3.299,2.566
		C462.683,258.693,461.375,258.231,460.484,257.322z"/>
	<path fill="#17275B" d="M472.067,254.693l-1.37,1.307v2.533h-1.753v-11.633h1.753v7.33l3.857-4.016h1.88l-3.234,3.49l3.41,4.828
		h-1.865L472.067,254.693z"/>
</g>
<g>
	<path fill="#17275B" d="M639.634,331.45h7.538v1.578h-5.753v3.378h4.813v1.482h-4.813v4.877h-1.785L639.634,331.45L639.634,331.45z
		"/>
	<path fill="#17275B" d="M648.128,334.43h1.753v4.749c0,1.481,0.542,2.247,1.593,2.247c0.988,0,1.96-0.637,2.454-1.8v-5.195h1.753
		v6.358c0,0.399,0.127,0.558,0.479,0.574v1.402c-0.367,0.064-0.574,0.08-0.781,0.08c-0.637,0-1.115-0.382-1.163-0.94l-0.032-0.829
		c-0.749,1.211-1.992,1.849-3.41,1.849c-1.737,0-2.645-1.164-2.645-3.395L648.128,334.43L648.128,334.43z"/>
	<path fill="#17275B" d="M659.664,337.665v5.1h-1.753v-8.335h1.625v1.865c0.574-1.148,1.562-1.88,2.614-1.944
		c0.207,0,0.335,0,0.446,0.016v1.577C661.242,335.975,660.11,336.597,659.664,337.665z"/>
	<path fill="#17275B" d="M669.591,342.764v-4.67c0-1.561-0.511-2.247-1.482-2.247c-1.004,0-2.119,0.829-2.486,1.96v4.956h-1.753
		v-8.334h1.593v1.674c0.637-1.115,1.928-1.816,3.394-1.816c1.992,0,2.486,1.562,2.486,3.394v5.083L669.591,342.764L669.591,342.764z
		"/>
	<path fill="#17275B" d="M673.382,331.131h1.753v1.928h-1.753V331.131z M673.382,334.43h1.753v8.335h-1.753V334.43z"/>
	<path fill="#17275B" d="M679.692,342.892c-1.099,0-2.024-0.558-2.024-1.896v-5.211h-1.099v-1.355h1.099v-2.741h1.753v2.741h1.816
		v1.355h-1.816v4.653c0.033,0.59,0.414,0.844,0.893,0.844c0.494,0,0.988-0.223,1.195-0.335l0.366,1.387
		C681.43,342.541,680.585,342.892,679.692,342.892z"/>
	<path fill="#17275B" d="M683.007,334.43h1.753v4.749c0,1.481,0.542,2.247,1.593,2.247c0.988,0,1.96-0.637,2.454-1.8v-5.195h1.753
		v6.358c0,0.399,0.127,0.558,0.479,0.574v1.402c-0.367,0.064-0.574,0.08-0.781,0.08c-0.637,0-1.115-0.382-1.163-0.94l-0.032-0.829
		c-0.749,1.211-1.992,1.849-3.41,1.849c-1.737,0-2.645-1.164-2.645-3.395V334.43L683.007,334.43z"/>
	<path fill="#17275B" d="M694.543,337.665v5.1h-1.753v-8.335h1.626v1.865c0.574-1.148,1.562-1.88,2.614-1.944
		c0.207,0,0.335,0,0.446,0.016v1.577C696.121,335.975,694.989,336.597,694.543,337.665z"/>
	<path fill="#17275B" d="M698.065,338.62c0-2.358,1.721-4.334,4.334-4.334c2.613,0,4.255,2.008,4.255,4.255
		c0,0.255-0.032,0.494-0.048,0.637h-6.677c0.112,1.466,1.228,2.454,2.517,2.454c0.941,0,1.865-0.511,2.184-1.275l1.498,0.43
		c-0.574,1.243-1.992,2.136-3.745,2.136C699.786,342.923,698.065,340.948,698.065,338.62z M704.917,338.015
		c-0.127-1.45-1.195-2.438-2.533-2.438c-1.322,0-2.406,1.004-2.502,2.438H704.917z"/>
	<path fill="#17275B" d="M715.879,332.963c-1.498,0-2.2,0.59-2.2,1.562c0,1.083,0.908,1.354,2.788,1.816
		c2.295,0.541,3.729,1.227,3.729,3.283c0,2.31-1.865,3.25-4.143,3.25c-1.721,0-3.378-0.542-4.668-1.53l0.813-1.53
		c0.541,0.558,2.167,1.45,3.888,1.45c1.401,0,2.199-0.51,2.199-1.45c0-1.148-1.163-1.482-3.107-1.976
		c-2.231-0.59-3.362-1.259-3.362-3.028c0-2.231,1.785-3.442,4.111-3.442c1.53,0,2.852,0.558,3.825,1.275l-0.813,1.466
		C718.525,333.649,717.233,332.963,715.879,332.963z"/>
	<path fill="#17275B" d="M724.038,342.892c-1.099,0-2.024-0.558-2.024-1.896v-5.211h-1.099v-1.355h1.099v-2.741h1.753v2.741h1.816
		v1.355h-1.816v4.653c0.033,0.59,0.414,0.844,0.893,0.844c0.494,0,0.988-0.223,1.195-0.335l0.366,1.387
		C725.775,342.541,724.931,342.892,724.038,342.892z"/>
	<path fill="#17275B" d="M731.064,334.286c2.597,0,4.287,2.008,4.287,4.319c0,2.311-1.69,4.319-4.287,4.319
		c-2.614,0-4.287-2.008-4.287-4.319C726.777,336.294,728.483,334.286,731.064,334.286z M733.55,338.605
		c0-1.593-1.099-2.821-2.486-2.821c-1.37,0-2.486,1.243-2.486,2.836c0,1.61,1.099,2.805,2.486,2.805
		C732.451,341.425,733.55,340.198,733.55,338.605z"/>
	<path fill="#17275B" d="M738.666,337.665v5.1h-1.753v-8.335h1.626v1.865c0.574-1.148,1.562-1.88,2.614-1.944
		c0.207,0,0.335,0,0.446,0.016v1.577C740.243,335.975,739.111,336.597,738.666,337.665z"/>
	<path fill="#17275B" d="M742.187,338.62c0-2.358,1.721-4.334,4.334-4.334c2.613,0,4.255,2.008,4.255,4.255
		c0,0.255-0.032,0.494-0.048,0.637h-6.677c0.112,1.466,1.228,2.454,2.517,2.454c0.941,0,1.865-0.511,2.184-1.275l1.498,0.43
		c-0.574,1.243-1.992,2.136-3.745,2.136C743.907,342.923,742.187,340.948,742.187,338.62z M749.039,338.015
		c-0.127-1.45-1.195-2.438-2.533-2.438c-1.322,0-2.406,1.004-2.502,2.438H749.039z"/>
</g>
<circle fill="none" stroke="#FCBB3B" stroke-width="1.6598" stroke-miterlimit="10" cx="435.273" cy="301.385" r="29.747"/>
<circle fill="none" stroke="#FCBB3B" stroke-width="1.6598" stroke-miterlimit="10" cx="593.509" cy="341.22" r="29.748"/>
<circle fill="none" stroke="#FCBB3B" stroke-width="1.6598" stroke-miterlimit="10" cx="659.901" cy="484.517" r="29.748"/>
<circle fill="none" stroke="#FCBB3B" stroke-width="1.6598" stroke-miterlimit="10" cx="592.955" cy="630.028" r="29.748"/>
<circle fill="none" stroke="#FCBB3B" stroke-width="1.6598" stroke-miterlimit="10" cx="435.273" cy="665.438" r="29.748"/>
<circle fill="none" stroke="#FCBB3B" stroke-width="1.6598" stroke-miterlimit="10" cx="309.127" cy="566.402" r="29.748"/>
<path fill="none" stroke="#4F7AC8" stroke-width="1.6598" stroke-miterlimit="10" d="M435.273,620.816
	c24.644,0,44.621,19.977,44.621,44.621c0,0.441-0.02,0.878-0.034,1.316c26.123-0.423,50.909-6.33,73.26-16.626
	c-3.055-6.042-4.786-12.867-4.786-20.099c0-24.644,19.978-44.621,44.621-44.621c10.823,0,20.743,3.855,28.469,10.263
	c15.088-19.554,26.296-42.25,32.475-66.944c-21.803-2.933-38.619-21.6-38.619-44.207c0-22.645,16.874-41.337,38.731-44.222
	c-5.957-24.071-16.682-46.261-31.13-65.5c-7.85,6.872-18.121,11.046-29.373,11.046c-24.643,0-44.621-19.977-44.621-44.621
	c0-8.018,2.126-15.536,5.828-22.038c-22.759-10.752-48.096-16.935-74.833-17.371c-0.23,24.446-20.11,44.194-44.61,44.194
	c-17.595,0-32.805-10.187-40.07-24.982c-22.447,11.248-42.249,26.986-58.233,46.04c11.169,8.11,18.439,21.264,18.439,36.124
	c0,24.643-19.978,44.62-44.621,44.62c-4.312,0-8.476-0.624-12.42-1.765c-2.63,12.333-4.025,25.123-4.025,38.24
	c0,13.311,1.439,26.284,4.144,38.785c3.411-0.835,6.973-1.287,10.642-1.287c24.644,0,44.621,19.977,44.621,44.621
	c0,14.165-6.609,26.779-16.902,34.953c15.85,18.934,35.465,34.604,57.698,45.858C401.517,631.658,417.124,620.816,435.273,620.816z"
	/>
<circle fill="none" stroke="#FCBB3B" stroke-width="1.6598" stroke-miterlimit="10" cx="310.787" cy="403.187" r="29.748"/>
</svg>
