<?xml version="1.0" encoding="utf-8"?>
<!-- Generator: Adobe Illustrator 17.0.0, SVG Export Plug-In . SVG Version: 6.00 Build 0)  -->
<!DOCTYPE svg PUBLIC "-//W3C//DTD SVG 1.1//EN" "http://www.w3.org/Graphics/SVG/1.1/DTD/svg11.dtd">
<svg version="1.1" id="Layer_1" xmlns="http://www.w3.org/2000/svg" xmlns:xlink="http://www.w3.org/1999/xlink" x="0px" y="0px"
	 width="1150.443px" height="970px" viewBox="-94.881 0 1150.443 970" enable-background="new -94.881 0 1150.443 970"
	 xml:space="preserve">
<g>
	<line fill="none" stroke="#4F7AC8" stroke-width="3" stroke-miterlimit="10" x1="481" y1="487" x2="730" y2="487"/>
	
		<line fill="none" stroke="#4F7AC8" stroke-width="3" stroke-miterlimit="10" x1="480.632" y1="484.638" x2="635.026" y2="289.284"/>
	
		<line fill="none" stroke="#4F7AC8" stroke-width="3" stroke-miterlimit="10" x1="480.632" y1="484.638" x2="421.303" y2="234.804"/>
	
		<line fill="none" stroke="#4F7AC8" stroke-width="3" stroke-miterlimit="10" x1="480.632" y1="484.638" x2="250.368" y2="377.451"/>
	<line fill="none" stroke="#4F7AC8" stroke-width="3" stroke-miterlimit="10" x1="480.632" y1="484.638" x2="250.921" y2="600.26"/>
	
		<line fill="none" stroke="#4F7AC8" stroke-width="3" stroke-miterlimit="10" x1="480.632" y1="484.638" x2="429.187" y2="735.196"/>
	
		<line fill="none" stroke="#4F7AC8" stroke-width="3" stroke-miterlimit="10" x1="480.632" y1="484.638" x2="645.552" y2="680.648"/>
</g>
<g>
	<g>
		<circle fill="#FFFFFF" cx="677.843" cy="765.383" r="5.314"/>
		<path fill="#556080" d="M677.843,771.776c-3.521,0-6.375-2.877-6.375-6.392c0-3.514,2.854-6.376,6.375-6.376
			c3.517,0,6.374,2.862,6.374,6.376C684.217,768.899,681.359,771.776,677.843,771.776z M677.843,761.141
			c-2.344,0-4.25,1.898-4.25,4.244s1.906,4.251,4.25,4.251s4.247-1.905,4.247-4.251S680.187,761.141,677.843,761.141z"/>
	</g>
	<g>
		<path fill="#FFFFFF" d="M702.276,760.069c2.938,0,5.313,2.378,5.313,5.315s-2.375,5.313-5.313,5.313
			c-2.933,0-5.311-2.376-5.311-5.313C696.966,762.447,699.344,760.069,702.276,760.069z"/>
		<path fill="#556080" d="M702.276,771.776c-3.508,0-6.376-2.877-6.376-6.392c0-3.514,2.868-6.376,6.376-6.376
			c3.518,0,6.379,2.862,6.379,6.376C708.655,768.899,705.794,771.776,702.276,771.776z M702.276,761.141
			c-2.346,0-4.249,1.898-4.249,4.244s1.903,4.251,4.249,4.251c2.351,0,4.251-1.905,4.251-4.251S704.627,761.141,702.276,761.141z"/>
	</g>
	<path fill="#556080" d="M712.9,765.385h-5.418c-0.587,0-1.063-0.469-1.063-1.057c0-0.584,0.476-1.06,1.063-1.06h5.418
		c0.593,0,1.07,0.476,1.07,1.06C713.971,764.916,713.493,765.385,712.9,765.385z"/>
	<path fill="#556080" d="M697.075,765.385h-14.024c-0.59,0-1.077-0.469-1.077-1.057c0-0.584,0.487-1.06,1.077-1.06h14.024
		c0.585,0,1.062,0.476,1.062,1.06C698.137,764.916,697.66,765.385,697.075,765.385z"/>
	<g>
		<path fill="#7FB1F0" d="M670.408,755.828l-5.495-27.627h51.178v23.383c0,2.35-1.891,4.244-4.232,4.244H670.408"/>
		<path fill="#556080" d="M711.858,756.885h-42.33l-5.908-29.756h53.534v24.465C717.154,754.505,714.778,756.885,711.858,756.885z
			 M671.272,754.764h40.586c1.746,0,3.169-1.428,3.169-3.17v-22.34h-48.818L671.272,754.764z"/>
	</g>
	<path fill="#556080" d="M664.913,729.254c-0.517,0-0.963-0.365-1.048-0.876l-0.737-4.429h-2.293c-0.588,0-1.063-0.476-1.063-1.063
		c0-0.593,0.475-1.061,1.063-1.061h4.091l1.038,6.204c0.095,0.571-0.301,1.119-0.874,1.212
		C665.028,729.254,664.972,729.254,664.913,729.254z"/>
	<path fill="#1F305F" d="M657.651,719.698c1.761,0,3.184,1.424,3.184,3.188c0,1.765-1.423,3.187-3.184,3.187
		c-1.76,0-3.188-1.422-3.188-3.187C654.463,721.122,655.892,719.698,657.651,719.698z"/>
	<path fill="#556080" d="M672.638,765.385h-3.297c-1.488,0-2.93-0.639-3.939-1.745c-1.005-1.112-1.5-2.62-1.348-4.106
		c0.269-2.674,2.685-4.77,5.489-4.77c0.587,0,1.059,0.476,1.059,1.064c0,0.586-0.472,1.057-1.059,1.057
		c-1.733,0-3.213,1.253-3.372,2.862c-0.091,0.903,0.198,1.778,0.805,2.459c0.61,0.676,1.473,1.063,2.365,1.063h3.297
		c0.586,0,1.059,0.476,1.059,1.06C673.696,764.916,673.224,765.385,672.638,765.385z"/>
</g>
<g>
	<polyline fill="#FFFFFF" points="384.429,795.805 381.029,834.321 427.597,834.321 424.193,795.805 	"/>
	<path fill="#7FB1F0" d="M421.108,799.16h-33.595l-1.385,15.621h6.002c0.924,0,1.686,0.752,1.686,1.683
		c0,0.933-0.747,1.689-1.686,1.689h-6.301l-0.294,3.351h3.228c0.926,0,1.681,0.75,1.681,1.691c0,0.928-0.749,1.688-1.681,1.688
		h-3.527l-0.543,6.078h39.225L421.108,799.16z"/>
	<g>
		<path fill="#194F82" d="M427.409,793.959c-0.08-0.868-0.803-1.527-1.686-1.527h-9.62v-2.999c0-6.766-5.507-12.278-12.308-12.278
			c-6.783,0-12.295,5.513-12.295,12.3v2.997h-8.614c-0.863,0-1.591,0.659-1.684,1.533l-3.693,41.862
			c-0.19,1.059,0.813,1.833,1.671,1.833h50.259h0.009c0.93,0,1.688-0.748,1.688-1.685
			C431.136,835.871,427.409,793.959,427.409,793.959z M394.891,789.442c0-4.922,4.009-8.929,8.917-8.929
			c4.923,0,8.928,4.013,8.928,8.929v2.999h-17.845V789.442z M381.029,834.321l3.403-38.517h7.09v2.641
			c0,0.931,0.752,1.688,1.684,1.688c0.933,0,1.685-0.743,1.685-1.688v-2.641h17.866v2.641c0,0.931,0.739,1.688,1.685,1.688
			c0.936,0,1.687-0.743,1.687-1.688v-2.641h8.095l3.405,38.517L381.029,834.321L381.029,834.321z"/>
		<path fill="#194F82" d="M421.662,805.285c-0.086-0.921-0.901-1.608-1.833-1.517c-0.924,0.076-1.604,0.904-1.522,1.82l1.938,22.002
			h-8.42c-0.926,0-1.688,0.755-1.688,1.688c0,0.94,0.744,1.683,1.688,1.683h10.256c0.985,0,1.685-0.727,1.685-1.835L421.662,805.285
			z"/>
	</g>
</g>
<g>
	<path fill="#C7E5FF" d="M196.702,342.87l-17.08-11.315l-8.148,12.215c-3.81,5.957-2.783,15.071,0.787,17.359
		c3.573,2.282,13.207-0.692,17.017-6.65L196.702,342.87z"/>
	<path fill="#4F7AC8" d="M202.908,331.265c3.81-5.958,1.566-12.638-2.007-14.927c-3.574-2.285-11.99,0.691-15.799,6.648
		l-6.753,10.481l16.393,10.484L202.908,331.265z"/>
	<path fill="#ACD8FF" d="M189.946,357.239l7.421-11.608l-1.851-6.613l-9.887,15.461c-3.807,5.958-9.796,8.933-13.369,6.65
		C178.219,364.936,186.138,363.194,189.946,357.239z"/>
	<path fill="#E3F1FF" d="M172.688,346.202l10.191-15.936l-7.08,1.569l-7.426,11.607c-3.808,5.956-2.067,13.874,3.887,17.686
		C168.69,358.84,168.876,352.159,172.688,346.202z"/>
	<path fill="#4F7AC8" d="M204.793,334.023c3.808-5.958,2.068-13.873-3.892-17.685c3.573,2.289,3.383,8.969-0.426,14.927
		l-7.419,11.604l4.311,2.761L204.793,334.023z"/>
	<path fill="#4F7AC8" d="M187.536,322.987c3.81-5.957,9.791-8.934,13.365-6.648c-5.955-3.807-13.868-2.063-17.682,3.89l-7.42,11.607
		l4.312,2.758L187.536,322.987z"/>
	<path fill="#FFFFFF" d="M181.839,334.593l-17.078,11.318l-8.151-12.22c-3.812-5.951-2.783-15.064,0.789-17.354
		c3.573-2.285,13.208,0.691,17.018,6.648L181.839,334.593z"/>
	<path fill="#7FB1F0" d="M188.043,346.202c3.81,5.957,1.569,12.639-2.005,14.924c-3.573,2.285-11.988-0.689-15.8-6.647
		l-6.754-10.481l16.398-10.481L188.043,346.202z"/>
	<path fill="#A8A59A" d="M175.079,320.228l7.425,11.607l-1.852,6.612l-9.886-15.461c-3.807-5.957-9.795-8.934-13.368-6.648
		C163.355,312.532,171.274,314.275,175.079,320.228z"/>
	<path fill="#FFFFFF" d="M157.826,331.265l10.189,15.937l-7.083-1.571l-7.42-11.609c-3.812-5.956-2.068-13.871,3.886-17.683
		C153.826,318.627,154.014,325.307,157.826,331.265z"/>
	<path fill="#4F7AC8" d="M189.927,343.443c3.81,5.956,2.068,13.874-3.889,17.683c3.574-2.285,3.384-8.967-0.427-14.924
		l-7.421-11.608l4.313-2.758L189.927,343.443z"/>
	<path fill="#F2F2F2" d="M172.672,354.478c3.808,5.958,9.793,8.933,13.366,6.647c-5.957,3.811-13.872,2.066-17.68-3.887
		l-7.426-11.608l4.315-2.761L172.672,354.478z"/>
	<g>
		<path fill="#1D2328" d="M183.272,331.344L183.272,331.344L183.272,331.344l-7.422-11.609c-2.535-3.961-6.859-6.324-11.566-6.324
			c-2.614,0-5.163,0.746-7.373,2.163c-3.09,1.971-5.224,5.028-6.008,8.604c-0.788,3.578-0.133,7.249,1.839,10.336l7.423,11.606l0,0
			l0,0l7.423,11.608c2.535,3.96,6.857,6.329,11.563,6.329l0,0c2.616,0,5.169-0.75,7.376-2.162c3.089-1.974,5.224-5.031,6.009-8.611
			c0.785-3.578,0.135-7.245-1.838-10.331L183.272,331.344z M152.686,324.573c0.678-3.104,2.53-5.753,5.204-7.466
			c1.917-1.225,4.128-1.874,6.395-1.874c4.082,0,7.832,2.051,10.03,5.488l6.928,10.839l-20.03,12.812l-6.932-10.841
			C152.57,330.856,152.003,327.674,152.686,324.573z M190.755,352.894c-0.68,3.102-2.53,5.752-5.208,7.461
			c-1.919,1.229-4.132,1.879-6.396,1.879c-4.078,0-7.83-2.055-10.026-5.489l-6.933-10.838l20.034-12.811l6.931,10.84
			C190.87,346.61,191.437,349.792,190.755,352.894z"/>
		<path fill="#1D2328" d="M161.275,341.083c0.173,0.271,0.466,0.423,0.77,0.423c0.168,0,0.336-0.047,0.492-0.144
			c0.422-0.271,0.545-0.835,0.273-1.262l-5.458-8.533c-1.188-1.858-1.581-4.064-1.106-6.213c0.473-2.151,1.754-3.987,3.608-5.175
			c0.425-0.27,0.551-0.832,0.277-1.257c-0.271-0.428-0.837-0.549-1.258-0.278c-2.266,1.45-3.832,3.691-4.406,6.319
			c-0.58,2.628-0.102,5.319,1.347,7.585L161.275,341.083z"/>
		<path fill="#1D2328" d="M179.151,358.584c-2.829,0-5.43-1.424-6.955-3.804l-5.457-8.535c-0.274-0.425-0.833-0.549-1.261-0.275
			c-0.422,0.27-0.547,0.836-0.276,1.259l5.459,8.536c1.858,2.907,5.037,4.645,8.49,4.645c0.507,0,0.915-0.41,0.915-0.914
			C180.066,358.994,179.658,358.584,179.151,358.584z"/>
		<path fill="#1D2328" d="M186.362,344.64c-0.423,0.27-0.547,0.836-0.274,1.261c1.185,1.854,1.578,4.061,1.104,6.211
			c-0.105,0.491,0.205,0.977,0.695,1.086c0.067,0.015,0.133,0.02,0.196,0.02c0.42,0,0.795-0.291,0.892-0.714
			c0.577-2.626,0.096-5.32-1.354-7.586C187.351,344.494,186.789,344.372,186.362,344.64z"/>
		<path fill="#1D2328" d="M207.398,324.178c-0.786-3.576-2.916-6.634-6.005-8.606c-6.368-4.076-14.867-2.207-18.939,4.163
			l-1.91,2.98c-0.269,0.428-0.145,0.988,0.283,1.26c0.421,0.272,0.985,0.148,1.256-0.276l1.906-2.978
			c3.534-5.525,10.9-7.145,16.423-3.614c2.673,1.713,4.525,4.361,5.207,7.466c0.683,3.101,0.111,6.283-1.597,8.958l-6.93,10.841
			l-2.47-1.581c-0.426-0.271-0.988-0.146-1.258,0.279c-0.271,0.425-0.15,0.985,0.274,1.257l2.47,1.578l-1.376,2.151
			c-0.271,0.423-0.147,0.988,0.277,1.26c0.152,0.097,0.322,0.144,0.49,0.144c0.301,0,0.593-0.146,0.768-0.421l1.867-2.916
			l0.001-0.002l0,0l7.421-11.606C207.532,331.427,208.185,327.756,207.398,324.178z"/>
		<path fill="#1D2328" d="M186.292,323.104c0.302,0,0.597-0.147,0.768-0.418c1.524-2.382,4.124-3.801,6.963-3.801
			c1.568,0,3.101,0.448,4.423,1.294c0.425,0.273,0.987,0.149,1.262-0.274c0.271-0.425,0.146-0.99-0.279-1.261
			c-1.62-1.035-3.487-1.584-5.405-1.584c-3.464,0-6.637,1.734-8.496,4.641c-0.271,0.427-0.148,0.988,0.275,1.26
			C185.953,323.059,186.125,323.104,186.292,323.104z"/>
	</g>
</g>
<g>
	<path fill="#7FB1F0" d="M433.604,164.173c0.536,0,1.039-0.238,1.382-0.648c0.343-0.411,0.482-0.939,0.396-1.479
		c-0.634-3.805-2.531-8.903-7.954-11.678c-0.214-0.121-0.482-0.174-0.759-0.174h-34.734c-0.707,0-1.329-0.411-1.641-1.049
		l-4.007-8.468h-2.37v7.679c0,1.027-0.825,1.838-1.821,1.838h-2.701c-1.008,0-1.822,0.832-1.822,1.837v1.9
		c0,0.639,0.343,1.242,0.878,1.566l13.883,8.404c0.277,0.172,0.598,0.26,0.931,0.26"/>
	<path fill="#4F7AC8" d="M417.17,161.525h-13.818l3.107,3.155c0.344-0.324,0.784-0.531,1.288-0.531c1.021,0,1.823,0.836,1.823,1.838
		v1.89h7.6c1.735,0,3.141-1.412,3.141-3.164c0-1.75-1.417-3.167-3.141-3.167V161.525z"/>
	<g>
		<path fill="#17275B" d="M407.747,170.919c-0.67,0-1.215-0.55-1.215-1.227v-2.499h-13.277c-0.883,0-1.744-0.241-2.491-0.698
			l-13.885-8.405c-1.445-0.874-2.342-2.475-2.342-4.18v-1.902c0.019-2.682,2.198-4.867,4.858-4.867h1.487v-8.289
			c0-0.677,0.544-1.229,1.214-1.229h5.327c0.472,0,0.88,0.263,1.091,0.704l4.171,8.814h33.992c0.751,0,1.488,0.168,2.13,0.488
			c6.549,3.347,8.817,9.395,9.564,13.878c0.239,1.416-0.173,2.878-1.132,4.012c-0.909,1.075-2.154,1.691-3.418,1.691l-0.188-0.004
			l-10.813-0.001l-0.169,0.332c-1.065,2.086-3.165,3.383-5.48,3.383L407.747,170.919L407.747,170.919z M376.964,153.922
			c0,0.857,0.451,1.657,1.175,2.088l13.879,8.403c0.362,0.224,0.794,0.345,1.246,0.345l14.557,0.013
			c0.628,0.028,1.141,0.563,1.141,1.217v2.498h8.207c2.068,0,3.75-1.692,3.75-3.772c0-2.082-1.682-3.775-3.75-3.775h-15.617
			c-0.67,0-1.215-0.55-1.215-1.227c0-0.689,0.534-1.229,1.215-1.229h15.617c3.178,0,5.873,2.511,6.136,5.717l0.046,0.559h10.241
			c0.713-0.007,1.388-0.334,1.856-0.896c0.457-0.548,0.651-1.256,0.533-1.941c-0.321-1.975-0.914-3.833-1.763-5.517l-0.168-0.334
			h-7.804c-0.668,0-1.212-0.552-1.212-1.23c0-0.676,0.543-1.227,1.212-1.227h6.271l-1.013-1.034
			c-1.111-1.134-2.388-2.067-3.794-2.774c-0.284-0.152-0.656-0.24-1.034-0.24h-34.73c-0.473,0-0.88-0.262-1.089-0.701l-4.176-8.815
			h-3.361v8.29c0,0.676-0.545,1.226-1.215,1.226h-2.699c-1.341,0-2.433,1.098-2.433,2.446v1.304L376.964,153.922z"/>
	</g>
</g>
<g>
	<g>
		<rect x="400.908" y="464.215" fill="#E0DCCD" width="158.182" height="7.665"/>
		<g>
			
				<image overflow="visible" opacity="0.77" enable-background="new    " width="161" height="44" xlink:href="CED61C33D0B25051.png"  transform="matrix(0.9938 0 0 0.9773 400.0723 435.0723)">
			</image>
			<g>
				<polygon fill="#CEE8FA" points="541.344,438.555 551.565,464.197 408.465,464.197 418.688,438.555 				"/>
			</g>
		</g>
		<g>
			<polygon fill="#FCBB3B" points="436.574,438.555 428.906,464.197 449.352,464.197 454.462,438.555 			"/>
			<polygon fill="#FCBB3B" points="523.456,438.555 531.124,464.197 510.679,464.197 505.571,438.555 			"/>
			<polygon fill="#FCBB3B" points="490.237,464.212 469.795,464.212 472.348,438.658 487.682,438.658 			"/>
			<path fill="#FCBB3B" d="M551.431,476.99c0,5.646-4.508,10.219-10.153,10.219s-10.19-4.573-10.19-10.219
				c0,5.646-4.557,10.219-10.202,10.219s-10.214-4.573-10.214-10.219c0,5.646-4.569,10.219-10.219,10.219
				c-5.644,0-10.216-4.573-10.216-10.219c0,5.646-4.576,10.219-10.221,10.219c-5.644,0-10.22-4.573-10.22-10.219
				c0,5.646-4.576,10.219-10.221,10.219c-5.649,0-10.222-4.573-10.222-10.219c0,5.646-4.578,10.219-10.222,10.219
				c-5.643,0-10.224-4.573-10.224-10.219c0,5.646-4.524,10.219-10.168,10.219s-10.17-4.573-10.17-10.219v-5.133h142.863
				L551.431,476.99L551.431,476.99z"/>
		</g>
		<g>
			
				<image overflow="visible" opacity="0.77" enable-background="new    " width="121" height="33" xlink:href="CED61C33D0B25057.png"  transform="matrix(0.9917 0 0 0.9697 420.0723 469.0723)">
			</image>
			<g>
				<g>
					<path fill="#FF455E" d="M428.882,476.99c0,5.646,4.513,10.219,10.158,10.219c5.641,0,10.154-4.573,10.154-10.219v-5.133
						h-20.312L428.882,476.99L428.882,476.99z"/>
					<path fill="#FF455E" d="M469.843,476.99c0,5.646,4.51,10.219,10.156,10.219s10.157-4.573,10.157-10.219v-5.133h-20.313
						L469.843,476.99L469.843,476.99z"/>
					<path fill="#FF455E" d="M510.805,476.99c0,5.646,4.508,10.219,10.154,10.219c5.647,0,10.161-4.573,10.161-10.219v-5.133
						h-20.315V476.99L510.805,476.99z"/>
				</g>
				<g>
					<path fill="#CEE8FA" d="M428.882,476.99c0,5.646,4.513,10.219,10.158,10.219c5.641,0,10.154-4.573,10.154-10.219v-5.133
						h-20.312L428.882,476.99L428.882,476.99z"/>
					<path fill="#CEE8FA" d="M469.843,476.99c0,5.646,4.51,10.219,10.156,10.219s10.157-4.573,10.157-10.219v-5.133h-20.313
						L469.843,476.99L469.843,476.99z"/>
					<path fill="#CEE8FA" d="M510.805,476.99c0,5.646,4.508,10.219,10.154,10.219c5.647,0,10.161-4.573,10.161-10.219v-5.133
						h-20.315V476.99L510.805,476.99z"/>
				</g>
			</g>
		</g>
		<g>
			<rect x="410.9" y="430.897" fill="#75C0C7" width="138.201" height="7.658"/>
			<rect x="413.577" y="484.653" fill="#7FB1F0" width="132.876" height="89.438"/>
		</g>
		<rect x="536.233" y="566.424" fill="#FCBB3B" width="10.22" height="7.668"/>
		<rect x="413.731" y="484.653" fill="#4F7AC8" width="132.724" height="38.33"/>
		<rect x="423.797" y="502.544" fill="#FFFFFF" width="76.659" height="51.107"/>
		<rect x="423.797" y="502.544" fill="#F2F2F2" width="76.659" height="20.442"/>
		<rect x="413.577" y="566.424" fill="#FCBB3B" width="97.106" height="7.668"/>
		<polyline fill="#E0DCCD" points="510.805,574.092 510.805,512.816 536.113,512.816 536.113,574.092 		"/>
		<rect x="510.684" y="512.766" fill="#A8A59A" width="25.55" height="10.218"/>
		<rect x="398.246" y="571.761" fill="#17275B" width="163.508" height="4.995"/>
		<path fill="#17275B" d="M554.063,476.851h-4.997c0,4.329-3.464,7.725-7.722,7.725c-4.259,0-7.721-3.396-7.721-7.725h-4.997
			c0,4.329-3.466,7.725-7.725,7.725s-7.723-3.396-7.723-7.725h-4.997c0,4.329-3.463,7.725-7.724,7.725
			c-4.258,0-7.724-3.396-7.724-7.725h-4.995c0,4.329-3.466,7.725-7.724,7.725s-7.724-3.396-7.724-7.725h-4.994
			c0,4.329-3.466,7.725-7.724,7.725c-4.262,0-7.727-3.396-7.727-7.725h-4.995c0,4.329-3.461,7.725-7.723,7.725
			c-4.259,0-7.724-3.396-7.724-7.725h-4.994c0,4.329-3.465,7.725-7.723,7.725s-7.728-3.396-7.728-7.725h-4.994
			c0,4.219,2.078,7.997,5.266,10.334v81.913h4.994v-79.702c0.796,0.157,1.621,0.244,2.462,0.244c4.182,0,7.902-1.963,10.218-5.091
			c2.322,3.128,6.039,5.16,10.224,5.16s7.901-2.031,10.222-5.16c2.321,3.128,6.038,5.16,10.222,5.16
			c4.181,0,7.902-2.032,10.221-5.16c2.318,3.127,6.037,5.16,10.22,5.16c4.185,0,7.902-2.032,10.222-5.16
			c2.321,3.127,6.038,5.156,10.221,5.156c4.184,0,7.903-2.034,10.221-5.163c2.321,3.129,6.037,5.148,10.22,5.148
			c4.188,0,7.904-2.048,10.226-5.173c2.317,3.125,6.037,5.121,10.22,5.121c0.948,0,1.871-0.111,2.76-0.311v79.771h4.998v-82.14
			C552.116,484.609,554.063,480.935,554.063,476.851z"/>
		<rect x="400.908" y="469.526" fill="#17275B" width="158.182" height="4.994"/>
		<path fill="#17275B" d="M502.954,556.146h-81.653v-56.101h81.653L502.954,556.146L502.954,556.146z M426.294,551.151h71.667
			v-46.112h-71.667V551.151z"/>
		<polygon fill="#17275B" points="541.438,568.765 533.781,568.765 533.781,515.146 513.137,515.146 513.137,568.765 
			418.56,568.765 418.56,563.768 508.139,563.768 508.139,510.153 538.778,510.153 538.778,563.768 541.438,563.768 		"/>
		<rect x="515.798" y="543.452" fill="#17275B" width="4.999" height="4.999"/>
		<rect x="508.139" y="500.164" fill="#17275B" width="30.64" height="4.995"/>
		<path fill="#17275B" d="M555.249,466.862l-10.224-25.643h6.405v-12.654H408.567v12.654h6.437l-10.222,25.643H555.249z
			 M451.406,441.219l-4.133,20.649h-15.055l6.195-20.649H451.406z M521.616,441.219l6.192,20.649h-15.051l-4.13-20.649H521.616z
			 M503.533,441.219l4.129,20.649h-15.147l-2.066-20.649H503.533z M485.428,441.219l2.064,20.649h-14.954l2.067-20.649H485.428z
			 M467.518,461.868h-15.149l4.128-20.649h13.087L467.518,461.868z M547.881,461.868h-14.855l-6.192-20.649h12.815L547.881,461.868z
			 M413.565,436.226v-2.664h132.867v2.664H413.565z M420.381,441.219H433.2l-6.193,20.649H412.15L420.381,441.219z"/>
		
			<rect x="439.185" y="515.799" transform="matrix(-0.7071 -0.7072 0.7072 -0.7071 384.112 1205.174)" fill="#17275B" width="4.992" height="14.455"/>
		
			<rect x="445.569" y="521.877" transform="matrix(-0.7071 -0.7072 0.7072 -0.7071 386.8853 1229.3217)" fill="#17275B" width="4.999" height="25.298"/>
		
			<rect x="463.475" y="507.554" transform="matrix(-0.7077 -0.7065 0.7065 -0.7077 430.7704 1211.3979)" fill="#17275B" width="4.995" height="18.073"/>
		
			<rect x="470.501" y="508.477" transform="matrix(-0.7075 -0.7067 0.7067 -0.7075 434.8961 1234.8927)" fill="#17275B" width="4.995" height="37.944"/>
		
			<rect x="474.953" y="539.806" transform="matrix(-0.707 -0.7072 0.7072 -0.707 430.6993 1265.2771)" fill="#17275B" width="4.993" height="7.228"/>
	</g>
	<rect x="451" y="393" fill="#1F305F" width="63" height="36"/>
	<g>
		<path fill="#FFFFFF" d="M500.622,419.041c0.914-0.955,1.581-2.085,2.01-3.406c0.42-1.32,0.582-2.587,0.48-3.793
			c-0.189-1.747-0.698-3.252-1.54-4.514c-0.845-1.262-1.921-2.202-3.23-2.82c-1.311-0.615-2.737-0.873-4.283-0.785
			c-1.893,0.158-3.518,0.676-4.876,1.549c-1.354,0.869-2.361,1.986-3.025,3.344c-0.248,0.505-0.444,1.033-0.586,1.573
			c-0.17-0.112-0.339-0.223-0.53-0.317c-0.687-0.338-1.46-0.503-2.333-0.503c-1.448,0.046-2.527,0.506-3.23,1.37v-1.427h-0.057
			c-0.401,0.163-0.743,0.266-1.027,0.307c-0.287,0.037-0.7,0.061-1.249,0.061h-3.025v0.099c0.308,0.29,0.536,0.572,0.68,0.843
			c0.149,0.273,0.222,0.647,0.222,1.124v7.045c0,0.813-0.049,1.378-0.146,1.699c-0.098,0.322-0.348,0.661-0.756,1.018
			c-0.372-0.29-0.611-0.591-0.728-0.91c-0.121-0.313-0.176-0.756-0.176-1.322v-9.964h-0.109c-0.274,0.158-0.557,0.259-0.85,0.302
			c-0.203,0.029-0.469,0.046-0.798,0.056c0.202-0.054,0.396-0.137,0.579-0.246c0.371-0.22,0.671-0.52,0.896-0.899
			c0.22-0.377,0.333-0.794,0.333-1.25c0-0.453-0.109-0.867-0.332-1.253c-0.218-0.375-0.522-0.675-0.9-0.897
			c-0.376-0.222-0.773-0.338-1.203-0.338c-0.691,0-1.279,0.245-1.759,0.73c-0.486,0.489-0.723,1.072-0.723,1.758
			c0,0.688,0.237,1.274,0.727,1.759c0.337,0.332,0.721,0.542,1.151,0.647h-2.372v0.099c0.304,0.277,0.522,0.561,0.652,0.857
			c0.137,0.3,0.197,0.717,0.197,1.264v6.381c-0.494,0.331-1.714,0.849-4.529,0.849c-1.128,0-1.974-0.149-2.539-0.444v-11.549
			c0-1.246,0.354-2.078,1.06-2.511v-0.045h-6.963v0.045c0.74,0.422,1.116,1.213,1.116,2.387v11.361c0,0.897-0.065,1.565-0.183,2.012
			c-0.117,0.434-0.424,0.827-0.934,1.172v0.055h9.523c1.217,0,2.941-0.607,3.422-1.828c-0.021,0.275-0.058,0.518-0.119,0.716
			c-0.102,0.336-0.352,0.669-0.752,1.007v0.105h6.312h6.258v-0.105c-0.388-0.324-0.639-0.656-0.746-0.991
			c-0.101-0.34-0.153-0.801-0.153-1.388v-5.256c0-0.599,0.153-1.064,0.463-1.387c0.305-0.316,0.686-0.478,1.142-0.478
			c0.275,0,0.537,0.076,0.787,0.231c0.248,0.162,0.449,0.388,0.604,0.683c0.155,0.296,0.234,0.649,0.234,1.057v4.94
			c0,0.752-0.053,1.296-0.153,1.629c-0.105,0.329-0.364,0.651-0.78,0.958v0.105h6.349v-0.099c0,0-0.022-0.022-0.032-0.039
			c-0.274-0.216-0.469-0.433-0.599-0.647c-0.028-0.046-0.054-0.105-0.077-0.156c-0.278-0.385-0.542-0.793-0.762-1.233
			c-0.729-1.416-1.098-2.973-1.103-4.665c0-0.026,0.005-0.059,0.005-0.083c0.251,1.042,0.648,2.014,1.202,2.908
			c0.84,1.354,1.936,2.385,3.286,3.097c1.346,0.714,2.817,1.003,4.407,0.865c0.187-0.012,0.459-0.056,0.815-0.129
			c0.357-0.073,0.665-0.129,0.919-0.169c0.389,0.283,6.034,3.041,8.464-0.668C503.938,420.597,501.877,420.808,500.622,419.041
			 M497.812,417.221c-0.494,1.015-1.353,1.573-2.579,1.676c-0.938,0.079-1.756-0.174-2.455-0.753
			c-0.687-0.581-1.25-1.352-1.666-2.31c-0.418-0.954-0.726-2.014-0.923-3.164c-0.028-0.166-0.061-0.443-0.091-0.819
			c-0.074-0.888-0.029-1.719,0.136-2.5c0.17-0.775,0.487-1.435,0.959-1.96c0.475-0.53,1.115-0.862,1.92-0.985
			c0.858-0.075,1.603,0.066,2.24,0.424c0.644,0.357,1.185,0.934,1.631,1.725c0.442,0.795,0.817,1.815,1.119,3.061
			c0.142,0.833,0.227,1.45,0.262,1.85C498.49,414.956,498.304,416.212,497.812,417.221"/>
		<path fill="#FFFFFF" d="M506.269,412.955v-9.386c0-1.326-1.071-2.396-2.394-2.396h-9.383
			C500.428,402.346,505.098,407.018,506.269,412.955"/>
	</g>
</g>
<g>
	<g id="Layer_2_2_">
		<g>
			<path fill="#4F7AC8" d="M168.781,624.881c0.133-0.365,0.5-0.596,0.887-0.544c0.388,0.051,0.685,0.363,0.72,0.754l1.324,15.463
				l2.479-8.932c0.102-0.368,0.435-0.618,0.817-0.608c0.377,0.009,0.701,0.273,0.786,0.644l1.381,5.987l2.357-9.904
				c0.093-0.385,0.448-0.653,0.844-0.636c0.4,0.021,0.727,0.317,0.784,0.715l1.756,12.541l0.79-2.549
				c0.107-0.348,0.428-0.585,0.79-0.585h18.655v-4.271c0-3.941-3.195-7.139-7.139-7.139h-11.334v-11.333
				c0-3.944-3.198-7.138-7.139-7.138h-4.123h-0.652c-3.942,0-7.14,3.193-7.14,7.138v11.333h-11.333c-3.94,0-7.142,3.197-7.142,7.139
				v4.362h17.168L168.781,624.881z"/>
			<path fill="#4F7AC8" d="M183.404,644.393c-0.117,0.37-0.472,0.611-0.858,0.578c-0.387-0.028-0.7-0.326-0.753-0.709l-1.666-11.866
				l-2.157,9.071c-0.092,0.376-0.425,0.638-0.808,0.638h-0.001c-0.387-0.002-0.719-0.269-0.805-0.643l-1.443-6.254l-2.837,10.229
				c-0.101,0.361-0.429,0.606-0.799,0.606c-0.025,0-0.049-0.002-0.077-0.005c-0.398-0.036-0.715-0.355-0.747-0.754l-1.393-16.272
				l-3.38,9.413c-0.117,0.332-0.431,0.55-0.779,0.55h-17.639c0.589,3.349,3.513,5.896,7.029,5.896h11.334v11.333
				c0,3.944,3.196,7.14,7.139,7.14h0.652h4.123c3.94,0,7.139-3.195,7.139-7.14V644.87h11.334c3.552,0,6.495-2.592,7.046-5.986
				h-17.952L183.404,644.393z"/>
			<path fill="#F7F1E6" d="M206.044,637.227h-2.893h-18.655c-0.362,0-0.683,0.237-0.79,0.585l-0.79,2.549l-1.756-12.541
				c-0.058-0.397-0.384-0.693-0.784-0.715c-0.396-0.018-0.751,0.251-0.844,0.636l-2.356,9.904l-1.382-5.987
				c-0.085-0.37-0.409-0.635-0.786-0.644c-0.383-0.01-0.716,0.24-0.817,0.608l-2.479,8.932l-1.324-15.463
				c-0.035-0.391-0.331-0.703-0.72-0.754c-0.387-0.052-0.754,0.179-0.887,0.544l-4.461,12.438h-17.167h-2.578
				c-0.456,0-0.827,0.371-0.827,0.828c0,0.456,0.371,0.828,0.827,0.828h2.688h17.639c0.349,0,0.66-0.218,0.779-0.55l3.38-9.413
				l1.391,16.272c0.034,0.398,0.351,0.718,0.749,0.754c0.026,0.003,0.052,0.005,0.077,0.005c0.37,0,0.698-0.245,0.799-0.606
				l2.837-10.229l1.443,6.254c0.086,0.374,0.418,0.641,0.803,0.643h0.003c0.383,0,0.716-0.262,0.806-0.638l2.159-9.071l1.665,11.866
				c0.054,0.383,0.367,0.681,0.754,0.709c0.386,0.033,0.741-0.208,0.858-0.578l1.702-5.509h17.951h2.986
				c0.459,0,0.829-0.373,0.829-0.829C206.873,637.597,206.503,637.227,206.044,637.227z"/>
		</g>
	</g>
</g>
<g>
	<g>
		<rect x="824.017" y="480.716" fill="#FFFFFF" width="7.826" height="21.307"/>
		<rect x="822.379" y="475.886" fill="#FFFFFF" width="11.111" height="4.83"/>
		<rect x="822.379" y="502.022" fill="#FFFFFF" width="11.111" height="4.828"/>
		<rect x="805.171" y="475.886" fill="#FFFFFF" width="11.115" height="4.83"/>
		<rect x="805.171" y="502.022" fill="#FFFFFF" width="11.115" height="4.828"/>
		<rect x="787.956" y="475.886" fill="#FFFFFF" width="11.113" height="4.83"/>
		<rect x="787.956" y="502.022" fill="#FFFFFF" width="11.113" height="4.828"/>
		<rect x="785.5" y="471.609" fill="#FFFFFF" width="50.445" height="4.276"/>
	</g>
	<path fill="#7FB1F0" d="M838.859,471.429l-28.136-17.396l-28.139,17.396c-0.093,0.095-0.093,0.181,0,0.181h56.274
		C838.945,471.609,838.945,471.514,838.859,471.429z"/>
	<circle fill="#FFFFFF" cx="810.724" cy="464.05" r="3.457"/>
	<rect x="782.499" y="505.938" fill="#4F7AC8" width="56.455" height="4.553"/>
	<rect x="806.809" y="480.716" fill="#FFFFFF" width="7.827" height="21.307"/>
	<g>
		<rect x="809.809" y="484.267" fill="#193651" width="1.819" height="1.814"/>
		<rect x="809.809" y="489.094" fill="#193651" width="1.819" height="1.817"/>
		<rect x="809.809" y="493.921" fill="#193651" width="1.819" height="1.816"/>
	</g>
	<rect x="789.604" y="480.716" fill="#FFFFFF" width="7.825" height="21.307"/>
	<g>
		<polygon fill="#193651" points="838.041,505.938 838.041,509.574 783.404,509.574 783.404,505.938 781.584,505.938 781.584,511.4 
			839.86,511.4 839.86,505.938 		"/>
		<path fill="#193651" d="M839.403,470.611l-28.68-17.675l-28.596,17.675c-0.447,0.179-0.639,0.722-0.544,1.177
			c0.097,0.459,0.544,0.726,1.001,0.726h1.998v4.278h2.459v4.824h1.638v19.482h-1.629v4.826h12.931v-4.826h-1.635v-19.472h1.635
			V476.8h4.277v4.827h1.635v19.481h-1.635v4.829h12.93v-4.829h-1.638v-19.481h1.638V476.8h4.272v4.827h1.64v19.481h-1.64v4.732
			h1.831v-2.911h9.284v2.911h1.816v-4.732h-1.636v-19.481h1.636V476.8h2.553v-4.275h2c0.458,0,0.82-0.277,1-0.725
			C839.955,471.333,839.766,470.79,839.403,470.611z M798.153,505.938h-9.285v-3.008h9.285V505.938L798.153,505.938z
			 M790.509,501.108v-19.481h6.007v19.481H790.509L790.509,501.108z M798.153,479.8h-9.285v-3.008h9.285V479.8L798.153,479.8z
			 M815.368,505.938h-9.281v-3.008h9.281V505.938z M807.715,501.108v-19.481h6.007v19.481H807.715L807.715,501.108z M815.368,479.8
			h-9.281v-3.008h9.281V479.8z M830.938,501.108h-6.01v-19.481h6.01V501.108z M832.576,479.8h-9.284v-3.008h9.284V479.8z
			 M835.033,474.979h-48.621v-2.455h48.621V474.979z M785.414,470.695l25.31-15.568l25.308,15.663h-50.617L785.414,470.695
			L785.414,470.695z"/>
	</g>
</g>
<g>
	<g>
		<path fill="#7FB1F0" d="M671.431,249.842v-7.53c0-2.723,2.206-4.931,4.931-4.931h27.896c2.726,0,4.935,2.208,4.935,4.931v7.53"/>
		<path fill="#7FB1F0" d="M715.422,222.649v-10.236c0-10.015-8.119-18.134-18.133-18.134h-13.956
			c-10.015,0-18.133,8.119-18.133,18.134v10.236v27.192h49.517"/>
	</g>
	<g>
		<path fill="#4F7AC8" d="M681.339,237.381c-2.723,0-4.932,2.207-4.932,4.93v7.531h-4.977v-7.531c0-2.723,2.206-4.93,4.93-4.93
			H681.339z"/>
		<path fill="#4F7AC8" d="M709.191,242.311v7.531h-4.98v-7.531c0-2.723-2.208-4.93-4.933-4.93h4.979
			C706.982,237.381,709.191,239.588,709.191,242.311z"/>
		<path fill="#4F7AC8" d="M670.677,212.413c0-10.015,8.118-18.134,18.133-18.134h-5.477c-10.015,0-18.133,8.119-18.133,18.134
			v10.236v27.192h5.477v-27.192V212.413z"/>
	</g>
	<g>
		<path fill="#7FB1F0" d="M671.431,249.842v-7.53v-10.85c0-4.069-2.6-7.531-6.23-8.813c-1.006-0.355-2.091-0.544-3.219-0.531
			c-5.052,0.054-9.193,4.2-9.24,9.253c-0.03,3.043,1.396,5.753,3.622,7.479c2.87,2.226,4.476,5.715,4.476,9.347v1.645"/>
		<path fill="#7FB1F0" d="M709.191,249.842v-7.53v-10.85c0-4.069,2.6-7.531,6.23-8.813c0.974-0.345,2.02-0.532,3.112-0.532
			c5.163,0,9.347,4.184,9.347,9.345c0,2.961-1.377,5.601-3.528,7.313c-2.842,2.264-4.571,5.641-4.571,9.274v1.792"/>
	</g>
	<polygon fill="#CFDCE5" points="666.268,255.569 660.839,255.569 660.839,249.842 671.431,249.842 709.191,249.842 
		719.781,249.842 719.781,255.569 714.352,255.569 	"/>
	<polygon fill="#BAC6CC" points="661.445,255.569 660.839,255.569 660.839,249.842 662.024,249.842 666.248,249.842 
		667.433,249.842 667.433,255.569 666.825,255.569 	"/>
	<g>
		<polygon fill="#1F305F" points="670.919,255.569 670.919,263.046 665.864,263.046 664.502,255.569 		"/>
		<polygon fill="#1F305F" points="709.704,255.569 709.704,263.046 714.76,263.046 716.118,255.569 		"/>
		<circle fill="#1F305F" cx="718.709" cy="231.791" r="2.641"/>
		<circle fill="#1F305F" cx="661.913" cy="231.791" r="2.641"/>
	</g>
	<path fill="#193651" d="M718.442,220.796c-0.604,0-1.203,0.051-1.792,0.15v-8.533c0-6.952-3.75-13.421-9.783-16.884
		c-0.634-0.363-1.442-0.146-1.804,0.487c-0.364,0.634-0.146,1.44,0.488,1.804c5.217,2.994,8.456,8.585,8.456,14.593v9.348
		c-3.762,1.721-6.23,5.506-6.23,9.701v5.751c-1.021-0.725-2.267-1.153-3.611-1.153h-5.285l3.171-7.948
		c0.271-0.678-0.06-1.446-0.736-1.716c-0.677-0.271-1.446,0.059-1.717,0.736l-3.563,8.928h-4.498v-20.911
		c0-0.729-0.59-1.32-1.319-1.32c-0.73,0-1.321,0.591-1.321,1.32v20.911H684.4l-6.536-16.382c-0.27-0.677-1.039-1.007-1.716-0.736
		c-0.679,0.27-1.009,1.038-0.738,1.716l6.146,15.402h-5.287c-1.344,0-2.589,0.429-3.609,1.152v-5.751
		c0-4.515-2.857-8.556-7.111-10.058c-1.175-0.416-2.408-0.619-3.674-0.606c-5.76,0.063-10.49,4.8-10.547,10.561
		c-0.032,3.363,1.477,6.475,4.134,8.537c2.482,1.924,3.964,5.027,3.964,8.302v7.373c0,0.73,0.591,1.321,1.321,1.321h2.563
		l1.162,6.393c0.115,0.628,0.662,1.084,1.3,1.084h5.056c0.729,0,1.321-0.591,1.321-1.321v-6.155h29.534
		c0.729,0,1.321-0.591,1.321-1.321c0-0.729-0.592-1.32-1.321-1.32h-39.615v-3.086h56.3v3.086h-12.282
		c-0.729,0-1.321,0.592-1.321,1.32c0,0.73,0.592,1.321,1.321,1.321h2.206v6.156c0,0.729,0.592,1.32,1.321,1.32h5.056
		c0.638,0,1.186-0.456,1.3-1.085l1.16-6.392h2.561c0.729,0,1.321-0.591,1.321-1.321v-7.52c0-3.177,1.484-6.181,4.073-8.242
		c2.56-2.037,4.026-5.078,4.026-8.346C729.109,225.581,724.325,220.796,718.442,220.796z M669.506,256.891v4.835h-2.632
		l-0.879-4.835H669.506z M713.565,261.727h-2.632v-4.836h3.511L713.565,261.727z M676.269,238.701h27.897
		c1.992,0,3.611,1.619,3.611,3.61v6.21h-35.118v-6.21C672.659,240.32,674.279,238.701,676.269,238.701z M657.081,237.806
		c-2-1.551-3.135-3.893-3.111-6.423c0.041-4.334,3.601-7.896,7.935-7.944c0.947-0.011,1.88,0.144,2.764,0.456
		c3.2,1.13,5.35,4.17,5.35,7.567v17.06h-7.95v-0.324C662.067,244.11,660.203,240.227,657.081,237.806z M723.438,237.741
		c-3.223,2.565-5.07,6.322-5.07,10.309v0.472h-7.947v-17.061c0-3.396,2.148-6.438,5.352-7.566c0.854-0.303,1.753-0.456,2.672-0.456
		c4.425,0,8.023,3.599,8.023,8.023C726.467,233.92,725.362,236.208,723.438,237.741z"/>
	<path fill="#193651" d="M665.107,219.424c0.73,0,1.321-0.592,1.321-1.321v-5.689c0-9.271,7.542-16.813,16.812-16.813h13.956
		c1.466,0,2.92,0.188,4.323,0.561c0.704,0.187,1.427-0.232,1.613-0.938c0.187-0.706-0.232-1.429-0.937-1.616
		c-1.623-0.43-3.305-0.648-5-0.648H683.24c-10.727,0-19.453,8.727-19.453,19.454v5.689
		C663.787,218.832,664.379,219.424,665.107,219.424z"/>
	<path fill="#193651" d="M702.572,219.678l-1.393,3.49c-0.271,0.678,0.061,1.446,0.738,1.716c0.16,0.064,0.326,0.095,0.488,0.095
		c0.525,0,1.021-0.314,1.228-0.831l1.394-3.49c0.269-0.677-0.06-1.446-0.737-1.716C703.612,218.671,702.843,219.001,702.572,219.678
		z"/>
	<path fill="#193651" d="M699.348,238.292c-1.559,0-2.828,1.269-2.828,2.827c0,1.56,1.27,2.828,2.828,2.828
		c1.56,0,2.828-1.269,2.828-2.828C702.176,239.561,700.907,238.292,699.348,238.292z M699.348,242.063
		c-0.521,0-0.943-0.424-0.943-0.943s0.423-0.942,0.943-0.942s0.942,0.423,0.942,0.942S699.867,242.063,699.348,242.063z"/>
	<path fill="#193651" d="M665.784,231.791c0-2.186-1.778-3.962-3.964-3.962c-2.184,0-3.962,1.776-3.962,3.962
		c0,2.185,1.778,3.963,3.962,3.963C664.006,235.754,665.784,233.976,665.784,231.791z M661.82,233.111
		c-0.729,0-1.32-0.592-1.32-1.32s0.592-1.321,1.32-1.321s1.321,0.593,1.321,1.321S662.549,233.111,661.82,233.111z"/>
</g>
<g>
	<path fill="#17275B" d="M885.99,497.579v-20.45h10.542c2.88,0,4.667,2.65,4.667,5.213c0,1.987-1.067,3.918-2.938,4.752
		c2.333,0.691,3.802,2.621,3.802,5.213c0,3.283-2.851,5.272-6.308,5.272h-9.764V497.579z M889.217,485.943h5.933
		c1.584,0,2.824-1.267,2.824-2.995c0-1.757-1.124-3.025-2.65-3.025h-6.107V485.943z M889.217,488.535v6.25h6.538
		c1.7,0,2.996-1.412,2.996-3.082c0-1.672-1.181-3.168-2.794-3.168H889.217z"/>
	<path fill="#17275B" d="M910.356,488.391c1.325,0,2.824,0.202,3.917,0.604v-0.95c0-2.102-1.325-3.37-3.686-3.37
		c-1.67,0-3.11,0.605-4.78,1.699l-1.067-2.131c1.987-1.325,3.976-1.987,6.192-1.987c4.032,0,6.51,2.218,6.51,6.134v5.616
		c0,0.721,0.23,1.008,0.835,1.037v2.534c-0.605,0.115-1.037,0.144-1.354,0.144c-1.355,0-2.017-0.778-2.131-1.642l-0.086-0.865
		c-1.325,1.699-3.514,2.651-5.587,2.651c-3.025,0-5.184-2.046-5.184-4.696C903.933,490.291,906.555,488.391,910.356,488.391z
		 M914.273,492.682v-1.727c-1.066-0.403-2.332-0.634-3.456-0.634c-2.304,0-3.888,1.008-3.888,2.592c0,1.325,1.066,2.622,3.082,2.622
		c1.354,0,2.707-0.605,3.514-1.44C913.985,493.633,914.273,493.057,914.273,492.682z"/>
	<path fill="#17275B" d="M931.611,497.579v-8.44c0-2.822-0.923-4.061-2.678-4.061c-1.814,0-3.83,1.498-4.493,3.542v8.958h-3.169
		v-15.064h2.88v3.025c1.152-2.016,3.485-3.283,6.134-3.283c3.601,0,4.494,2.822,4.494,6.134v9.188h-3.168V497.579z"/>
	<path fill="#17275B" d="M944.11,490.636l-2.477,2.363v4.579h-3.169v-21.025h3.169v13.249l6.971-7.259h3.398l-5.846,6.308
		l6.163,8.726h-3.37L944.11,490.636z"/>
</g>
<g>
	<path fill="#17275B" d="M-28.287,318.678h8.584c3.686,0,6.336,3.37,6.336,6.653c0,3.427-2.477,6.682-6.163,6.682h-5.53v7.115
		h-3.227V318.678z M-19.732,329.162c1.814,0,3.082-1.642,3.082-3.83c0-2.275-1.526-3.802-3.254-3.802h-5.155v7.632H-19.732z"/>
	<path fill="#17275B" d="M-0.407,339.128v-8.44c0-2.736-1.037-4.061-2.851-4.061c-1.728,0-3.686,1.469-4.321,3.542v8.958h-3.168
		v-21.025h3.168v8.987c1.152-2.045,3.254-3.283,5.588-3.283c3.744,0,4.752,2.851,4.752,6.134v9.188h-3.168V339.128z"/>
	<path fill="#17275B" d="M11.774,329.94c1.325,0,2.824,0.202,3.917,0.605v-0.95c0-2.102-1.325-3.37-3.686-3.37
		c-1.67,0-3.11,0.605-4.781,1.699l-1.066-2.131c1.987-1.325,3.974-1.987,6.192-1.987c4.032,0,6.51,2.218,6.51,6.134v5.617
		c0,0.72,0.23,1.008,0.835,1.037v2.534c-0.605,0.115-1.037,0.144-1.354,0.144c-1.354,0-2.016-0.778-2.131-1.642l-0.086-0.864
		c-1.325,1.699-3.514,2.65-5.588,2.65c-3.024,0-5.184-2.046-5.184-4.696C5.352,331.84,7.972,329.94,11.774,329.94z M15.691,334.231
		v-1.728c-1.066-0.403-2.333-0.634-3.456-0.634c-2.304,0-3.888,1.008-3.888,2.592c0,1.325,1.066,2.621,3.082,2.621
		c1.354,0,2.707-0.605,3.514-1.44C15.404,335.181,15.691,334.605,15.691,334.231z"/>
	<path fill="#17275B" d="M25.857,329.911v9.217h-3.169v-15.064h2.938v3.371c1.037-2.075,2.824-3.4,4.724-3.514
		c0.374,0,0.605,0,0.806,0.029v2.851C28.708,326.857,26.664,327.981,25.857,329.911z"/>
	<path fill="#17275B" d="M53.334,339.128v-8.44c0-2.794-0.95-4.061-2.707-4.061c-1.786,0-3.427,1.469-4.061,3.572v8.928h-3.168
		v-8.44c0-2.822-0.95-4.061-2.678-4.061c-1.786,0-3.456,1.44-4.09,3.542v8.958H33.46v-15.064h2.88v3.025
		c1.181-2.102,3.197-3.283,5.675-3.283c2.477,0,3.946,1.469,4.291,3.427c1.267-2.218,3.226-3.427,5.675-3.427
		c3.572,0,4.523,2.851,4.523,6.134v9.188h-3.17V339.128z"/>
	<path fill="#17275B" d="M65.486,329.94c1.325,0,2.824,0.202,3.918,0.605v-0.95c0-2.102-1.325-3.37-3.686-3.37
		c-1.672,0-3.112,0.605-4.781,1.699l-1.067-2.131c1.987-1.325,3.976-1.987,6.193-1.987c4.032,0,6.509,2.218,6.509,6.134v5.617
		c0,0.72,0.23,1.008,0.835,1.037v2.534c-0.605,0.115-1.037,0.144-1.354,0.144c-1.354,0-2.017-0.778-2.131-1.642l-0.086-0.864
		c-1.325,1.699-3.514,2.65-5.587,2.65c-3.024,0-5.184-2.046-5.184-4.696C59.062,331.84,61.684,329.94,65.486,329.94z
		 M69.404,334.231v-1.728c-1.067-0.403-2.333-0.634-3.457-0.634c-2.304,0-3.888,1.008-3.888,2.592c0,1.325,1.067,2.621,3.082,2.621
		c1.354,0,2.708-0.605,3.515-1.44C69.115,335.181,69.404,334.605,69.404,334.231z"/>
	<path fill="#17275B" d="M75.421,331.581c0-4.234,3.053-7.776,7.805-7.776c3.112,0,5.416,1.498,6.538,3.744l-3.08,0.979
		c-0.721-1.267-2.017-2.016-3.515-2.016c-2.534,0-4.493,2.102-4.493,5.069c0,2.909,2.045,5.126,4.523,5.126
		c1.555,0,3.11-0.922,3.571-2.074l3.112,0.922c-0.979,2.246-3.485,3.859-6.654,3.859C78.531,339.416,75.421,335.786,75.421,331.581z
		"/>
	<path fill="#17275B" d="M94.257,342.872c0.979,0,1.412-0.662,2.507-3.744l-6.193-15.064h3.313l4.608,11.838l4.09-11.838h3.054
		l-6.826,18.55c-0.606,1.699-2.161,3.053-4.523,3.053c-0.461,0-0.95-0.058-1.555-0.23v-2.765
		C93.307,342.786,93.91,342.872,94.257,342.872z"/>
</g>
<g>
	<path fill="#17275B" d="M8.795,656.075H5.54v-9.016H-4.771v9.016h-3.226v-20.449h3.226v8.554H5.54v-8.554h3.254V656.075z"/>
	<path fill="#17275B" d="M19.507,640.751c4.694,0,7.748,3.629,7.748,7.806c0,4.177-3.054,7.806-7.748,7.806
		c-4.724,0-7.747-3.629-7.747-7.806C11.76,644.38,14.842,640.751,19.507,640.751z M24.001,648.557c0-2.88-1.987-5.098-4.493-5.098
		c-2.477,0-4.493,2.246-4.493,5.126c0,2.909,1.987,5.069,4.493,5.069S24.001,651.437,24.001,648.557z"/>
	<path fill="#17275B" d="M28.925,653.885l1.181-2.131c1.757,1.526,3.456,2.189,5.213,2.189c1.786,0,2.996-0.691,2.996-1.987
		c0-1.411-1.382-1.583-3.659-2.246c-3.226-0.978-4.896-1.872-4.896-4.32c0-2.91,2.419-4.638,5.933-4.638
		c2.189,0,4.09,0.664,5.501,2.075l-1.354,2.102c-1.325-1.21-2.707-1.786-4.321-1.786c-1.411,0-2.794,0.432-2.794,1.902
		c0,1.237,1.037,1.583,3.082,2.189c3.485,1.008,5.587,1.727,5.587,4.493c0,2.909-2.362,4.637-5.962,4.637
		C32.9,656.363,30.538,655.528,28.925,653.885z"/>
	<path fill="#17275B" d="M47.386,662.21h-3.169v-21.198h2.794v2.707c1.152-1.786,3.054-2.968,5.328-2.968
		c4.12,0,7.115,3.601,7.115,7.777c0,4.349-2.766,7.834-6.682,7.834c-2.42,0-4.321-1.268-5.386-3.112
		C47.386,653.25,47.386,662.21,47.386,662.21z M51.504,643.46c-1.642,0-3.658,1.296-4.118,2.966v3.947
		c0.776,1.843,2.506,3.282,4.349,3.282c2.678,0,4.465-2.506,4.465-5.125C56.2,645.734,54.182,643.46,51.504,643.46z"/>
	<path fill="#17275B" d="M62.304,635.049h3.169v3.485h-3.169V635.049z M62.304,641.012h3.169v15.064h-3.169V641.012z"/>
	<path fill="#17275B" d="M73.708,656.306c-1.987,0-3.658-1.009-3.658-3.427v-9.419h-1.987v-2.448h1.987v-4.955h3.168v4.955h3.283
		v2.448h-3.283v8.411c0.059,1.066,0.749,1.525,1.614,1.525c0.893,0,1.786-0.403,2.16-0.605l0.662,2.506
		C76.848,655.672,75.322,656.306,73.708,656.306z"/>
	<path fill="#17275B" d="M85.17,646.887c1.325,0,2.824,0.202,3.918,0.605v-0.95c0-2.104-1.325-3.371-3.686-3.371
		c-1.672,0-3.112,0.605-4.781,1.699l-1.067-2.131c1.987-1.325,3.976-1.987,6.193-1.987c4.032,0,6.509,2.219,6.509,6.136v5.616
		c0,0.721,0.23,1.009,0.835,1.037v2.534c-0.605,0.115-1.037,0.144-1.354,0.144c-1.354,0-2.017-0.778-2.131-1.642l-0.086-0.864
		c-1.325,1.699-3.514,2.65-5.587,2.65c-3.024,0-5.184-2.045-5.184-4.694C78.748,648.788,81.368,646.887,85.17,646.887z
		 M89.088,651.179v-1.728c-1.067-0.403-2.333-0.634-3.457-0.634c-2.304,0-3.888,1.009-3.888,2.592c0,1.325,1.067,2.622,3.082,2.622
		c1.354,0,2.708-0.605,3.515-1.44C88.8,652.13,89.088,651.552,89.088,651.179z"/>
	<path fill="#17275B" d="M99.282,635.049v16.676c0,1.555,0.52,1.786,1.211,1.786c0.749,0,1.469-0.174,1.958-0.404l0.461,2.507
		c-0.922,0.403-2.333,0.691-3.341,0.691c-2.16,0-3.456-1.268-3.456-3.427v-17.828L99.282,635.049L99.282,635.049z"/>
</g>
<g>
	<path fill="#17275B" d="M311.616,886.701c-2.707,0-3.974,1.067-3.974,2.824c0,1.958,1.642,2.448,5.04,3.283
		c4.147,0.979,6.739,2.219,6.739,5.933c0,4.176-3.37,5.875-7.488,5.875c-3.11,0-6.106-0.979-8.44-2.765l1.469-2.766
		c0.979,1.008,3.917,2.622,7.027,2.622c2.534,0,3.976-0.923,3.976-2.622c0-2.075-2.102-2.678-5.617-3.572
		c-4.032-1.066-6.077-2.275-6.077-5.472c0-4.032,3.226-6.222,7.432-6.222c2.765,0,5.155,1.008,6.912,2.304l-1.469,2.65
		C316.398,887.939,314.064,886.701,311.616,886.701z"/>
	<path fill="#17275B" d="M332.555,904.415v-8.438c0-2.736-1.037-4.062-2.851-4.062c-1.728,0-3.686,1.47-4.321,3.542v8.958h-3.168
		V883.39h3.168v8.986c1.152-2.045,3.254-3.283,5.588-3.283c3.744,0,4.752,2.852,4.752,6.136v9.187H332.555z"/>
	<path fill="#17275B" d="M346.176,889.091c4.694,0,7.748,3.629,7.748,7.806s-3.053,7.806-7.748,7.806
		c-4.724,0-7.748-3.629-7.748-7.806S341.51,889.091,346.176,889.091z M350.669,896.897c0-2.88-1.987-5.098-4.493-5.098
		c-2.477,0-4.493,2.246-4.493,5.126c0,2.909,1.987,5.069,4.493,5.069S350.669,899.778,350.669,896.897z"/>
	<path fill="#17275B" d="M359.912,910.55h-3.168v-21.198h2.794v2.707c1.152-1.786,3.053-2.968,5.328-2.968
		c4.12,0,7.115,3.601,7.115,7.777c0,4.349-2.765,7.834-6.682,7.834c-2.419,0-4.321-1.268-5.387-3.112L359.912,910.55L359.912,910.55
		z M364.032,891.8c-1.642,0-3.658,1.296-4.12,2.966v3.947c0.778,1.843,2.506,3.282,4.35,3.282c2.678,0,4.464-2.506,4.464-5.125
		C368.726,894.075,366.71,891.8,364.032,891.8z"/>
	<path fill="#17275B" d="M378,910.55h-3.169v-21.198h2.794v2.707c1.152-1.786,3.053-2.968,5.328-2.968
		c4.12,0,7.115,3.601,7.115,7.777c0,4.349-2.765,7.834-6.682,7.834c-2.419,0-4.321-1.268-5.386-3.112V910.55z M382.118,891.8
		c-1.642,0-3.658,1.296-4.118,2.966v3.947c0.778,1.843,2.506,3.282,4.349,3.282c2.678,0,4.464-2.506,4.464-5.125
		C386.813,894.075,384.797,891.8,382.118,891.8z"/>
	<path fill="#17275B" d="M392.917,883.389h3.168v3.485h-3.168V883.389z M392.917,889.352h3.168v15.064h-3.168V889.352z"/>
	<path fill="#17275B" d="M410.226,904.415v-8.438c0-2.824-0.922-4.062-2.678-4.062c-1.814,0-3.83,1.498-4.494,3.542v8.958h-3.168
		v-15.064h2.88v3.024c1.152-2.016,3.485-3.283,6.134-3.283c3.6,0,4.494,2.824,4.494,6.136v9.187L410.226,904.415L410.226,904.415z"
		/>
	<path fill="#17275B" d="M423.157,889.091c2.42,0,4.264,1.268,5.443,3.112v-2.851h2.794v14.63c0,4.35-3.456,6.856-8.006,6.856
		c-3.341,0-5.443-1.21-6.942-3.226l1.786-1.67c1.152,1.613,3.082,2.476,5.156,2.476c2.592,0,4.838-1.381,4.838-4.435v-2.304
		c-1.067,1.816-3.112,2.88-5.184,2.88c-4.062,0-6.884-3.6-6.884-7.662C416.158,892.606,419.038,889.091,423.157,889.091z
		 M428.226,895.054c-0.749-1.901-2.592-3.254-4.378-3.254c-2.736,0-4.465,2.592-4.465,5.184c0,2.736,2.045,5.011,4.696,5.011
		c1.901,0,3.686-1.411,4.147-2.995L428.226,895.054L428.226,895.054z"/>
	<path fill="#17275B" d="M459.906,889.84l-6.019,11.06h-1.902l-6.048-11.06v14.575h-3.226v-20.449h3.457l6.768,12.499l6.769-12.499
		h3.457v20.449h-3.256V889.84H459.906z"/>
	<path fill="#17275B" d="M472.519,895.228c1.325,0,2.824,0.202,3.918,0.605v-0.95c0-2.104-1.325-3.371-3.686-3.371
		c-1.672,0-3.112,0.605-4.781,1.699l-1.067-2.131c1.987-1.325,3.976-1.987,6.193-1.987c4.032,0,6.509,2.219,6.509,6.136v5.616
		c0,0.721,0.23,1.009,0.835,1.037v2.534c-0.605,0.115-1.037,0.144-1.354,0.144c-1.354,0-2.017-0.778-2.131-1.642l-0.086-0.864
		c-1.325,1.699-3.514,2.65-5.587,2.65c-3.024,0-5.184-2.045-5.184-4.694C466.097,897.129,468.717,895.228,472.519,895.228z
		 M476.437,899.519v-1.728c-1.067-0.403-2.333-0.634-3.457-0.634c-2.304,0-3.888,1.009-3.888,2.592c0,1.325,1.067,2.622,3.082,2.622
		c1.354,0,2.708-0.605,3.515-1.44C476.149,900.47,476.437,899.892,476.437,899.519z"/>
	<path fill="#17275B" d="M486.631,883.389v16.676c0,1.555,0.52,1.786,1.211,1.786c0.749,0,1.469-0.174,1.958-0.404l0.461,2.507
		c-0.922,0.403-2.333,0.691-3.341,0.691c-2.16,0-3.456-1.268-3.456-3.427v-17.828L486.631,883.389L486.631,883.389z"/>
	<path fill="#17275B" d="M495.299,883.389v16.676c0,1.555,0.521,1.786,1.212,1.786c0.748,0,1.468-0.174,1.957-0.404l0.462,2.507
		c-0.922,0.403-2.334,0.691-3.342,0.691c-2.159,0-3.455-1.268-3.455-3.427v-17.828L495.299,883.389L495.299,883.389z"/>
</g>
<g>
	<path fill="#17275B" d="M786.199,738.157c-2.708,0-3.976,1.067-3.976,2.824c0,1.958,1.642,2.448,5.04,3.283
		c4.147,0.979,6.739,2.219,6.739,5.933c0,4.176-3.37,5.875-7.488,5.875c-3.11,0-6.106-0.979-8.438-2.765l1.469-2.766
		c0.979,1.008,3.918,2.622,7.027,2.622c2.534,0,3.976-0.923,3.976-2.622c0-2.075-2.102-2.678-5.617-3.572
		c-4.032-1.066-6.077-2.275-6.077-5.472c0-4.032,3.226-6.222,7.432-6.222c2.765,0,5.155,1.008,6.912,2.304l-1.469,2.65
		C790.98,739.395,788.647,738.157,786.199,738.157z"/>
	<path fill="#17275B" d="M796.654,740.808h3.168v8.582c0,2.678,0.979,4.061,2.88,4.061c1.786,0,3.542-1.152,4.435-3.254v-9.389
		h3.169v11.491c0,0.721,0.229,1.009,0.864,1.037v2.534c-0.662,0.115-1.037,0.144-1.411,0.144c-1.153,0-2.017-0.691-2.104-1.699
		l-0.058-1.498c-1.354,2.189-3.6,3.341-6.164,3.341c-3.139,0-4.78-2.102-4.78-6.134V740.808z"/>
	<path fill="#17275B" d="M817.505,762.006h-3.169v-21.198h2.794v2.707c1.152-1.786,3.053-2.968,5.328-2.968
		c4.12,0,7.115,3.601,7.115,7.777c0,4.349-2.766,7.834-6.682,7.834c-2.42,0-4.321-1.268-5.386-3.112L817.505,762.006
		L817.505,762.006z M821.622,743.256c-1.642,0-3.658,1.296-4.118,2.966v3.947c0.776,1.843,2.506,3.282,4.349,3.282
		c2.678,0,4.464-2.506,4.464-5.125C826.318,745.531,824.302,743.256,821.622,743.256z"/>
	<path fill="#17275B" d="M831.443,748.383c0-4.264,3.11-7.835,7.834-7.835c4.723,0,7.69,3.629,7.69,7.691
		c0,0.461-0.058,0.893-0.085,1.152h-12.07c0.202,2.65,2.219,4.435,4.552,4.435c1.699,0,3.37-0.923,3.946-2.304l2.707,0.776
		c-1.037,2.246-3.6,3.86-6.769,3.86C834.553,756.159,831.443,752.588,831.443,748.383z M843.827,747.288
		c-0.229-2.622-2.16-4.408-4.579-4.408c-2.39,0-4.349,1.816-4.522,4.408H843.827z"/>
	<path fill="#17275B" d="M852.726,746.654v9.217h-3.169v-15.064h2.938v3.37c1.037-2.074,2.824-3.398,4.724-3.514
		c0.374,0,0.605,0,0.806,0.028v2.852C855.577,743.601,853.532,744.725,852.726,746.654z"/>
	<path fill="#17275B" d="M877.926,741.296l-6.02,11.06h-1.901l-6.048-11.06v14.575h-3.226v-20.449h3.456l6.769,12.499l6.769-12.499
		h3.456v20.449h-3.254v-14.575H877.926z"/>
	<path fill="#17275B" d="M890.54,746.684c1.325,0,2.824,0.202,3.917,0.605v-0.95c0-2.104-1.325-3.371-3.686-3.371
		c-1.67,0-3.11,0.605-4.78,1.699l-1.067-2.131c1.987-1.325,3.976-1.987,6.192-1.987c4.032,0,6.51,2.219,6.51,6.136v5.616
		c0,0.721,0.23,1.009,0.835,1.037v2.534c-0.605,0.115-1.037,0.144-1.354,0.144c-1.354,0-2.017-0.778-2.131-1.642l-0.086-0.864
		c-1.325,1.699-3.514,2.65-5.587,2.65c-3.025,0-5.184-2.045-5.184-4.694C884.118,748.585,886.739,746.684,890.54,746.684z
		 M894.457,750.975v-1.728c-1.066-0.403-2.332-0.634-3.456-0.634c-2.304,0-3.888,1.009-3.888,2.592c0,1.325,1.066,2.622,3.082,2.622
		c1.354,0,2.707-0.605,3.514-1.44C894.171,751.926,894.457,751.349,894.457,750.975z"/>
	<path fill="#17275B" d="M904.622,746.654v9.217h-3.169v-15.064h2.938v3.37c1.037-2.074,2.824-3.398,4.724-3.514
		c0.376,0,0.605,0,0.806,0.028v2.852C907.474,743.601,905.429,744.725,904.622,746.654z"/>
	<path fill="#17275B" d="M917.872,748.931l-2.476,2.362v4.579h-3.169v-21.025h3.169v13.249l6.97-7.259h3.4l-5.848,6.308l6.164,8.726
		h-3.371L917.872,748.931z"/>
	<path fill="#17275B" d="M926.251,748.383c0-4.264,3.112-7.835,7.835-7.835c4.723,0,7.69,3.629,7.69,7.691
		c0,0.461-0.058,0.893-0.086,1.152h-12.068c0.202,2.65,2.218,4.435,4.55,4.435c1.699,0,3.371-0.923,3.946-2.304l2.708,0.776
		c-1.037,2.246-3.6,3.86-6.769,3.86C929.363,756.159,926.251,752.588,926.251,748.383z M938.637,747.288
		c-0.23-2.622-2.161-4.408-4.579-4.408c-2.39,0-4.349,1.816-4.523,4.408H938.637z"/>
	<path fill="#17275B" d="M948.658,756.102c-1.986,0-3.658-1.009-3.658-3.427v-9.419h-1.987v-2.448H945v-4.955h3.169v4.955h3.283
		v2.448h-3.283v8.411c0.058,1.066,0.749,1.525,1.613,1.525c0.893,0,1.786-0.403,2.16-0.605l0.664,2.506
		C951.797,755.468,950.272,756.102,948.658,756.102z"/>
</g>
<g>
	<path fill="#17275B" d="M332.595,59.376v17.598h-3.254V59.376h-6.827v-2.851h16.877v2.851H332.595z"/>
	<path fill="#17275B" d="M342.992,67.758v9.217h-3.169V61.91h2.938v3.371c1.037-2.075,2.824-3.4,4.724-3.514
		c0.374,0,0.605,0,0.806,0.029v2.851C345.843,64.704,343.798,65.828,342.992,67.758z"/>
	<path fill="#17275B" d="M355.894,67.787c1.325,0,2.824,0.202,3.918,0.605v-0.95c0-2.102-1.325-3.37-3.686-3.37
		c-1.672,0-3.112,0.605-4.781,1.699l-1.067-2.131c1.987-1.325,3.976-1.987,6.193-1.987c4.032,0,6.509,2.218,6.509,6.134v5.617
		c0,0.72,0.23,1.008,0.835,1.037v2.534c-0.605,0.115-1.037,0.144-1.354,0.144c-1.354,0-2.017-0.778-2.131-1.642l-0.086-0.864
		c-1.325,1.699-3.514,2.65-5.587,2.65c-3.024,0-5.184-2.046-5.184-4.696C349.471,69.687,352.093,67.787,355.894,67.787z
		 M359.811,72.078V70.35c-1.067-0.403-2.333-0.634-3.457-0.634c-2.304,0-3.888,1.008-3.888,2.592c0,1.325,1.067,2.621,3.082,2.621
		c1.354,0,2.708-0.605,3.515-1.44C359.523,73.028,359.811,72.452,359.811,72.078z"/>
	<path fill="#17275B" d="M364.763,61.91h3.282l4.292,12.126l4.291-12.126h3.053l-5.731,15.064h-3.456L364.763,61.91z"/>
	<path fill="#17275B" d="M380.459,69.486c0-4.262,3.11-7.834,7.834-7.834s7.69,3.629,7.69,7.691c0,0.461-0.058,0.893-0.086,1.152
		h-12.068c0.202,2.65,2.219,4.435,4.55,4.435c1.7,0,3.371-0.922,3.947-2.304l2.707,0.778c-1.037,2.246-3.6,3.859-6.769,3.859
		C383.57,77.263,380.459,73.691,380.459,69.486z M392.845,68.39c-0.23-2.621-2.16-4.406-4.579-4.406
		c-2.39,0-4.349,1.814-4.523,4.406H392.845z"/>
	<path fill="#17275B" d="M401.771,55.949v16.676c0,1.555,0.52,1.786,1.211,1.786c0.749,0,1.469-0.173,1.958-0.403l0.461,2.506
		c-0.922,0.403-2.333,0.691-3.341,0.691c-2.16,0-3.456-1.267-3.456-3.427V55.949H401.771z"/>
	<path fill="#17275B" d="M413.954,56.525h7.259c6.595,0,9.966,4.55,9.966,10.196c0,6.193-3.918,10.254-9.966,10.254h-7.259V56.525z
		 M417.179,59.376v14.747h4.032c4.321,0,6.682-3.198,6.682-7.403c0-4.291-2.448-7.344-6.682-7.344H417.179z"/>
	<path fill="#17275B" d="M433.192,69.486c0-4.262,3.11-7.834,7.834-7.834c4.723,0,7.69,3.629,7.69,7.691
		c0,0.461-0.058,0.893-0.086,1.152h-12.068c0.202,2.65,2.219,4.435,4.55,4.435c1.7,0,3.371-0.922,3.947-2.304l2.707,0.778
		c-1.037,2.246-3.6,3.859-6.769,3.859C436.303,77.263,433.192,73.691,433.192,69.486z M445.576,68.39
		c-0.23-2.621-2.16-4.406-4.579-4.406c-2.39,0-4.349,1.814-4.523,4.406H445.576z"/>
	<path fill="#17275B" d="M450.155,74.785l1.181-2.131c1.757,1.526,3.456,2.189,5.213,2.189c1.786,0,2.996-0.691,2.996-1.987
		c0-1.411-1.382-1.584-3.659-2.248c-3.226-0.979-4.896-1.872-4.896-4.32c0-2.909,2.419-4.637,5.933-4.637
		c2.189,0,4.09,0.662,5.501,2.074l-1.354,2.102c-1.325-1.21-2.707-1.786-4.321-1.786c-1.411,0-2.794,0.432-2.794,1.901
		c0,1.238,1.037,1.584,3.082,2.189c3.485,1.008,5.587,1.728,5.587,4.493c0,2.909-2.362,4.638-5.962,4.638
		C454.13,77.263,451.767,76.427,450.155,74.785z"/>
	<path fill="#17275B" d="M471.092,70.033l-2.476,2.362v4.579h-3.169V55.949h3.169v13.249l6.971-7.259h3.398l-5.846,6.308
		l6.163,8.726h-3.37L471.092,70.033z"/>
</g>
<g>
	<path fill="#17275B" d="M773.958,208.765h13.625v2.852h-10.398v6.106h8.699v2.678h-8.699v8.814h-3.226v-20.45H773.958z"/>
	<path fill="#17275B" d="M789.309,214.152h3.169v8.584c0,2.677,0.979,4.061,2.88,4.061c1.786,0,3.542-1.152,4.435-3.254v-9.39h3.168
		v11.492c0,0.721,0.23,1.008,0.865,1.037v2.534c-0.664,0.115-1.037,0.144-1.412,0.144c-1.152,0-2.016-0.691-2.102-1.699
		l-0.058-1.499c-1.354,2.189-3.6,3.342-6.164,3.342c-3.139,0-4.781-2.104-4.781-6.136V214.152z"/>
	<path fill="#17275B" d="M810.161,219.999v9.217h-3.169v-15.065h2.938v3.371c1.037-2.075,2.824-3.398,4.724-3.514
		c0.374,0,0.605,0,0.806,0.028v2.851C813.012,216.945,810.967,218.068,810.161,219.999z"/>
	<path fill="#17275B" d="M828.103,229.215v-8.44c0-2.822-0.923-4.061-2.678-4.061c-1.814,0-3.83,1.498-4.493,3.542v8.958h-3.169
		V214.15h2.88v3.025c1.152-2.016,3.485-3.283,6.134-3.283c3.6,0,4.493,2.824,4.493,6.134v9.188L828.103,229.215L828.103,229.215z"/>
	<path fill="#17275B" d="M834.955,208.19h3.169v3.485h-3.169V208.19z M834.955,214.152h3.169v15.065h-3.169V214.152z"/>
	<path fill="#17275B" d="M846.36,229.446c-1.987,0-3.658-1.008-3.658-3.426v-9.419h-1.987v-2.449h1.987v-4.954h3.168v4.954h3.283
		v2.449h-3.283v8.41c0.059,1.067,0.749,1.526,1.614,1.526c0.893,0,1.786-0.403,2.16-0.605l0.662,2.506
		C849.501,228.812,847.974,229.446,846.36,229.446z"/>
	<path fill="#17275B" d="M852.351,214.152h3.169v8.584c0,2.677,0.979,4.061,2.88,4.061c1.786,0,3.542-1.152,4.435-3.254v-9.39h3.168
		v11.492c0,0.721,0.23,1.008,0.865,1.037v2.534c-0.664,0.115-1.037,0.144-1.412,0.144c-1.152,0-2.016-0.691-2.102-1.699
		l-0.058-1.499c-1.354,2.189-3.6,3.342-6.164,3.342c-3.139,0-4.781-2.104-4.781-6.136V214.152z"/>
	<path fill="#17275B" d="M873.202,219.999v9.217h-3.169v-15.065h2.938v3.371c1.037-2.075,2.824-3.398,4.724-3.514
		c0.374,0,0.605,0,0.806,0.028v2.851C876.053,216.945,874.008,218.068,873.202,219.999z"/>
	<path fill="#17275B" d="M879.568,221.726c0-4.262,3.11-7.834,7.834-7.834c4.723,0,7.69,3.629,7.69,7.691
		c0,0.461-0.058,0.892-0.086,1.152h-12.068c0.202,2.65,2.219,4.435,4.55,4.435c1.7,0,3.371-0.923,3.947-2.305l2.707,0.778
		c-1.037,2.246-3.6,3.86-6.769,3.86C882.678,229.503,879.568,225.932,879.568,221.726z M891.952,220.632
		c-0.23-2.621-2.16-4.406-4.579-4.406c-2.39,0-4.349,1.814-4.523,4.406H891.952z"/>
	<path fill="#17275B" d="M911.765,211.501c-2.707,0-3.976,1.067-3.976,2.824c0,1.958,1.642,2.448,5.04,3.283
		c4.148,0.978,6.74,2.218,6.74,5.933c0,4.176-3.371,5.875-7.489,5.875c-3.11,0-6.106-0.979-8.438-2.766l1.47-2.765
		c0.978,1.008,3.917,2.621,7.027,2.621c2.533,0,3.974-0.922,3.974-2.621c0-2.075-2.102-2.678-5.616-3.572
		c-4.032-1.066-6.077-2.275-6.077-5.473c0-4.032,3.226-6.222,7.43-6.222c2.765,0,5.155,1.009,6.913,2.305l-1.47,2.65
		C916.547,212.74,914.213,211.501,911.765,211.501z"/>
	<path fill="#17275B" d="M926.511,229.446c-1.987,0-3.658-1.008-3.658-3.426v-9.419h-1.987v-2.449h1.987v-4.954h3.168v4.954h3.283
		v2.449h-3.283v8.41c0.059,1.067,0.749,1.526,1.614,1.526c0.893,0,1.786-0.403,2.16-0.605l0.662,2.506
		C929.651,228.812,928.125,229.446,926.511,229.446z"/>
	<path fill="#17275B" d="M939.211,213.892c4.694,0,7.748,3.629,7.748,7.806s-3.054,7.806-7.748,7.806
		c-4.724,0-7.748-3.629-7.748-7.806S934.546,213.892,939.211,213.892z M943.704,221.698c0-2.88-1.987-5.098-4.493-5.098
		c-2.477,0-4.493,2.246-4.493,5.125c0,2.91,1.987,5.07,4.493,5.07S943.704,224.578,943.704,221.698z"/>
	<path fill="#17275B" d="M952.95,219.999v9.217h-3.169v-15.065h2.938v3.371c1.037-2.075,2.824-3.398,4.724-3.514
		c0.374,0,0.605,0,0.806,0.028v2.851C955.801,216.945,953.755,218.068,952.95,219.999z"/>
	<path fill="#17275B" d="M959.314,221.726c0-4.262,3.11-7.834,7.834-7.834c4.723,0,7.69,3.629,7.69,7.691
		c0,0.461-0.058,0.892-0.086,1.152h-12.068c0.202,2.65,2.219,4.435,4.55,4.435c1.7,0,3.371-0.923,3.947-2.305l2.707,0.778
		c-1.037,2.246-3.6,3.86-6.769,3.86C962.424,229.503,959.314,225.932,959.314,221.726z M971.699,220.632
		c-0.23-2.621-2.16-4.406-4.579-4.406c-2.39,0-4.349,1.814-4.523,4.406H971.699z"/>
</g>
<circle fill="none" stroke="#FCBB3B" stroke-width="3" stroke-miterlimit="10" cx="404.589" cy="154.425" r="53.766"/>
<circle fill="none" stroke="#FCBB3B" stroke-width="3" stroke-miterlimit="10" cx="690.589" cy="226.425" r="53.767"/>
<circle fill="none" stroke="#FCBB3B" stroke-width="3" stroke-miterlimit="10" cx="810.589" cy="485.425" r="53.767"/>
<circle fill="none" stroke="#FCBB3B" stroke-width="3" stroke-miterlimit="10" cx="689.589" cy="748.426" r="53.767"/>
<circle fill="none" stroke="#FCBB3B" stroke-width="3" stroke-miterlimit="10" cx="404.589" cy="812.426" r="53.767"/>
<circle fill="none" stroke="#FCBB3B" stroke-width="3" stroke-miterlimit="10" cx="176.589" cy="633.426" r="53.767"/>
<path fill="none" stroke="#4F7AC8" stroke-width="3" stroke-miterlimit="10" d="M404.589,731.775c44.542,0,80.65,36.107,80.65,80.65
	c0,0.798-0.037,1.586-0.061,2.379c47.215-0.765,92.014-11.441,132.412-30.051c-5.521-10.921-8.651-23.256-8.651-36.328
	c0-44.543,36.108-80.65,80.649-80.65c19.561,0,37.491,6.967,51.455,18.549c27.271-35.343,47.529-76.365,58.697-120.997
	c-39.407-5.301-69.802-39.041-69.802-79.902c0-40.929,30.498-74.714,70.003-79.928c-10.767-43.507-30.151-83.613-56.265-118.387
	c-14.188,12.421-32.752,19.964-53.089,19.964c-44.541,0-80.649-36.107-80.649-80.649c0-14.492,3.842-28.08,10.534-39.833
	c-41.135-19.434-86.93-30.608-135.255-31.396c-0.416,44.185-36.347,79.878-80.63,79.878c-31.801,0-59.293-18.413-72.424-45.153
	c-40.571,20.33-76.363,48.775-105.253,83.214c20.188,14.658,33.328,38.434,33.328,65.291c0,44.54-36.108,80.648-80.65,80.648
	c-7.794,0-15.32-1.127-22.449-3.19c-4.753,22.291-7.275,45.408-7.275,69.116c0,24.058,2.6,47.506,7.49,70.101
	c6.166-1.509,12.604-2.326,19.234-2.326c44.542,0,80.65,36.107,80.65,80.65c0,25.603-11.945,48.401-30.55,63.176
	c28.647,34.222,64.1,62.545,104.286,82.886C343.576,751.372,371.785,731.775,404.589,731.775z"/>
<circle fill="none" stroke="#FCBB3B" stroke-width="3" stroke-miterlimit="10" cx="179.589" cy="338.426" r="53.767"/>
</svg>
