<?xml version="1.0" encoding="utf-8"?>
<!-- Generator: Adobe Illustrator 17.0.0, SVG Export Plug-In . SVG Version: 6.00 Build 0)  -->
<!DOCTYPE svg PUBLIC "-//W3C//DTD SVG 1.1//EN" "http://www.w3.org/Graphics/SVG/1.1/DTD/svg11.dtd">
<svg version="1.1" id="Layer_1" xmlns="http://www.w3.org/2000/svg" xmlns:xlink="http://www.w3.org/1999/xlink" x="0px" y="0px"
	 width="1190.55px" height="841.89px" viewBox="0 0 1190.55 841.89" enable-background="new 0 0 1190.55 841.89"
	 xml:space="preserve">
<g>
	<g>
		<path fill="#08152A" d="M965.397,45.937H225.154c-28.024,0-50.824,22.8-50.824,50.824v511.086c0,28.024,22.8,50.824,50.824,50.824
			h253.653v36.981c0,33.901-27.582,61.483-61.483,61.483h-55.902c-10.718,0-19.408,8.689-19.408,19.408s8.69,19.408,19.408,19.408
			h467.704c10.718,0,19.408-8.689,19.408-19.408s-8.69-19.408-19.408-19.408h-55.904c-33.901,0-61.483-27.582-61.483-61.483v-36.979
			h253.653c28.024,0,50.826-22.8,50.826-50.824V96.762C1016.222,68.737,993.422,45.937,965.397,45.937z M496.485,757.138
			c13.23-16.996,21.141-38.326,21.141-61.483v-36.981h155.301v36.981c0,23.157,7.911,44.489,21.141,61.483L496.485,757.138
			L496.485,757.138z M977.406,607.849c0,6.622-5.387,12.01-12.01,12.01H225.154c-6.622,0-12.01-5.387-12.01-12.01V505.847h764.262
			V607.849z M977.406,467.03h-764.26V96.762c0-6.622,5.387-12.01,12.01-12.01h740.24c6.622,0,12.012,5.387,12.012,12.01V467.03
			H977.406z"/>
	</g>
</g>
<g>
	<g>
		<circle fill="#08152A" cx="595.281" cy="562.859" r="20.945"/>
	</g>
</g>
<g>
	<g>
		<path fill="#08152A" d="M628.554,179.648c-7.58-7.579-19.865-7.579-27.449,0l-137.159,137.16c-7.579,7.579-7.579,19.868,0,27.449
			c3.792,3.79,8.756,5.684,13.725,5.684s9.933-1.894,13.723-5.684l137.159-137.159C636.132,199.518,636.132,187.229,628.554,179.648
			z"/>
	</g>
</g>
<g>
	<g>
		<path fill="#08152A" d="M709.849,259.133c-7.577-7.579-19.862-7.579-27.447-0.002l-54.641,54.637
			c-7.579,7.58-7.579,19.87,0,27.449c3.79,3.79,8.756,5.684,13.724,5.684c4.966,0,9.933-1.894,13.724-5.684l54.641-54.637
			C717.427,279.002,717.427,266.712,709.849,259.133z"/>
	</g>
</g>
</svg>
