<?xml version="1.0" encoding="utf-8"?>
<!-- Generator: Adobe Illustrator 17.0.0, SVG Export Plug-In . SVG Version: 6.00 Build 0)  -->
<!DOCTYPE svg PUBLIC "-//W3C//DTD SVG 1.1//EN" "http://www.w3.org/Graphics/SVG/1.1/DTD/svg11.dtd">
<svg version="1.1" id="Capa_1" xmlns="http://www.w3.org/2000/svg" xmlns:xlink="http://www.w3.org/1999/xlink" x="0px" y="0px"
	 width="1190.55px" height="841.89px" viewBox="0 0 1190.55 841.89" enable-background="new 0 0 1190.55 841.89"
	 xml:space="preserve">
<path fill="#FFD204" d="M862.619,553.631c-20.572,0-40.115,8.057-54.857,22.629c-14.743,14.743-22.972,33.943-22.972,54.515
	s8.057,39.772,22.972,54.515c14.914,14.572,34.286,22.629,54.857,22.629c42.172,0,76.458-34.629,76.458-77.143
	S904.791,553.631,862.619,553.631z M862.619,673.632c-23.657,0-43.543-19.543-43.543-42.857s19.886-42.857,43.543-42.857
	c23.314,0,42.172,19.2,42.172,42.857S885.934,673.632,862.619,673.632z M882.505,296.659c-3.086-2.914-7.2-4.457-11.486-4.457
	h-87.943c-9.429,0-17.143,7.714-17.143,17.143v140.572c0,9.429,7.714,17.143,17.143,17.143H922.62
	c9.429,0,17.143-7.714,17.143-17.143v-94.115c0-4.8-2.057-9.429-5.657-12.686L882.505,296.659z M905.477,432.774H800.219V326.316
	h64.115l41.143,37.029V432.774z M443.989,553.631c-20.572,0-40.114,8.057-54.857,22.629c-14.743,14.743-22.972,33.943-22.972,54.515
	s8.057,39.772,22.972,54.515c14.914,14.572,34.286,22.629,54.857,22.629c42.172,0,76.458-34.629,76.458-77.143
	S486.16,553.631,443.989,553.631z M443.989,673.632c-23.657,0-43.543-19.543-43.543-42.857s19.886-42.857,43.543-42.857
	c23.314,0,42.172,19.2,42.172,42.857S467.303,673.632,443.989,673.632z M329.645,574.717h-34.457v-45.6
	c0-9.429-7.714-17.143-17.143-17.143s-17.143,7.714-17.143,17.143v62.743c0,9.429,7.714,17.143,17.143,17.143h51.6
	c9.429,0,17.143-7.714,17.143-17.143C346.788,582.432,339.074,574.717,329.645,574.717z M416.56,481.288
	c0-9.429-7.714-17.143-17.143-17.143H191.473c-9.429,0-17.143,7.714-17.143,17.143c0,9.429,7.714,17.143,17.143,17.143h207.944
	C408.845,498.431,416.56,490.888,416.56,481.288z M226.273,419.402l207.944,1.2c9.429,0,17.143-7.543,17.314-16.972
	c0.171-9.6-7.543-17.314-16.971-17.314l-207.944-1.2c-0.171,0-0.171,0-0.171,0c-9.429,0-17.143,7.543-17.143,16.972
	C209.13,411.688,216.845,419.402,226.273,419.402z M261.245,341.573h207.944c9.429,0,17.143-7.714,17.143-17.143
	c0-9.429-7.714-17.143-17.143-17.143H261.245c-9.429,0-17.143,7.714-17.143,17.143C244.102,333.859,251.816,341.573,261.245,341.573
	z M1009.877,318.43L1009.877,318.43L887.134,216.773c-3.086-2.571-6.857-3.943-10.971-3.943H731.819v-61.715
	c0-9.429-7.714-17.143-17.143-17.143H278.045c-9.429,0-17.143,7.714-17.143,17.143v125.486c0,9.429,7.714,17.143,17.143,17.143
	s17.143-7.714,17.143-17.143V168.258h402.516v406.459H557.132c-9.429,0-17.143,7.714-17.143,17.143s7.714,17.143,17.143,17.143
	h209.315c9.429,0,17.143-7.714,17.143-17.143s-7.714-17.143-17.143-17.143H731.99V247.116h138.172l111.772,92.572l-1.2,234.687
	h-17.829c-9.429,0-17.143,7.714-17.143,17.143s7.714,17.143,17.143,17.143h34.8c9.429,0,17.143-7.543,17.143-16.972l1.371-259.887
	C1016.049,326.659,1013.82,321.687,1009.877,318.43z"/>
</svg>
