<?xml version="1.0" encoding="utf-8"?>
<!-- Generator: Adobe Illustrator 17.0.0, SVG Export Plug-In . SVG Version: 6.00 Build 0)  -->
<!DOCTYPE svg PUBLIC "-//W3C//DTD SVG 1.1//EN" "http://www.w3.org/Graphics/SVG/1.1/DTD/svg11.dtd">
<svg version="1.1" id="Layer_1" xmlns="http://www.w3.org/2000/svg" xmlns:xlink="http://www.w3.org/1999/xlink" x="0px" y="0px"
	 width="246.5px" height="103.932px" viewBox="0 0 246.5 103.932" enable-background="new 0 0 246.5 103.932" xml:space="preserve">
<g id="XMLID_7_">
	<g id="XMLID_8_">
		<path id="XMLID_13_" fill="#FFFFFF" d="M226.211,86.44c4.598-4.78,7.971-10.498,10.111-17.161
			c2.13-6.644,2.942-13.021,2.421-19.109c-0.936-8.81-3.524-16.387-7.767-22.751c-4.238-6.36-9.661-11.099-16.251-14.21
			c-6.614-3.101-13.797-4.424-21.575-3.954c-9.566,0.807-17.751,3.398-24.585,7.792c-6.828,4.393-11.914,10.013-15.248,16.87
			c-1.252,2.559-2.242,5.203-2.959,7.917c-0.847-0.578-1.709-1.125-2.676-1.603c-3.441-1.691-7.353-2.531-11.758-2.531
			c-7.284,0.232-12.717,2.541-16.272,6.926v-7.211h-0.288c-2.017,0.826-3.743,1.338-5.182,1.547
			c-1.429,0.194-3.523,0.303-6.282,0.303H92.646v0.516c1.551,1.458,2.701,2.878,3.437,4.246c0.746,1.366,1.117,3.257,1.117,5.646
			v35.508c0,4.105-0.246,6.952-0.738,8.566c-0.484,1.621-1.755,3.336-3.816,5.131c-1.852-1.462-3.068-2.992-3.658-4.587
			c-0.607-1.584-0.895-3.811-0.895-6.661V37.415h-0.546c-1.38,0.805-2.807,1.316-4.284,1.517c-1.011,0.152-2.371,0.245-4.01,0.289
			c1.012-0.27,1.987-0.687,2.918-1.244c1.869-1.108,3.359-2.617,4.484-4.528c1.13-1.912,1.694-4.008,1.694-6.301
			c0-2.292-0.558-4.383-1.669-6.302c-1.117-1.91-2.632-3.422-4.527-4.545c-1.905-1.125-3.917-1.684-6.071-1.684
			c-3.483,0-6.439,1.222-8.857,3.671c-2.441,2.451-3.658,5.403-3.658,8.859c0,3.458,1.222,6.406,3.664,8.844
			c1.692,1.685,3.637,2.748,5.816,3.273H61.084v0.503c1.526,1.381,2.632,2.824,3.285,4.314c0.683,1.499,1.011,3.625,1.011,6.383
			V82.61c-2.495,1.663-8.66,4.265-22.838,4.265c-5.688,0-9.946-0.748-12.797-2.232V26.459c0-6.269,1.784-10.486,5.346-12.645v-0.253
			H0v0.253c3.73,2.104,5.613,6.105,5.613,12.005V83.08c0,4.524-0.312,7.899-0.906,10.123C4.109,95.411,2.551,97.389,0,99.134v0.253
			c0,0,41.401,0,47.996,0c6.115,0,14.818-3.037,17.245-9.19c-0.118,1.384-0.308,2.602-0.607,3.603
			c-0.491,1.692-1.768,3.378-3.799,5.078v0.51h31.812h31.549v-0.51c-1.968-1.63-3.217-3.297-3.757-5.002
			c-0.527-1.695-0.786-4.023-0.786-6.994V60.407c0-3.041,0.769-5.359,2.32-6.974c1.545-1.608,3.465-2.423,5.757-2.423
			c1.395,0,2.724,0.389,3.972,1.173c1.249,0.792,2.265,1.936,3.043,3.422c0.794,1.5,1.181,3.283,1.181,5.333v24.891
			c0,3.797-0.257,6.538-0.771,8.219c-0.528,1.665-1.838,3.278-3.932,4.83v0.51h31.998V98.91c-0.05-0.062-0.118-0.116-0.168-0.183
			c-1.383-1.108-2.377-2.189-3.016-3.266c-0.156-0.259-0.254-0.535-0.387-0.81c-1.408-1.934-2.718-3.988-3.854-6.21
			c-3.664-7.135-5.507-14.972-5.539-23.506c0.006-0.137,0.02-0.278,0.032-0.413c1.253,5.251,3.259,10.143,6.061,14.652
			c4.227,6.811,9.746,12.012,16.536,15.6c6.798,3.599,14.205,5.057,22.22,4.377c0.949-0.081,2.316-0.306,4.109-0.672
			c1.794-0.365,3.347-0.641,4.646-0.837c1.954,1.414,30.388,15.309,42.639-3.39C242.921,94.279,232.543,95.35,226.211,86.44z
			 M212.047,77.282c-2.494,5.105-6.816,7.915-13.004,8.437c-4.739,0.404-8.848-0.871-12.355-3.798
			c-3.496-2.926-6.302-6.813-8.406-11.637c-2.11-4.824-3.661-10.14-4.636-15.938c-0.156-0.854-0.318-2.24-0.475-4.14
			c-0.384-4.467-0.153-8.651,0.689-12.584c0.839-3.928,2.453-7.227,4.838-9.885c2.383-2.674,5.605-4.338,9.66-4.973
			c4.328-0.372,8.083,0.344,11.316,2.163c3.217,1.797,5.947,4.693,8.19,8.69c2.24,3.994,4.128,9.129,5.637,15.416
			c0.722,4.205,1.155,7.3,1.329,9.321C215.47,65.871,214.537,72.191,212.047,77.282z"/>
		<g id="XMLID_9_">
			<g id="XMLID_10_">
				<path id="XMLID_11_" fill="#FFFFFF" d="M246.499,47.547V9.67c0-5.338-4.328-9.67-9.667-9.67h-37.877
					C222.911,4.732,241.771,23.596,246.499,47.547z"/>
			</g>
		</g>
	</g>
</g>
</svg>
