<?xml version="1.0" encoding="utf-8"?>
<!-- Generator: Adobe Illustrator 16.0.0, SVG Export Plug-In . SVG Version: 6.00 Build 0)  -->
<!DOCTYPE svg PUBLIC "-//W3C//DTD SVG 1.1//EN" "http://www.w3.org/Graphics/SVG/1.1/DTD/svg11.dtd">
<svg version="1.1" id="Layer_1" xmlns="http://www.w3.org/2000/svg" xmlns:xlink="http://www.w3.org/1999/xlink" x="0px" y="0px"
	 width="100px" height="100px" viewBox="0 0 100 100" enable-background="new 0 0 100 100" xml:space="preserve">
<g>
	<path fill="#FF9C00" d="M59.558,70.468C67.28,66.876,72.659,59.063,72.659,50c0-3.282-0.768-6.541-2.156-9.52
		c1.351-1.861,2.156-4.141,2.156-6.609c0-5.973-4.666-10.865-10.541-11.254c1.563-2.314,2.477-5.103,2.477-8.102
		C64.595,6.512,58.084,0,50.079,0S35.563,6.512,35.563,14.516c0,2.982,0.906,5.757,2.455,8.064h-0.58
		c-2.355,0-4.438-1.501-5.184-3.734l-0.367-1.104h-4.389v16.129c0,2.469,0.807,4.748,2.156,6.609
		c-1.389,2.979-2.156,6.237-2.156,9.52c0,9.063,5.379,16.876,13.102,20.468c-12.193,3.44-21.166,14.64-21.166,27.919V100h61.29
		v-1.613C80.724,85.107,71.751,73.908,59.558,70.468z M61.777,74.651c1.99,0.851,3.854,1.938,5.552,3.234l-6.086,10.953
		l-1.701-2.552l-2.721-5.44L61.777,74.651z M54.144,79.032h-8.129l-4.405-5.507c2.188-0.604,4.48-0.945,6.857-0.945h3.226
		c2.375,0,4.669,0.342,6.854,0.945L54.144,79.032z M50.079,3.226c6.225,0,11.291,5.066,11.291,11.29
		c0,6.225-5.066,11.291-11.291,11.291c-6.224,0-11.29-5.066-11.29-11.291C38.789,8.292,43.855,3.226,50.079,3.226z M30.725,22.637
		c1.615,1.969,4.057,3.17,6.713,3.17h3.537c2.492,2.013,5.658,3.226,9.104,3.226c3.447,0,6.611-1.213,9.105-3.226h2.186
		c4.446,0,8.064,3.617,8.064,8.064s-3.618,8.064-8.064,8.064H38.789c-4.447,0-8.064-3.617-8.064-8.064V22.637z M30.725,50
		c0-2.453,0.463-4.82,1.354-7.07c1.878,1.395,4.195,2.231,6.71,2.231H61.37c2.514,0,4.832-0.837,6.709-2.231
		c0.893,2.25,1.355,4.617,1.355,7.07c0,10.672-8.684,19.355-19.355,19.355C39.406,69.355,30.725,60.672,30.725,50z M38.381,74.653
		l4.956,6.195l-2.721,5.438l-1.702,2.553l-6.085-10.953C34.525,76.589,36.391,75.502,38.381,74.653z M42.305,96.774H22.71
		c0.405-6.526,3.259-12.389,7.636-16.716l8.315,14.971l3.603-5.402l1.224,1.225L42.305,96.774z M54.563,96.774h-8.968l1.396-6.982
		l-3.015-3.013l2.26-4.521h7.684l2.26,4.521l-3.015,3.013L54.563,96.774z M57.854,96.775L57.854,96.775l-1.185-5.922l1.225-1.225
		l3.602,5.402l8.316-14.972c4.375,4.327,7.232,10.19,7.635,16.716H57.854z"/>
	<polygon fill="#FF9C00" points="79.198,46.774 81.349,40.322 93.628,40.322 93.628,37.097 82.425,37.097 83.866,32.768 
		80.808,31.748 75.798,46.774 80.808,61.8 83.866,60.781 82.425,56.451 100.079,56.451 100.079,53.226 81.349,53.226 	"/>
	<polygon fill="#FF9C00" points="19.35,31.748 16.292,32.768 17.734,37.097 0.079,37.097 0.079,40.322 18.81,40.322 20.96,46.774 
		18.81,53.226 0.079,53.226 0.079,56.451 17.734,56.451 16.292,60.781 19.35,61.8 24.359,46.774 	"/>
	<rect x="96.854" y="37.097" fill="#FF9C00" width="3.226" height="3.226"/>
	<polygon fill="#FF9C00" points="47.45,20.968 59.192,10.901 57.095,8.453 46.256,17.742 46.104,17.742 43.356,13.621 
		40.673,15.411 44.377,20.968 	"/>
	<rect x="83.95" y="45.161" fill="#FF9C00" width="3.226" height="3.226"/>
	<rect x="90.401" y="45.161" fill="#FF9C00" width="3.227" height="3.226"/>
	<rect x="12.982" y="45.161" fill="#FF9C00" width="3.226" height="3.226"/>
	<rect x="6.531" y="45.161" fill="#FF9C00" width="3.225" height="3.226"/>
</g>
</svg>
