<?xml version="1.0" encoding="utf-8"?>
<!-- Generator: Adobe Illustrator 16.0.0, SVG Export Plug-In . SVG Version: 6.00 Build 0)  -->
<!DOCTYPE svg PUBLIC "-//W3C//DTD SVG 1.1//EN" "http://www.w3.org/Graphics/SVG/1.1/DTD/svg11.dtd">
<svg version="1.1" id="Layer_1" xmlns="http://www.w3.org/2000/svg" xmlns:xlink="http://www.w3.org/1999/xlink" x="0px" y="0px"
	 width="100px" height="100px" viewBox="0 0 100 100" enable-background="new 0 0 100 100" xml:space="preserve">
<g>
	<g>
		<path fill="#121C26" d="M56.264,84.447H45.306l0,0l-3.122-12.488H19.498l-3.122,12.488H3.889L0,100h60.152L56.264,84.447z
			 M21.891,75.023h17.9l2.355,9.424H19.535L21.891,75.023z M3.926,96.936l2.355-9.424h17.9l2.355,9.424H3.926z M30.076,98.456
			L27.34,87.512h5.472L30.076,98.456z M33.615,96.936l2.355-9.424h17.9l2.355,9.424H33.615z"/>
	</g>
</g>
<g>
	<g>
		<polygon fill="#121C26" points="96.936,12.293 96.936,96.876 61.182,96.876 61.182,99.94 100,99.94 100,12.293 		"/>
	</g>
</g>
<g>
	<g>
		<polygon fill="#121C26" points="77.935,13.519 77.935,16.583 80.119,16.583 65.963,30.739 62.061,26.837 36.781,52.115 
			38.949,54.282 62.061,31.171 65.963,35.073 82.43,18.607 82.43,21.078 85.494,21.078 85.494,13.519 		"/>
	</g>
</g>
<g>
	<g>
		<rect x="8.266" y="89.13" width="6.129" height="3.064"/>
	</g>
</g>
<g>
	<g>
		<rect x="17.664" y="90.133" width="3.064" height="3.064"/>
	</g>
</g>
<g>
	<g>
		<rect x="37.891" y="90.133" width="6.129" height="3.064"/>
	</g>
</g>
<g>
	<g>
		<rect x="47.289" y="90.133" width="3.064" height="3.064"/>
	</g>
</g>
<g>
	<g>
		<rect x="23.794" y="77.67" fill="#121C26" width="6.333" height="3.065"/>
	</g>
</g>
<g>
	<g>
		<rect x="33.191" y="77.67" fill="#121C26" width="3.064" height="3.065"/>
	</g>
</g>
<g>
	<g>
		<path fill="#121C26" d="M81.408,32.315v63.744h3.064V58.875h6.334v37.184h3.064V32.315H81.408z M90.807,55.81h-6.334v-20.43h6.334
			V55.81L90.807,55.81z"/>
	</g>
</g>
<g>
	<g>
		<path fill="#121C26" d="M65.881,41.713v54.346h3.064V54.176h6.129v41.883h3.064V41.713H65.881z M75.074,51.111h-6.129v-6.334
			h6.129V51.111L75.074,51.111z"/>
	</g>
</g>
<g>
	<g>
		<path fill="#121C26" d="M50.148,52.745v30.851h3.065V60.305h6.333v35.754h3.064V52.745H50.148z M59.547,57.24h-6.334v-1.43h6.334
			V57.24z"/>
	</g>
</g>
<g>
	<g>
		<path fill="#121C26" d="M34.621,60.51v10.623h3.064v-1.43h6.334v8.377h3.064V60.51H34.621z M44.02,66.639h-6.334v-3.064h6.334
			V66.639z"/>
	</g>
</g>
</svg>
