<?xml version="1.0" encoding="utf-8"?>
<!-- Generator: Adobe Illustrator 16.0.0, SVG Export Plug-In . SVG Version: 6.00 Build 0)  -->
<!DOCTYPE svg PUBLIC "-//W3C//DTD SVG 1.1//EN" "http://www.w3.org/Graphics/SVG/1.1/DTD/svg11.dtd">
<svg version="1.1" id="Layer_1" xmlns="http://www.w3.org/2000/svg" xmlns:xlink="http://www.w3.org/1999/xlink" x="0px" y="0px"
	 width="100px" height="100px" viewBox="0 0 100 100" enable-background="new 0 0 100 100" xml:space="preserve">
<rect id="SVGCleanerId_0" x="15.048" y="41.716" fill="#121C26" width="3.121" height="3.121"/>
<rect id="SVGCleanerId_1" x="24.574" y="41.716" fill="#121C26" width="3.121" height="3.121"/>
<rect id="SVGCleanerId_2" x="34.116" y="41.716" fill="#121C26" width="3.121" height="3.121"/>
<rect id="SVGCleanerId_3" x="43.644" y="41.716" fill="#121C26" width="3.12" height="3.121"/>
<rect id="SVGCleanerId_4" x="53.333" y="41.716" fill="#121C26" width="3.121" height="3.121"/>
<rect id="SVGCleanerId_5" x="62.858" y="41.716" fill="#121C26" width="3.121" height="3.121"/>
<rect id="SVGCleanerId_6" x="72.385" y="41.716" fill="#121C26" width="3.12" height="3.121"/>
<rect id="SVGCleanerId_7" x="81.927" y="41.716" fill="#121C26" width="3.121" height="3.121"/>
<g>
	<rect x="54.427" y="74.837" fill="#121C26" width="3.121" height="5.931"/>
	<rect x="42.548" y="74.837" fill="#121C26" width="3.121" height="5.931"/>
</g>
<g>
	<rect id="SVGCleanerId_0_2_" x="15.048" y="41.716" fill="#121C26" width="3.121" height="3.121"/>
</g>
<g>
	<rect id="SVGCleanerId_1_1_" x="24.574" y="41.716" fill="#121C26" width="3.121" height="3.121"/>
</g>
<g>
	<rect id="SVGCleanerId_2_1_" x="34.116" y="41.716" fill="#121C26" width="3.121" height="3.121"/>
</g>
<g>
	<rect id="SVGCleanerId_3_1_" x="43.644" y="41.716" fill="#121C26" width="3.12" height="3.121"/>
</g>
<g>
	<rect id="SVGCleanerId_4_1_" x="53.333" y="41.716" fill="#121C26" width="3.121" height="3.121"/>
</g>
<g>
	<rect id="SVGCleanerId_5_1_" x="62.858" y="41.716" fill="#121C26" width="3.121" height="3.121"/>
</g>
<g>
	<rect id="SVGCleanerId_6_1_" x="72.385" y="41.716" fill="#121C26" width="3.12" height="3.121"/>
</g>
<g>
	<rect id="SVGCleanerId_7_1_" x="81.927" y="41.716" fill="#121C26" width="3.121" height="3.121"/>
</g>
<path fill="#121C26" d="M99.574,18.431L92.237,0H7.858L0.522,18.431c-1.879,8.285,4.068,12.026,5.311,12.811v65.622H3.169V100
	h93.758v-3.121h-2.663V31.258c1.259-0.784,2.501-1.716,3.432-2.974C99.885,25.474,100.522,21.879,99.574,18.431z M66.144,96.879
	H51.616V58.595h14.527V96.879z M48.479,96.879H33.954V58.595h14.525V96.879z M91.144,96.879h-21.88V55.475H30.833v41.404H8.954V32.5
	c0.783,0.164,7.5,1.569,11.879-5.474c2.336,3.905,5.783,5.621,10,5.621c4.068,0,7.663-2.189,9.525-5.474
	c2.5,3.595,5.621,5.621,9.526,5.474c0,0,5.001,0.311,8.432-3.432c0.621-0.621,1.095-1.242,1.569-2.026
	c3.758,6.095,9.836,5.474,9.836,5.474c3.284,0,6.258-1.406,8.432-3.906c0.474-0.621,0.932-1.095,1.242-1.715
	c4.215,7.026,11.094,5.621,11.879,5.474v64.379h-0.131V96.879L91.144,96.879z M95.212,26.405c-1.568,2.026-3.759,3.121-6.259,3.121
	c-3.905,0-7.189-2.811-7.811-6.879L77.548,7.026l0,0h-2.025h-1.096v0.31l0,0l3.121,14.216c0,1.879-0.621,3.742-1.879,5.311
	c-1.568,1.715-3.758,2.81-6.095,2.81c0,0-7.337,0.311-8.284-7.663L60.195,7.173l0,0h-3.121l0,0l1.095,14.216
	c-0.164,7.189-8.121,11.405-14.068,5.784c-1.568-1.568-2.337-3.595-2.189-5.784l1.094-14.216l0,0h-3.121l0,0L38.79,21.389
	c-2.5,5-5.164,8.121-7.975,8.432c0,0-7.663,0.31-8.283-7.974L25.815,7.32l0,0h-3.12l0,0l-3.432,15.784
	c-0.62,3.905-3.905,6.716-7.81,6.716c-2.5,0-4.838-1.095-6.259-3.121c-1.569-2.026-2.026-4.526-1.405-7.026l6.258-16.569h80.164
	l6.568,16.242C97.237,21.879,96.765,24.379,95.212,26.405z"/>
</svg>
