<?xml version="1.0" encoding="utf-8"?>
<!-- Generator: Adobe Illustrator 16.0.0, SVG Export Plug-In . SVG Version: 6.00 Build 0)  -->
<!DOCTYPE svg PUBLIC "-//W3C//DTD SVG 1.1//EN" "http://www.w3.org/Graphics/SVG/1.1/DTD/svg11.dtd">
<svg version="1.1" id="Layer_1" xmlns="http://www.w3.org/2000/svg" xmlns:xlink="http://www.w3.org/1999/xlink" x="0px" y="0px"
	 width="100px" height="100px" viewBox="0 0 100 100" enable-background="new 0 0 100 100" xml:space="preserve">
<g>
	<g>
		<g>
			<path fill="#121C26" d="M54.297,73.955h-9.581c-4.403,0-7.985,3.582-7.985,7.984v9.582c0,4.402,3.582,7.984,7.985,7.984h9.581
				c4.403,0,7.985-3.582,7.985-7.984v-9.582C62.282,77.537,58.7,73.955,54.297,73.955z M59.088,91.521
				c0,2.642-2.148,4.791-4.791,4.791h-9.581c-2.642,0-4.791-2.149-4.791-4.791v-9.582c0-2.641,2.149-4.791,4.791-4.791h9.581
				c2.643,0,4.791,2.15,4.791,4.791V91.521z"/>
			<path fill="#121C26" d="M49.506,26.045c7.044,0,12.776-5.732,12.776-12.776c0-7.044-5.731-12.776-12.776-12.776
				c-7.044,0-12.776,5.731-12.776,12.776C36.73,20.313,42.462,26.045,49.506,26.045z M49.506,3.688c5.285,0,9.582,4.297,9.582,9.582
				c0,5.284-4.297,9.582-9.582,9.582c-5.284,0-9.582-4.297-9.582-9.582C39.925,7.985,44.222,3.688,49.506,3.688z"/>
			<path fill="#121C26" d="M25.552,37.224H0v25.551h25.552V37.224z M22.358,59.582H3.194V40.418h19.164V59.582z"/>
			<path fill="#121C26" d="M100,62.775L86.237,35.25L72.475,62.775H100z M94.832,59.582H77.643l8.595-17.19L94.832,59.582z"/>
			<path fill="#121C26" d="M82.395,33.647l2.86-1.426c-4.081-8.188-10.913-14.783-19.239-18.57l-1.322,2.907
				C72.354,20.042,78.641,26.112,82.395,33.647z"/>
			<path fill="#121C26" d="M34.319,16.559l-1.322-2.906c-8.749,3.978-15.772,10.979-19.784,19.713l2.903,1.332
				C19.806,26.662,26.271,20.221,34.319,16.559z"/>
			<path fill="#121C26" d="M64.811,83.389l1.332,2.902c8.686-3.988,15.668-10.969,19.657-19.656l-2.903-1.332
				C79.225,73.297,72.803,79.719,64.811,83.389z"/>
			<path fill="#121C26" d="M16.118,65.304l-2.903,1.332c3.989,8.687,10.97,15.668,19.658,19.657l1.332-2.903
				C26.21,79.719,19.788,73.297,16.118,65.304z"/>
			<path fill="#121C26" d="M49.506,43.612c-3.523,0-6.388,2.865-6.388,6.388c0,3.523,2.865,6.388,6.388,6.388
				s6.388-2.864,6.388-6.388C55.895,46.477,53.029,43.612,49.506,43.612z M49.506,53.193c-1.761,0-3.194-1.432-3.194-3.193
				s1.433-3.194,3.194-3.194s3.195,1.432,3.195,3.194S51.268,53.193,49.506,53.193z"/>
			<path fill="#121C26" d="M67.073,51.598v-3.195h-3.288c-0.309-2.768-1.405-5.295-3.06-7.364l2.331-2.332l-2.258-2.258
				l-2.332,2.332c-2.068-1.654-4.596-2.751-7.363-3.06v-3.288H47.91v3.288c-2.768,0.309-5.296,1.406-7.364,3.06l-2.332-2.332
				l-2.258,2.258l2.332,2.332c-1.654,2.068-2.751,4.596-3.06,7.364h-3.289v3.195h3.289c0.308,2.768,1.405,5.295,3.06,7.363
				l-2.332,2.332l2.258,2.258l2.332-2.332c2.068,1.654,4.596,2.752,7.364,3.061v3.287h3.194v-3.287
				c2.768-0.309,5.295-1.406,7.363-3.061l2.332,2.332l2.258-2.258l-2.331-2.332c1.654-2.068,2.751-4.596,3.06-7.363H67.073z
				 M49.506,61.179c-6.163,0-11.179-5.017-11.179-11.179c0-6.163,5.016-11.179,11.179-11.179c6.164,0,11.179,5.016,11.179,11.179
				C60.686,56.162,55.67,61.179,49.506,61.179z"/>
		</g>
	</g>
</g>
</svg>
