<?xml version="1.0" encoding="utf-8"?>
<!-- Generator: Adobe Illustrator 16.0.0, SVG Export Plug-In . SVG Version: 6.00 Build 0)  -->
<!DOCTYPE svg PUBLIC "-//W3C//DTD SVG 1.1//EN" "http://www.w3.org/Graphics/SVG/1.1/DTD/svg11.dtd">
<svg version="1.1" id="Layer_1" xmlns="http://www.w3.org/2000/svg" xmlns:xlink="http://www.w3.org/1999/xlink" x="0px" y="0px"
	 width="100px" height="100px" viewBox="0 0 100 100" enable-background="new 0 0 100 100" xml:space="preserve">
<g>
	<g>
		<path fill="#FFD204" d="M97.286,46.194c0.9,0,1.629-0.731,1.629-1.631V8.692c0-3.597-2.925-6.522-6.521-6.522H50
			c-0.9,0-1.63,0.73-1.63,1.63v11.413c0,3.589,2.925,4.892,4.892,4.892c1.621,0,3.023-0.877,3.954-2.469
			c0.885-1.517,2.455-2.423,4.197-2.423c2.834,0,4.892,2.743,4.892,6.523c0,3.779-2.058,6.521-4.892,6.521
			c-1.739,0-3.358-0.946-4.224-2.47c-0.877-1.54-2.308-2.422-3.928-2.422c-1.966,0-4.891,1.303-4.891,4.892v21.196H27.173
			c-1.313,0-1.611-0.897-1.63-1.63c0-0.434,0.261-0.802,0.773-1.094c2.541-1.445,4.118-4.147,4.118-7.059
			c0-4.648-4.206-8.152-9.782-8.152c-5.577,0-9.783,3.504-9.783,8.152c0,2.872,1.547,5.561,4.04,7.015
			c0.851,0.497,0.851,0.98,0.851,1.119c-0.02,0.753-0.318,1.65-1.63,1.65H4.346V8.692c0-1.798,1.462-3.262,3.261-3.262h35.871
			c0.9,0,1.631-0.73,1.631-1.63s-0.731-1.63-1.631-1.63H7.607c-3.597,0-6.522,2.925-6.522,6.522v42.393c0,0.9,0.73,1.629,1.63,1.629
			h11.413c3.589,0,4.892-2.924,4.892-4.891c0-1.621-0.877-3.024-2.469-3.954c-1.517-0.885-2.423-2.455-2.423-4.198
			c0-2.833,2.743-4.891,6.523-4.891c3.779,0,6.521,2.058,6.521,4.891c0,1.74-0.946,3.359-2.47,4.225
			c-1.54,0.877-2.422,2.309-2.422,3.929c0,1.966,1.303,4.891,4.892,4.891h21.196v21.197c0,1.312-0.897,1.61-1.63,1.629
			c-0.434,0-0.802-0.261-1.094-0.773c-1.445-2.54-4.149-4.118-7.059-4.118c-4.648,0-8.152,4.206-8.152,9.782
			c0,5.577,3.504,9.783,8.152,9.783c2.872,0,5.561-1.55,7.015-4.04c0.497-0.851,0.98-0.851,1.119-0.851
			c0.753,0.019,1.65,0.318,1.65,1.629v9.783H7.607c-1.798,0-3.262-1.462-3.262-3.26V57.606c0-0.9-0.73-1.63-1.63-1.63
			s-1.63,0.73-1.63,1.63v35.872c0,3.597,2.925,6.522,6.522,6.522H50c0.9,0,1.629-0.729,1.629-1.629V86.957
			c0-3.589-2.924-4.892-4.891-4.892c-1.621,0-3.024,0.877-3.954,2.468c-0.885,1.518-2.455,2.424-4.198,2.424
			c-2.833,0-4.891-2.743-4.891-6.523c0-3.779,2.058-6.521,4.891-6.521c1.74,0,3.359,0.945,4.223,2.466
			c0.875,1.54,2.308,2.425,3.93,2.425c1.967,0,4.891-1.303,4.891-4.891V52.714h21.197c1.313,0,1.612,0.897,1.631,1.631
			c0,0.434-0.261,0.803-0.775,1.094c-2.539,1.445-4.116,4.15-4.116,7.058c0,4.649,4.206,8.154,9.782,8.154s9.783-3.504,9.783-8.154
			c0-2.871-1.55-5.559-4.042-7.014c-0.85-0.497-0.85-0.979-0.85-1.118c0.019-0.753,0.317-1.651,1.629-1.651h9.783v40.764
			c0,1.798-1.462,3.26-3.26,3.26H56.521c-0.9,0-1.63,0.731-1.63,1.631s0.73,1.631,1.63,1.631h35.872
			c3.597,0,6.522-2.925,6.522-6.521V51.085c0-0.9-0.729-1.63-1.629-1.63H85.872c-3.589,0-4.892,2.925-4.892,4.892
			c0,1.621,0.877,3.023,2.468,3.954c1.518,0.885,2.424,2.455,2.424,4.197c0,2.834-2.743,4.892-6.523,4.892
			c-3.779,0-6.521-2.058-6.521-4.892c0-1.739,0.945-3.358,2.466-4.223c1.54-0.873,2.425-2.306,2.425-3.928
			c0-1.967-1.303-4.892-4.891-4.892H51.629V28.258c0-1.313,0.897-1.611,1.631-1.63c0.434,0,0.803,0.261,1.094,0.773
			c1.445,2.541,4.148,4.118,7.058,4.118c4.649,0,8.154-4.206,8.154-9.782c0-5.577-3.504-9.783-8.154-9.783
			c-2.871,0-5.559,1.547-7.014,4.04c-0.497,0.851-0.979,0.851-1.118,0.851c-0.753-0.02-1.651-0.318-1.651-1.63V5.431h40.764
			c1.798,0,3.26,1.462,3.26,3.261v35.871C95.653,45.463,96.384,46.194,97.286,46.194z"/>
	</g>
</g>
</svg>
