<?xml version="1.0" encoding="utf-8"?>
<!-- Generator: Adobe Illustrator 17.0.0, SVG Export Plug-In . SVG Version: 6.00 Build 0)  -->
<!DOCTYPE svg PUBLIC "-//W3C//DTD SVG 1.1//EN" "http://www.w3.org/Graphics/SVG/1.1/DTD/svg11.dtd">
<svg version="1.1" id="Layer_1" xmlns="http://www.w3.org/2000/svg" xmlns:xlink="http://www.w3.org/1999/xlink" x="0px" y="0px"
	 width="250px" height="125px" viewBox="0 0 250 125" enable-background="new 0 0 250 125" xml:space="preserve">
<path fill="#5A6F90" stroke="#FFFFFF" stroke-width="0.5" stroke-miterlimit="10" d="M4.893,25.539H19.84v3.449h-5.749v13.797
	h-3.449V28.988H4.893V25.539z M5.468,26.114v2.3h5.749V42.21h2.299V28.413h5.749v-2.3H5.468z"/>
<path fill="#5A6F90" stroke="#FFFFFF" stroke-width="0.5" stroke-miterlimit="10" d="M40.264,42.785h-4.116l-3.013-4.599h-2.713
	v4.599h-3.449V25.539h6.324c3.495,0,6.324,2.829,6.324,6.324c0,2.276-1.196,4.254-2.989,5.381L40.264,42.785z M35.803,37.036
	c1.932-0.943,3.243-2.897,3.243-5.174c0-3.173-2.576-5.749-5.749-5.749h-5.749V42.21h2.299v-4.599h3.449c0.046,0,0.092,0,0.138,0
	l3.012,4.599h2.759L35.803,37.036z M29.847,28.413h3.449c1.909,0,3.449,1.541,3.449,3.449s-1.541,3.449-3.449,3.449h-3.449V28.413z
	 M33.296,34.737c1.587,0,2.875-1.288,2.875-2.875c0-1.587-1.288-2.875-2.875-2.875h-2.875v5.749H33.296z"/>
<path fill="#5A6F90" stroke="#FFFFFF" stroke-width="0.5" stroke-miterlimit="10" d="M58.894,39.911h-8.876l-1.563,2.874h-3.932
	l9.934-18.189l9.957,18.189h-3.932L58.894,39.911z M60.826,42.21h2.622l-8.991-16.418L45.488,42.21h2.622l1.563-2.875h9.566
	L60.826,42.21z M50.938,37.036l3.518-6.461l3.542,6.461H50.938z M57.009,36.462l-2.553-4.691l-2.552,4.691H57.009z"/>
<path fill="#5A6F90" stroke="#FFFFFF" stroke-width="0.5" stroke-miterlimit="10" d="M70.626,25.539h0.92l10.578,10.072V25.539
	h3.449v17.246H84.63L74.076,32.713v10.072h-3.449V25.539z M82.699,26.114v10.854L71.316,26.114h-0.115V42.21h2.299V31.357
	L84.86,42.21h0.138V26.114H82.699z"/>
<path fill="#5A6F90" stroke="#FFFFFF" stroke-width="0.5" stroke-miterlimit="10" d="M103.515,37.611
	c0,2.852-2.323,5.174-5.174,5.174c-2.46,0-4.507-1.702-5.036-4.001l3.312-1.173c0,0.943,0.782,1.725,1.725,1.725
	s1.725-0.782,1.725-1.725s-0.782-1.725-1.725-1.725c-2.852,0-5.174-2.322-5.174-5.174c0-2.851,2.322-5.174,5.174-5.174
	c2.46,0,4.507,1.702,5.036,4.001l-3.311,1.173c0-0.943-0.782-1.725-1.725-1.725s-1.725,0.782-1.725,1.725s0.782,1.725,1.725,1.725
	C101.192,32.437,103.515,34.76,103.515,37.611z M100.502,29.954l2.184-0.782c-0.644-1.771-2.345-3.059-4.346-3.059
	c-2.553,0-4.599,2.07-4.599,4.599c0,2.553,2.046,4.599,4.599,4.599c1.265,0,2.299,1.035,2.299,2.299s-1.035,2.3-2.299,2.3
	c-1.012,0-1.863-0.644-2.162-1.541l-2.185,0.782c0.644,1.771,2.346,3.058,4.346,3.058c2.529,0,4.599-2.046,4.599-4.599
	c0-2.529-2.069-4.599-4.599-4.599c-1.265,0-2.3-1.035-2.3-2.299s1.035-2.299,2.3-2.299C99.329,28.413,100.203,29.057,100.502,29.954
	z"/>
<path fill="#5A6F90" stroke="#FFFFFF" stroke-width="0.5" stroke-miterlimit="10" d="M110.877,25.539h12.646v3.449h-9.197v5.174
	h6.898v3.449h-6.898v5.174h-3.449V25.539z M122.949,28.413v-2.3h-11.498V42.21h2.3v-5.174h6.898v-2.299h-6.898v-6.324H122.949z"/>
<path fill="#5A6F90" stroke="#FFFFFF" stroke-width="0.5" stroke-miterlimit="10" d="M136.75,42.785
	c-4.76,0-8.623-3.863-8.623-8.623c0-4.76,3.863-8.623,8.623-8.623s8.623,3.863,8.623,8.623
	C145.373,38.922,141.51,42.785,136.75,42.785z M136.75,26.114c-4.438,0-8.048,3.61-8.048,8.048s3.609,8.048,8.048,8.048
	s8.048-3.61,8.048-8.048S141.189,26.114,136.75,26.114z M142.499,34.162c0,3.173-2.575,5.749-5.749,5.749
	c-3.173,0-5.749-2.576-5.749-5.749s2.576-5.749,5.749-5.749C139.924,28.413,142.499,30.989,142.499,34.162z M131.577,34.162
	c0,2.852,2.322,5.174,5.174,5.174s5.174-2.322,5.174-5.174c0-2.851-2.322-5.174-5.174-5.174S131.577,31.311,131.577,34.162z"/>
<path fill="#5A6F90" stroke="#FFFFFF" stroke-width="0.5" stroke-miterlimit="10" d="M165.108,42.785h-4.116l-3.013-4.599h-2.713
	v4.599h-3.449V25.539h6.323c3.495,0,6.323,2.829,6.323,6.324c0,2.276-1.195,4.254-2.989,5.381L165.108,42.785z M160.647,37.036
	c1.932-0.943,3.242-2.897,3.242-5.174c0-3.173-2.575-5.749-5.749-5.749h-5.749V42.21h2.3v-4.599h3.449c0.046,0,0.092,0,0.138,0
	l3.013,4.599h2.76L160.647,37.036z M154.691,28.413h3.449c1.908,0,3.449,1.541,3.449,3.449s-1.541,3.449-3.449,3.449h-3.449V28.413z
	 M158.14,34.737c1.587,0,2.874-1.288,2.874-2.875c0-1.587-1.287-2.875-2.874-2.875h-2.874v5.749H158.14z"/>
<path fill="#5A6F90" stroke="#FFFFFF" stroke-width="0.5" stroke-miterlimit="10" d="M173.483,25.539h0.874l6.231,6.738l6.209-6.738
	h0.896l1.311,17.246h-3.449l-0.759-9.979l-4.208,4.553l-4.208-4.553l-0.782,9.979h-3.449L173.483,25.539z M186.084,42.21h2.322
	l-1.242-16.097h-0.114l-6.462,6.991l-6.484-6.991h-0.092L172.77,42.21h2.3l0.827-10.762l4.691,5.059l4.668-5.059L186.084,42.21z"/>
<path fill="#5A6F90" stroke="#FFFFFF" stroke-width="0.5" stroke-miterlimit="10" d="M200.737,42.785h-3.449V25.539h3.449V42.785z
	 M200.162,26.114h-2.3V42.21h2.3V26.114z"/>
<path fill="#5A6F90" stroke="#FFFFFF" stroke-width="0.5" stroke-miterlimit="10" d="M209.478,25.539h0.92l10.577,10.072V25.539
	h3.449v17.246h-0.942l-10.555-10.072v10.072h-3.449V25.539z M221.55,26.114v10.854l-11.383-10.854h-0.115V42.21h2.3V31.357
	l11.359,10.854h0.138V26.114H221.55z"/>
<path fill="#5A6F90" stroke="#FFFFFF" stroke-width="0.5" stroke-miterlimit="10" d="M246.849,39.336
	c-1.563,2.093-4.07,3.449-6.898,3.449c-4.76,0-8.623-3.863-8.623-8.623c0-4.76,3.863-8.623,8.623-8.623
	c3.013,0,5.657,1.541,7.197,3.886l-2.736,2.115c-0.896-1.518-2.553-2.552-4.461-2.552c-2.852,0-5.174,2.323-5.174,5.174
	c0,2.852,2.322,5.174,5.174,5.174c1.334,0,2.529-0.506,3.449-1.311v-0.989h-4.024v-3.449h7.474V39.336z M243.975,38.278
	c-1.035,1.012-2.461,1.633-4.024,1.633c-3.173,0-5.749-2.576-5.749-5.749s2.576-5.749,5.749-5.749c1.886,0,3.541,0.896,4.599,2.299
	l1.817-1.403c-1.472-1.931-3.795-3.196-6.416-3.196c-4.438,0-8.048,3.61-8.048,8.048s3.609,8.048,8.048,8.048
	c2.575,0,4.852-1.196,6.323-3.058v-4.99h-6.323v2.3h4.024V38.278z"/>
<path fill="#5A6F90" stroke="#FFFFFF" stroke-width="0.5" stroke-miterlimit="10" d="M58.978,53.139h14.947v3.449h-5.749v13.797
	h-3.449V56.588h-5.749V53.139z M59.553,53.714v2.3h5.749V69.81h2.299V56.013h5.749v-2.3H59.553z"/>
<path fill="#5A6F90" stroke="#FFFFFF" stroke-width="0.5" stroke-miterlimit="10" d="M96.004,53.139v17.246h-3.449v-5.174h-8.048
	v5.174h-3.449V53.139h3.449v8.623h8.048v-8.623H96.004z M93.13,53.714v8.624h-9.198v-8.624h-2.299V69.81h2.299v-5.174h9.198v5.174
	h2.299V53.714H93.13z"/>
<path fill="#5A6F90" stroke="#FFFFFF" stroke-width="0.5" stroke-miterlimit="10" d="M104.747,53.139h12.647v3.449h-9.198v5.174
	h6.898v3.449h-6.898v1.725h9.198v3.449h-12.647V53.139z M116.819,56.013v-2.3h-11.497V69.81h11.497v-2.299h-9.198v-2.875h6.899
	v-2.299h-6.899v-6.324H116.819z"/>
<path fill="#5A6F90" stroke="#FFFFFF" stroke-width="0.5" stroke-miterlimit="10" d="M141.846,70.385h-1.035l-6.622-17.246h3.702
	l3.426,8.968l3.449-8.968h0.782l3.426,8.968l3.449-8.968h3.68l-6.6,17.246h-1.035l-3.312-8.623L141.846,70.385z M145.157,60.153
	l3.702,9.657h0.253l6.163-16.096h-2.46l-3.841,10.002l-3.817-10.002l-3.84,10.002l-3.817-10.002h-2.46l6.162,16.096h0.253
	L145.157,60.153z"/>
<path fill="#5A6F90" stroke="#FFFFFF" stroke-width="0.5" stroke-miterlimit="10" d="M170.479,67.511h-8.876l-1.563,2.874h-3.933
	l9.935-18.189l9.957,18.189h-3.933L170.479,67.511z M172.411,69.81h2.622l-8.991-16.418l-8.969,16.418h2.622l1.563-2.874h9.565
	L172.411,69.81z M162.523,64.636l3.519-6.461l3.541,6.461H162.523z M168.593,64.062l-2.552-4.691l-2.553,4.691H168.593z"/>
<path fill="#5A6F90" stroke="#FFFFFF" stroke-width="0.5" stroke-miterlimit="10" d="M177.842,53.139h4.069l4.576,7.312l4.6-7.312
	h4.069L188.212,64.2v6.186h-3.449V64.2L177.842,53.139z M191.409,53.714l-4.921,7.818l-4.897-7.818h-2.714l6.462,10.325v5.771h2.3
	v-5.771l6.484-10.325H191.409z"/>
<path fill="#5A6F90" stroke="#FFFFFF" stroke-width="0.5" stroke-miterlimit="10" d="M32.941,97.986h-3.449V80.739h3.449V97.986z
	 M32.366,81.314h-2.299V97.41h2.299V81.314z"/>
<path fill="#5A6F90" stroke="#FFFFFF" stroke-width="0.5" stroke-miterlimit="10" d="M41.682,80.739h0.92l10.578,10.072V80.739
	h3.449v17.247h-0.943L45.131,87.913v10.072h-3.449V80.739z M53.754,81.314v10.854L42.371,81.314h-0.115V97.41h2.299V86.557
	L55.915,97.41h0.138V81.314H53.754z"/>
<path fill="#5A6F90" stroke="#FFFFFF" stroke-width="0.5" stroke-miterlimit="10" d="M65.371,97.986V80.739h6.324
	c4.76,0,8.623,3.863,8.623,8.624c0,4.76-3.863,8.623-8.623,8.623H65.371z M71.695,97.41c4.438,0,8.048-3.61,8.048-8.048
	c0-4.438-3.61-8.049-8.048-8.049h-5.749V97.41H71.695z M68.246,95.111V83.614h3.449c3.173,0,5.749,2.575,5.749,5.749
	c0,3.173-2.576,5.748-5.749,5.748H68.246z M71.695,94.536c2.852,0,5.174-2.323,5.174-5.174c0-2.852-2.322-5.174-5.174-5.174h-2.875
	v10.348H71.695z"/>
<path fill="#5A6F90" stroke="#FFFFFF" stroke-width="0.5" stroke-miterlimit="10" d="M90.441,97.986h-3.449V80.739h3.449V97.986z
	 M89.866,81.314h-2.299V97.41h2.299V81.314z"/>
<path fill="#5A6F90" stroke="#FFFFFF" stroke-width="0.5" stroke-miterlimit="10" d="M111.024,95.111h-8.876l-1.563,2.875h-3.932
	l9.934-18.189l9.957,18.189h-3.932L111.024,95.111z M112.956,97.41h2.621l-8.991-16.419L97.618,97.41h2.622l1.563-2.874h9.566
	L112.956,97.41z M103.068,92.237l3.518-6.462l3.541,6.462H103.068z M109.139,91.661l-2.553-4.69l-2.552,4.69H109.139z"/>
<path fill="#5A6F90" stroke="#FFFFFF" stroke-width="0.5" stroke-miterlimit="10" d="M143.224,92.812
	c0,2.851-2.322,5.174-5.174,5.174c-2.46,0-4.507-1.702-5.035-4.001l3.311-1.173c0,0.942,0.782,1.725,1.725,1.725
	c0.943,0,1.725-0.782,1.725-1.725c0-0.943-0.781-1.725-1.725-1.725c-2.851,0-5.174-2.323-5.174-5.174
	c0-2.852,2.323-5.175,5.174-5.175c2.461,0,4.508,1.702,5.036,4.002l-3.312,1.173c0-0.943-0.781-1.725-1.725-1.725
	c-0.942,0-1.725,0.781-1.725,1.725c0,0.942,0.782,1.725,1.725,1.725C140.902,87.638,143.224,89.96,143.224,92.812z M140.212,85.155
	l2.185-0.782c-0.645-1.771-2.346-3.059-4.347-3.059c-2.552,0-4.599,2.069-4.599,4.6c0,2.552,2.047,4.599,4.599,4.599
	c1.265,0,2.3,1.035,2.3,2.3s-1.035,2.299-2.3,2.299c-1.012,0-1.862-0.644-2.161-1.54l-2.185,0.781
	c0.644,1.771,2.346,3.059,4.346,3.059c2.53,0,4.6-2.047,4.6-4.599c0-2.53-2.069-4.6-4.6-4.6c-1.265,0-2.299-1.034-2.299-2.299
	c0-1.266,1.034-2.3,2.299-2.3C139.039,83.614,139.913,84.257,140.212,85.155z"/>
<path fill="#5A6F90" stroke="#FFFFFF" stroke-width="0.5" stroke-miterlimit="10" d="M165.534,80.739v17.247h-3.449v-5.174h-8.048
	v5.174h-3.449V80.739h3.449v8.624h8.048v-8.624H165.534z M162.66,81.314v8.623h-9.198v-8.623h-2.3V97.41h2.3v-5.174h9.198v5.174
	h2.299V81.314H162.66z"/>
<path fill="#5A6F90" stroke="#FFFFFF" stroke-width="0.5" stroke-miterlimit="10" d="M180.6,97.986c-4.76,0-8.623-3.863-8.623-8.623
	c0-4.761,3.863-8.624,8.623-8.624s8.623,3.863,8.623,8.624C189.223,94.122,185.36,97.986,180.6,97.986z M180.6,81.314
	c-4.438,0-8.048,3.61-8.048,8.049c0,4.438,3.609,8.048,8.048,8.048s8.048-3.61,8.048-8.048
	C188.648,84.924,185.038,81.314,180.6,81.314z M186.349,89.363c0,3.173-2.575,5.748-5.749,5.748c-3.173,0-5.749-2.575-5.749-5.748
	c0-3.174,2.576-5.749,5.749-5.749C183.774,83.614,186.349,86.189,186.349,89.363z M175.426,89.363c0,2.851,2.322,5.174,5.174,5.174
	s5.174-2.323,5.174-5.174c0-2.852-2.322-5.174-5.174-5.174S175.426,86.511,175.426,89.363z"/>
<path fill="#5A6F90" stroke="#FFFFFF" stroke-width="0.5" stroke-miterlimit="10" d="M199.116,93.386v4.6h-3.449V80.739h6.323
	c3.495,0,6.323,2.829,6.323,6.324s-2.828,6.323-6.323,6.323H199.116z M196.241,81.314V97.41h2.3v-4.599h3.449
	c3.174,0,5.749-2.576,5.749-5.749c0-3.174-2.575-5.749-5.749-5.749H196.241z M198.54,90.512v-6.898h3.449
	c1.908,0,3.449,1.541,3.449,3.449s-1.541,3.449-3.449,3.449H198.54z M201.99,89.937c1.587,0,2.874-1.287,2.874-2.874
	s-1.287-2.874-2.874-2.874h-2.874v5.748H201.99z"/>
<path fill="#5A6F90" stroke="#FFFFFF" stroke-width="0.5" stroke-miterlimit="10" d="M224.184,92.812
	c0,2.851-2.322,5.174-5.174,5.174c-2.46,0-4.507-1.702-5.035-4.001l3.311-1.173c0,0.942,0.782,1.725,1.725,1.725
	c0.943,0,1.725-0.782,1.725-1.725c0-0.943-0.781-1.725-1.725-1.725c-2.851,0-5.174-2.323-5.174-5.174
	c0-2.852,2.323-5.175,5.174-5.175c2.461,0,4.508,1.702,5.036,4.002l-3.312,1.173c0-0.943-0.781-1.725-1.725-1.725
	c-0.942,0-1.725,0.781-1.725,1.725c0,0.942,0.782,1.725,1.725,1.725C221.862,87.638,224.184,89.96,224.184,92.812z M221.172,85.155
	l2.185-0.782c-0.645-1.771-2.346-3.059-4.347-3.059c-2.552,0-4.599,2.069-4.599,4.6c0,2.552,2.047,4.599,4.599,4.599
	c1.265,0,2.3,1.035,2.3,2.3s-1.035,2.299-2.3,2.299c-1.012,0-1.862-0.644-2.161-1.54l-2.185,0.781
	c0.644,1.771,2.346,3.059,4.346,3.059c2.53,0,4.6-2.047,4.6-4.599c0-2.53-2.069-4.6-4.6-4.6c-1.265,0-2.299-1.034-2.299-2.299
	c0-1.266,1.034-2.3,2.299-2.3C219.999,83.614,220.873,84.257,221.172,85.155z"/>
<g>
</g>
<g>
</g>
<g>
</g>
<g>
</g>
<g>
</g>
<g>
</g>
</svg>
