<?xml version="1.0" encoding="utf-8"?>
<!-- Generator: Adobe Illustrator 16.0.0, SVG Export Plug-In . SVG Version: 6.00 Build 0)  -->
<!DOCTYPE svg PUBLIC "-//W3C//DTD SVG 1.1//EN" "http://www.w3.org/Graphics/SVG/1.1/DTD/svg11.dtd">
<svg version="1.1" id="Layer_1" xmlns="http://www.w3.org/2000/svg" xmlns:xlink="http://www.w3.org/1999/xlink" x="0px" y="0px"
	 width="100px" height="100px" viewBox="0 0 100 100" enable-background="new 0 0 100 100" xml:space="preserve">
<path fill="#FFD204" d="M100,56.716V0H0v56.716h48.433v27.531c-3.481-4.902-9.201-7.99-15.312-7.99
	c-2.336,0-4.526,0.475-6.717,1.242L25,78.121l0.622,1.405c2.81,7.189,9.834,12.025,17.498,12.025c1.846,0,3.594-0.293,5.313-0.799
	v6.111H1.567V100h96.88v-3.121h-46.88V75.294c2.143,0.816,4.301,1.273,6.57,1.273c7.336,0,14.068-4.379,17.189-11.093l0.619-1.407
	l-1.403-0.621c-2.5-1.093-5-1.714-7.664-1.714c-6.191,0-11.862,2.99-15.312,7.81V56.732H100V56.716L100,56.716z M43.12,88.432
	c-5.931,0-11.241-3.432-13.904-8.595c1.241-0.311,2.663-0.474,4.068-0.474c5.932,0,11.242,3.431,13.905,8.594
	C45.784,88.285,44.526,88.432,43.12,88.432z M66.716,64.835c1.716,0,3.284,0.311,4.837,0.785c-2.663,4.836-7.811,7.812-13.431,7.812
	c-1.716,0-3.285-0.311-4.837-0.785C56.094,67.811,61.095,64.835,66.716,64.835z M3.121,3.12h93.758v50.474H3.121V3.12z"/>
<g>
	<path fill="#FFD204" d="M85.88,50.405H14.12v-1.5c0-3.539-2.771-6.311-6.31-6.311h-1.5V14.12h1.5c3.538,0,6.31-2.771,6.31-6.31
		v-1.5h71.76v1.5c0,3.539,2.771,6.31,6.31,6.31h1.5v28.475h-1.5c-3.538,0-6.31,2.772-6.31,6.311V50.405z M17.005,47.405h65.99
		c0.621-3.996,3.698-7.074,7.694-7.695V17.005c-3.996-0.622-7.073-3.699-7.694-7.695h-65.99c-0.621,3.996-3.698,7.073-7.694,7.695
		V39.71C13.307,40.332,16.384,43.409,17.005,47.405z"/>
</g>
<g>
	<path fill="#FFD204" d="M50,42.285c-7.72,0-14.001-6.281-14.001-14s6.281-14,14.001-14c7.719,0,13.999,6.28,13.999,14
		S57.719,42.285,50,42.285z M50,17.284c-6.066,0-11.001,4.935-11.001,11c0,6.066,4.935,11,11.001,11c6.064,0,10.999-4.935,10.999-11
		C60.999,22.219,56.064,17.284,50,17.284z"/>
	<path fill="#FFD204" d="M79.837,33.689c-2.981,0-5.406-2.425-5.406-5.405s2.425-5.405,5.406-5.405s5.407,2.425,5.407,5.405
		S82.818,33.689,79.837,33.689z M79.837,25.879c-1.327,0-2.406,1.079-2.406,2.405s1.079,2.405,2.406,2.405s2.407-1.079,2.407-2.405
		S81.164,25.879,79.837,25.879z"/>
	<path fill="#FFD204" d="M20.164,33.689c-2.981,0-5.407-2.425-5.407-5.405s2.426-5.405,5.407-5.405c2.98,0,5.405,2.425,5.405,5.405
		S23.145,33.689,20.164,33.689z M20.164,25.879c-1.327,0-2.407,1.079-2.407,2.405s1.08,2.405,2.407,2.405
		c1.326,0,2.405-1.079,2.405-2.405S21.49,25.879,20.164,25.879z"/>
</g>
<g>
	<rect x="84.526" y="63.595" fill="#FFD204" width="3.119" height="3.121"/>
	<rect x="84.526" y="75.164" fill="#FFD204" width="3.119" height="3.12"/>
	<rect x="84.526" y="86.879" fill="#FFD204" width="3.119" height="3.121"/>
	<rect x="12.337" y="63.595" fill="#FFD204" width="3.12" height="3.121"/>
	<rect x="12.337" y="75.164" fill="#FFD204" width="3.12" height="3.12"/>
	<rect x="12.337" y="86.879" fill="#FFD204" width="3.12" height="3.121"/>
</g>
</svg>
