<?xml version="1.0" encoding="utf-8"?>
<!-- Generator: Adobe Illustrator 16.0.0, SVG Export Plug-In . SVG Version: 6.00 Build 0)  -->
<!DOCTYPE svg PUBLIC "-//W3C//DTD SVG 1.1//EN" "http://www.w3.org/Graphics/SVG/1.1/DTD/svg11.dtd">
<svg version="1.1" id="Layer_1" xmlns="http://www.w3.org/2000/svg" xmlns:xlink="http://www.w3.org/1999/xlink" x="0px" y="0px"
	 width="100px" height="100px" viewBox="0 0 100 100" enable-background="new 0 0 100 100" xml:space="preserve">
<g>
	<path fill="#FF9C00" d="M40.893,29.104c-3.896,0-7.065-3.169-7.065-7.064s3.169-7.063,7.065-7.063c3.895,0,7.064,3.168,7.064,7.063
		S44.788,29.104,40.893,29.104z M40.893,17.614c-2.442,0-4.428,1.985-4.428,4.426s1.986,4.427,4.428,4.427
		c2.441,0,4.426-1.986,4.426-4.427S43.334,17.614,40.893,17.614z"/>
	<path fill="#FF9C00" d="M56.694,23.358c-3.896,0-7.066-3.168-7.066-7.063c0-3.896,3.17-7.065,7.066-7.065
		c3.895,0,7.063,3.17,7.063,7.065C63.757,20.19,60.588,23.358,56.694,23.358z M56.694,11.868c-2.442,0-4.429,1.986-4.429,4.428
		c0,2.439,1.987,4.425,4.429,4.425c2.44,0,4.426-1.985,4.426-4.425C61.12,13.854,59.134,11.868,56.694,11.868z"/>
	<rect x="36.582" y="7.676" fill="#FF9C00" width="2.873" height="7.183"/>
	<rect x="42.329" y="6.239" fill="#FF9C00" width="2.872" height="8.619"/>
	<rect x="52.384" y="3.366" fill="#FF9C00" width="2.873" height="5.746"/>
	<rect x="58.13" y="1.931" fill="#FF9C00" width="2.873" height="7.182"/>
	<path fill="#FF9C00" d="M97.685,23.071h-7.811v3.269h3.327L83.025,40.332l-7.975-6.379l-8.11,8.11
		c-0.307-2.41-2.345-4.287-4.84-4.287h-0.451l6.535-11.438H31.42l6.165,10.135l-5.482,4.57H0.017v3.267h33.267l9.594-7.993
		l10.105,2.887l3.438,4.295c0.454,0.568,0.655,1.28,0.563,2.003c-0.093,0.722-0.463,1.36-1.047,1.798
		c-1.053,0.792-2.553,0.684-3.487-0.247l-3.297-3.297l-9.31,7.448l0.957,1.195c-0.309,4.136-2.178,8.158-5.371,11.44
		c-0.022,0.026-0.042,0.052-0.065,0.075h-0.65l-3.268-1.635H0.017v3.268h30.657l2.402,1.202c-1.962,2.886-3.167,6.192-3.523,9.686
		l-6.663-6.661L-1.139,93.803l2.311,2.311L22.89,74.396l6.682,6.684c1.214,10.116,9.884,18.346,20.214,18.763
		c0.298,0.011,0.594,0.017,0.887,0.017c5.514,0,10.706-2.081,14.701-5.92c4.209-4.042,6.527-9.481,6.527-15.318
		c0-5.281-1.938-10.25-5.439-14.149c0.333-0.661,0.54-1.396,0.54-2.188c0-1.26-0.493-2.398-1.275-3.268
		c0.786-0.869,1.275-2.009,1.275-3.268c0-1.26-0.493-2.399-1.275-3.268c0.786-0.869,1.275-2.007,1.275-3.268
		c0-0.755-0.185-1.462-0.493-2.099l8.783-8.781l8.361,6.689l12.019-16.525l0.786,3.142l3.17-0.795L97.685,23.071z M62.1,41.044
		c0.901,0,1.635,0.732,1.635,1.633c0,0.901-0.733,1.634-1.635,1.634h-1.916c-0.149-1.029-0.544-2.016-1.213-2.853l-0.334-0.414H62.1
		z M56.025,37.776l-1.142-1.428L42.112,32.7l-1.989,1.657l-2.89-4.751h25.32l-4.667,8.17H56.025z M57.895,49.915
		c0.821-0.616,1.43-1.427,1.835-2.337h2.37c0.901,0,1.635,0.733,1.635,1.635c0,0.9-0.733,1.633-1.635,1.633H56.03
		C56.689,50.651,57.322,50.345,57.895,49.915z M55.565,54.113H62.1c0.901,0,1.635,0.733,1.635,1.635s-0.733,1.634-1.635,1.634
		h-6.534c-0.9,0-1.634-0.732-1.634-1.634S54.665,54.113,55.565,54.113z M55.565,60.648H62.1c0.901,0,1.635,0.733,1.635,1.635
		c0,0.899-0.733,1.634-1.635,1.634h-6.534c-0.9,0-1.634-0.734-1.634-1.634C53.931,61.382,54.665,60.648,55.565,60.648z
		 M68.636,78.62c0,4.938-1.963,9.542-5.525,12.963c-3.56,3.419-8.221,5.183-13.193,4.993c-9.327-0.375-17.055-8.282-17.223-17.626
		c-0.086-4.817,1.715-9.374,5.074-12.829c3.898-4.009,6.105-9,6.318-14.13l4.821-3.857l1.229,1.229
		c0.184,0.186,0.389,0.337,0.588,0.49c0.134,1.006,0.565,1.908,1.211,2.625c-0.785,0.87-1.274,2.009-1.274,3.268
		c0,1.261,0.492,2.399,1.274,3.268c-0.785,0.869-1.274,2.009-1.274,3.268c0,1.261,0.492,2.398,1.274,3.268h-0.197
		c0.214,0.197,0.398,0.42,0.556,0.658V65.91c0.869,0.783,2.009,1.274,3.269,1.274H62.1c0.719,0,1.399-0.165,2.015-0.444
		C67.028,70.023,68.636,74.193,68.636,78.62z"/>
	<path fill="#FF9C00" d="M56.574,74.325h-1.453c-0.095-0.841-0.388-1.629-0.854-2.238h2.307c0.552,0,1-0.413,1-0.966
		s-0.448-0.977-1-0.977h-7.822c-0.029,0-0.057,0-0.086,0c-0.019,0-0.038,0-0.056,0h-3.73c-0.554,0-1,0.424-1,0.977
		s0.447,0.966,1,0.966h4.434c1.401,0.102,2.869,0.644,3.255,2.238h-7.689c-0.554,0-1,0.449-1,1.002s0.447,1.001,1,1.001h7.589
		c-0.472,1.26-1.769,2.029-3.572,2.029h-1.989h-0.005h-1.161c-0.538,0-0.974,0.435-0.974,0.976c0,0.538,0.437,0.975,0.974,0.975
		h1.147c0.005,0,0.009,0.004,0.014,0.004h1.811c1.965,0.074,2.84,0.927,3.341,3.26c0.393,1.732,0.682,2.862,0.909,3.537
		c0.17,0.626,0.507,1.568,1.092,2.131c0.228,0.22,0.523,0.33,0.816,0.33c0.31,0,0.619-0.121,0.851-0.361
		c0.423-0.44,0.431-1.123,0.043-1.579c-0.001-0.007-0.001-0.013-0.004-0.018c-0.359-0.664-0.792-2.449-1.322-4.714
		c-0.421-1.841-1.208-2.987-2.398-3.497c1.497-0.575,2.524-1.673,2.928-3.074h1.606c0.552,0,1-0.447,1-1
		S57.126,74.325,56.574,74.325z"/>
</g>
</svg>
