<?xml version="1.0" encoding="utf-8"?>
<!-- Generator: Adobe Illustrator 17.0.0, SVG Export Plug-In . SVG Version: 6.00 Build 0)  -->
<!DOCTYPE svg PUBLIC "-//W3C//DTD SVG 1.1//EN" "http://www.w3.org/Graphics/SVG/1.1/DTD/svg11.dtd">
<svg version="1.1" id="Capa_1" xmlns="http://www.w3.org/2000/svg" xmlns:xlink="http://www.w3.org/1999/xlink" x="0px" y="0px"
	 width="1190.55px" height="841.89px" viewBox="0 0 1190.55 841.89" enable-background="new 0 0 1190.55 841.89"
	 xml:space="preserve">
<g>
	<path fill="#08152A" d="M982.459,198.479c0-3.198-0.711-6.397-2.132-9.418c-2.843-6.041-8.351-10.128-14.393-11.372L603.982,2.132
		c-5.864-2.843-12.794-2.843-18.657,0L219.818,179.288c-7.108,3.376-11.727,10.484-12.083,18.48v0.178c0,0.178,0,0.355,0,0.711
		v444.578c0,8.174,4.62,15.637,12.083,19.19L585.324,839.58c0.178,0,0.178,0,0.355,0.178c0.533,0.178,1.066,0.355,1.599,0.711
		c0.178,0,0.355,0.178,0.711,0.178c0.533,0.178,1.066,0.355,1.599,0.533c0.178,0,0.355,0.178,0.533,0.178
		c0.533,0.178,1.244,0.178,1.777,0.355c0.178,0,0.355,0,0.533,0c0.711,0,1.599,0.178,2.31,0.178s1.599,0,2.31-0.178
		c0.178,0,0.355,0,0.533,0c0.533,0,1.244-0.178,1.777-0.355c0.178,0,0.355-0.178,0.533-0.178c0.533-0.178,1.066-0.355,1.599-0.533
		c0.178,0,0.355-0.178,0.711-0.178c0.533-0.178,1.066-0.355,1.599-0.711c0.178,0,0.178,0,0.355-0.178L970.73,661.891
		c7.285-3.554,12.083-11.017,12.083-19.19V199.012C982.459,198.834,982.459,198.656,982.459,198.479z M594.564,44.955
		l316.997,153.701L794.82,255.339L477.823,101.638L594.564,44.955z M594.564,352.357L277.567,198.656l151.391-73.386
		l316.997,153.701L594.564,352.357z M250.381,232.95l322.861,156.544v396.779L250.381,629.729V232.95z M615.887,786.273V389.494
		l151.569-73.563v103.77c0,11.727,9.595,21.323,21.323,21.323s21.323-9.595,21.323-21.323v-124.56l129.713-62.902v396.779
		L615.887,786.273z"/>
</g>
</svg>
