<?xml version="1.0" encoding="utf-8"?>
<!-- Generator: Adobe Illustrator 16.0.0, SVG Export Plug-In . SVG Version: 6.00 Build 0)  -->
<!DOCTYPE svg PUBLIC "-//W3C//DTD SVG 1.1//EN" "http://www.w3.org/Graphics/SVG/1.1/DTD/svg11.dtd">
<svg version="1.1" id="Layer_1" xmlns="http://www.w3.org/2000/svg" xmlns:xlink="http://www.w3.org/1999/xlink" x="0px" y="0px"
	 width="100px" height="100px" viewBox="0 0 100 100" enable-background="new 0 0 100 100" xml:space="preserve">
<g>
	<path fill="#FF9C00" d="M56.382,55.021c-0.459,0.746-0.891,1.453-1.322,2.134c2.055,1.345,3.428,3.659,3.428,6.291
		c0,4.134-3.375,7.51-7.509,7.51s-7.509-3.376-7.509-7.51c0-2.632,1.36-4.946,3.427-6.291c-0.418-0.67-0.863-1.39-1.321-2.134
		c-2.759,1.778-4.604,4.891-4.604,8.411c0,5.506,4.5,10.008,10.008,10.008c5.508,0,10.007-4.502,10.007-10.008
		C60.986,59.912,59.142,56.813,56.382,55.021z"/>
	<rect x="41.291" y="89.72" fill="#FF9C00" width="3.074" height="3.073"/>
	<rect x="49.434" y="89.72" fill="#FF9C00" width="3.073" height="3.073"/>
	<rect x="57.592" y="89.72" fill="#FF9C00" width="3.073" height="3.073"/>
	<path fill="#193651" d="M1.726,88.935c0,0,0,0.011-0.003,0.018c0.007,0.006,0.007,0.009,0.007,0.017
		C1.729,88.958,1.726,88.945,1.726,88.935z M1.718,88.958c0.004,0.003,0.004,0.003,0.004,0.007c0,0,0.003-0.004,0-0.013
		c0-0.002,0-0.007-0.007-0.009C1.718,88.945,1.718,88.952,1.718,88.958z"/>
	<g>
		<path fill="#FF9C00" d="M13.859,100.454c-6.23,0-11.894-5.243-12.367-11.448l-0.014-0.547c-0.004-0.131,0-0.211,0.005-0.287
			l0.008-0.17V37.4c0-5.959,4.289-9.432,8.302-10.694l0.13-0.041l0.136-0.001c0.708-0.005,1.397-0.101,2.109-0.291l0.088-0.023
			l0.091-0.006c0.4-0.024,0.792-0.081,1.163-0.166l0.133-0.03l0.136,0.01c0.205,0.015,0.388,0.027,0.574,0.027
			c0.556,0,1.116-0.058,1.663-0.17l0.091-0.02l17.025,0.011l0.137,0.743c0.106,0.579,0.249,1.154,0.422,1.708l0.369,1.18h-7.049
			l0.027,0.085c0.546,1.718,0.834,3.657,0.834,5.609c0,10.856-8.861,19.688-19.753,19.688c-0.946,0-1.998,0-2.998-0.191v34.568
			c0.34,1.43,1.001,2.743,1.935,3.864l26.939-19.969l2.396,3.172l-26.036,19.26c0.83,0.38,1.746,0.623,2.733,0.723l0.094,0.003
			c0.05-0.001,0.144-0.019,0.239-0.035c0.171-0.028,0.304-0.047,0.437-0.047h56.512c-0.709-2.256-1.068-4.498-1.068-6.673
			c0-12.837,10.52-23.28,23.451-23.28c1.42,0,2.842,0.125,4.068,0.354V35.837l-0.263-0.929c-0.044-0.144-0.232-0.71-0.265-0.8
			c-0.024-0.066-0.048-0.123-0.074-0.186c-0.053-0.14-0.105-0.257-0.159-0.374l-0.034-0.059l-0.074-0.165
			c-0.008-0.019-0.113-0.216-0.141-0.26c-0.057-0.103-0.092-0.161-0.132-0.222l-0.046-0.07l-0.201-0.232L67.978,52.884l-2.397-3.201
			l26.31-19.488c-0.168-0.063-0.333-0.104-0.49-0.104H68.738v-0.453h-0.364l0.388-1.203c0.193-0.563,0.353-1.139,0.473-1.708
			l0.152-0.721h20.058c6.584,0,11.008,4.58,11.008,11.396v50.602c0,7.099-4.732,12.452-11.008,12.452H13.859z M90.042,96.367
			c3.325,0,6.063-2.822,6.659-6.863c0.087-0.556,0.123-0.988,0.123-1.502V70.799c-1.553-0.261-2.814-0.457-4.068-0.457
			c-10.716,0-19.435,8.684-19.435,19.358c0,2.344,0.406,4.585,1.207,6.667H90.042z M5.123,50.826
			c0.742,0.153,1.553,0.168,2.27,0.168l0.733-0.002c8.682,0,15.743-7.021,15.743-15.652c0-2.04-0.283-3.718-0.887-5.25H11.879
			c-3.315,0.465-5.971,2.821-6.607,5.868c-0.099,0.469-0.149,0.953-0.149,1.442V50.826z"/>
	</g>
	<path fill="#FF9C00" d="M50.979,66.077l-1.318-1.927c-0.828-1.211-20.282-29.778-20.282-41.211c0-11.999,9.689-21.762,21.6-21.762
		c11.91,0,21.6,9.763,21.6,21.762c0,11.448-19.453,40.001-20.282,41.212L50.979,66.077z M50.979,4.373
		c-10.149,0-18.405,8.329-18.405,18.566c0,8.846,13.988,30.741,18.406,37.435c4.417-6.689,18.404-28.576,18.404-37.435
		C69.384,12.702,61.127,4.373,50.979,4.373z"/>
	<path fill="#FF9C00" d="M50.979,31.162c-5.885,0-10.673-4.789-10.673-10.674c0-5.884,4.788-10.673,10.673-10.673
		c5.886,0,10.674,4.789,10.674,10.673C61.652,26.373,56.864,31.162,50.979,31.162z M50.979,13.011c-4.123,0-7.478,3.354-7.478,7.478
		c0,4.124,3.355,7.479,7.478,7.479c4.124,0,7.479-3.354,7.479-7.479C58.457,16.365,55.103,13.011,50.979,13.011z"/>
</g>
</svg>
