<?xml version="1.0" encoding="utf-8"?>
<!-- Generator: Adobe Illustrator 16.0.0, SVG Export Plug-In . SVG Version: 6.00 Build 0)  -->
<!DOCTYPE svg PUBLIC "-//W3C//DTD SVG 1.1//EN" "http://www.w3.org/Graphics/SVG/1.1/DTD/svg11.dtd">
<svg version="1.1" id="Layer_1" xmlns="http://www.w3.org/2000/svg" xmlns:xlink="http://www.w3.org/1999/xlink" x="0px" y="0px"
	 width="100px" height="100px" viewBox="0 0 100 100" enable-background="new 0 0 100 100" xml:space="preserve">
<g>
	<path fill="#FFD204" d="M99.521,61.374c-2.923-4.073-5.887-4.137-13.308-0.232l-14.382,8.793c-2.133,1.134-6.507,1.474-10.75,1.546
		c0.754-1.57,0.417-3.442-1.007-5.571c-1.319-1.968-3.116-3.532-5.2-4.603c3.455-2.808,5.523-6.989,5.523-11.585
		c0-8.276-6.733-15.011-15.011-15.011c-8.278,0-15.011,6.734-15.011,15.011c0,2.47,0.613,4.829,1.712,6.932
		c-0.022-0.015-0.045-0.027-0.065-0.045c-5.988-4.515-15.993-5.152-19.994-5.22v-5.049H0.35v53.421h11.676v-5.004h21.683
		c3.403,0,6.835-0.26,10.201-0.771l21.622-3.288c0.787-0.011,1.584-0.104,2.296-0.264c1.992-0.279,3.894-1.23,5.507-2.752
		l25.281-19.688l0.038-0.032C100.624,66.333,101.003,63.438,99.521,61.374z M38.996,59.478c-3.317-2.171-5.287-5.794-5.287-9.756
		c0-6.438,5.24-11.676,11.676-11.676c6.437,0,11.675,5.237,11.675,11.676c0,4.313-2.32,8.188-6.09,10.24
		c-0.208-0.04-0.417-0.059-0.626-0.092c-0.209-0.032-0.414-0.068-0.626-0.092c-0.542-0.06-1.087-0.096-1.634-0.096h-6.505
		C40.74,59.684,39.872,59.614,38.996,59.478z M8.689,96.425H3.686v-46.75h5.003v1.77v43.313V96.425z M96.544,65.38L71.219,85.101
		l-0.128,0.111c-1.117,1.07-2.406,1.733-3.894,1.949c-0.606,0.135-1.212,0.203-1.798,0.203l-21.992,3.324
		c-3.2,0.488-6.464,0.735-9.699,0.735H12.026V54.729c3.698,0.078,12.853,0.673,17.987,4.543c2.228,1.681,4.898,2.823,7.747,3.37
		l0.026,0.014l0.316,0.055c0.017,0.003,0.032,0.003,0.049,0.007c0.546,0.094,1.1,0.167,1.659,0.217
		c0.019,0.002,0.037,0.005,0.054,0.006c0.567,0.048,1.138,0.077,1.713,0.077h6.504c0.917,0,1.835,0.108,2.726,0.321l0.107,0.027
		c2.623,0.651,4.904,2.193,6.382,4.4c0.703,1.046,0.979,1.915,0.744,2.324c-0.446,0.771-2.512,1.245-4.608,1.336
		c-0.683-0.012-1.304-0.02-1.85-0.02H35.377c-5.222,0-8.34,2.494-8.34,6.673c0,0.92,0.746,1.667,1.668,1.667
		c0.921,0,1.668-0.747,1.668-1.667c0-0.827,0-3.336,5.003-3.336h16.169c0.379,0.023,1.106,0.054,2.021,0.021
		c0.288,0.005,0.585,0.01,0.888,0.016c7.828,0.145,15.169,0.104,19.028-1.951l14.375-8.791c6.878-3.613,7.57-2.645,8.952-0.72
		C97.271,63.96,97.153,64.862,96.544,65.38z"/>
	<path fill="#FFD204" d="M53.725,49.722c0-4.598-3.741-8.34-8.34-8.34s-8.34,3.742-8.34,8.34s3.741,8.34,8.34,8.34
		S53.725,54.32,53.725,49.722z M45.385,54.727c-2.759,0-5.004-2.246-5.004-5.004c0-2.759,2.245-5.004,5.004-5.004
		s5.003,2.245,5.003,5.004C50.388,52.48,48.144,54.727,45.385,54.727z"/>
	<path fill="#FFD204" d="M70.403,33.043c8.279,0,15.013-6.735,15.013-15.012S78.682,3.02,70.403,3.02
		c-8.277,0-15.01,6.735-15.01,15.011S62.126,33.043,70.403,33.043z M70.403,6.355c6.438,0,11.678,5.238,11.678,11.676
		c0,6.438-5.24,11.676-11.678,11.676c-6.436,0-11.673-5.237-11.673-11.676C58.729,11.593,63.967,6.355,70.403,6.355z"/>
	<path fill="#FFD204" d="M70.403,26.371c4.6,0,8.341-3.741,8.341-8.339c0-4.599-3.741-8.34-8.341-8.34
		c-4.598,0-8.339,3.742-8.339,8.34C62.064,22.629,65.805,26.371,70.403,26.371z M70.403,13.028c2.761,0,5.004,2.245,5.004,5.003
		s-2.244,5.003-5.004,5.003c-2.757,0-5.003-2.245-5.003-5.003S67.646,13.028,70.403,13.028z"/>
</g>
</svg>
